<svg width="570" height="570" viewBox="0 0 570 570" fill="none" xmlns="http://www.w3.org/2000/svg">
<path d="M311.893 19.2318C361.46 29.2068 417.787 56.772 440.815 104.584C475.619 176.814 538.217 176.084 554.302 312.873C556.81 334.202 556.97 354.255 555.1 373.008C554.097 383.086 552.49 392.798 550.335 402.101C530.898 486.632 466.762 539.368 393.277 554.667C296.628 574.799 239.332 514.288 205.086 474.479C170.829 434.671 57 398.316 40.128 263.967C37.563 243.481 37.0956 222.71 39.2844 202.156C44.2434 155.257 63.84 105.245 98.9292 72.3786C101.563 69.9162 104.287 67.5222 107.08 65.208C161.686 20.0184 244.313 5.63159 311.893 19.2318Z" fill="#00CE00"/>
<path opacity="0.7" d="M311.893 19.2318C361.46 29.2068 417.787 56.772 440.815 104.584C475.619 176.814 538.217 176.084 554.302 312.873C556.81 334.202 556.97 354.255 555.1 373.008C554.097 383.086 552.49 392.798 550.335 402.101C530.898 486.632 466.762 539.368 393.277 554.667C296.628 574.799 239.332 514.288 205.086 474.479C170.829 434.671 57 398.316 40.128 263.967C37.563 243.481 37.0956 222.71 39.2844 202.156C44.2434 155.257 63.84 105.245 98.9292 72.3786C101.563 69.9162 104.287 67.5222 107.08 65.208C161.686 20.0184 244.313 5.63159 311.893 19.2318Z" fill="#D9D9D9"/>
<path d="M61.2522 65.7438L77.1666 81.6582" stroke="#282828" stroke-miterlimit="10" stroke-linecap="round" stroke-linejoin="round"/>
<path d="M77.1666 65.7438L61.2522 81.6582" stroke="#282828" stroke-miterlimit="10" stroke-linecap="round" stroke-linejoin="round"/>
<path d="M509.979 483.816L525.893 499.73" stroke="#282828" stroke-miterlimit="10" stroke-linecap="round" stroke-linejoin="round"/>
<path d="M525.893 483.816L509.979 499.73" stroke="#282828" stroke-miterlimit="10" stroke-linecap="round" stroke-linejoin="round"/>
<path d="M158.323 150.024L169.142 160.843" stroke="#282828" stroke-miterlimit="10" stroke-linecap="round" stroke-linejoin="round"/>
<path d="M169.142 150.024L158.323 160.843" stroke="#282828" stroke-miterlimit="10" stroke-linecap="round" stroke-linejoin="round"/>
<path d="M433.804 408.029L444.623 418.847" stroke="#282828" stroke-miterlimit="10" stroke-linecap="round" stroke-linejoin="round"/>
<path d="M444.623 408.029L433.804 418.847" stroke="#282828" stroke-miterlimit="10" stroke-linecap="round" stroke-linejoin="round"/>
<path d="M104.287 506.798L115.106 517.617" stroke="#282828" stroke-miterlimit="10" stroke-linecap="round" stroke-linejoin="round"/>
<path d="M115.106 506.798L104.287 517.617" stroke="#282828" stroke-miterlimit="10" stroke-linecap="round" stroke-linejoin="round"/>
<path d="M430.396 35.0778L441.226 45.8964" stroke="#282828" stroke-miterlimit="10" stroke-linecap="round" stroke-linejoin="round"/>
<path d="M441.226 35.0778L430.396 45.8964" stroke="#282828" stroke-miterlimit="10" stroke-linecap="round" stroke-linejoin="round"/>
<path d="M78.489 128.74C78.489 124.978 75.4338 121.923 71.6718 121.923C67.9098 121.923 64.8546 124.978 64.8546 128.74C64.8546 132.502 67.9098 135.557 71.6718 135.557C75.4452 135.557 78.489 132.502 78.489 128.74Z" stroke="#282828" stroke-miterlimit="10" stroke-linecap="round" stroke-linejoin="round"/>
<path d="M298.167 38.4864C298.167 34.7244 295.112 31.6692 291.35 31.6692C287.588 31.6692 284.533 34.7244 284.533 38.4864C284.533 42.2484 287.588 45.3036 291.35 45.3036C295.123 45.2922 298.167 42.2484 298.167 38.4864Z" stroke="#282828" stroke-miterlimit="10" stroke-linecap="round" stroke-linejoin="round"/>
<path d="M510.196 422.507C513.961 422.507 517.013 419.455 517.013 415.69C517.013 411.925 513.961 408.872 510.196 408.872C506.431 408.872 503.378 411.925 503.378 415.69C503.378 419.455 506.431 422.507 510.196 422.507Z" stroke="#282828" stroke-miterlimit="10" stroke-linecap="round" stroke-linejoin="round"/>
<path d="M252.191 538.297C252.191 534.535 249.136 531.479 245.374 531.479C241.612 531.479 238.556 534.535 238.556 538.297C238.556 542.059 241.612 545.114 245.374 545.114C249.147 545.114 252.191 542.059 252.191 538.297Z" stroke="#282828" stroke-miterlimit="10" stroke-linecap="round" stroke-linejoin="round"/>
<path d="M147.459 361.198C147.459 357.436 144.404 354.38 140.642 354.38C136.88 354.38 133.825 357.436 133.825 361.198C133.825 364.96 136.88 368.015 140.642 368.015C144.415 368.003 147.459 364.96 147.459 361.198Z" stroke="#282828" stroke-miterlimit="10" stroke-linecap="round" stroke-linejoin="round"/>
<path d="M553.618 154.288C553.618 150.526 550.563 147.47 546.801 147.47C543.039 147.47 539.984 150.526 539.984 154.288C539.984 158.05 543.039 161.105 546.801 161.105C550.563 161.093 553.618 158.05 553.618 154.288Z" stroke="#282828" stroke-miterlimit="10" stroke-linecap="round" stroke-linejoin="round"/>
<path d="M561.416 268.082H8.50439" stroke="#282828" stroke-miterlimit="10" stroke-linecap="round" stroke-linejoin="round"/>
<path d="M53.8992 333.929L56.8974 361.186C56.8974 369.189 70.338 375.687 86.9022 375.687C103.478 375.687 116.907 369.2 116.907 361.186L119.905 333.929H53.8992Z" fill="#D9D9D9" stroke="#282828" stroke-miterlimit="10" stroke-linecap="round" stroke-linejoin="round"/>
<path d="M51.7446 317.821V334.624C51.7446 338.922 67.488 344.257 86.9136 344.257C106.339 344.257 122.083 338.911 122.083 334.624V317.821H51.7446Z" fill="#D9D9D9" stroke="#282828" stroke-miterlimit="10" stroke-linecap="round" stroke-linejoin="round"/>
<path d="M86.9136 327.784C106.337 327.784 122.083 323.323 122.083 317.821C122.083 312.318 106.337 307.857 86.9136 307.857C67.4903 307.857 51.7446 312.318 51.7446 317.821C51.7446 323.323 67.4903 327.784 86.9136 327.784Z" fill="#D9D9D9" stroke="#282828" stroke-miterlimit="10" stroke-linecap="round" stroke-linejoin="round"/>
<path d="M86.9136 325.584C102.049 325.584 114.319 322.108 114.319 317.821C114.319 313.533 102.049 310.057 86.9136 310.057C71.7779 310.057 59.508 313.533 59.508 317.821C59.508 322.108 71.7779 325.584 86.9136 325.584Z" fill="#282828"/>
<path d="M26.505 220.544C29.7654 221.434 37.221 220.18 37.2324 220.18C37.3122 220.168 34.9068 215.506 34.7244 215.232C32.5812 212.029 26.562 207.115 22.4124 208.289C19.4256 209.144 18.1716 212.439 19.2774 215.209C20.406 218.036 23.7234 219.781 26.505 220.544Z" fill="#282828"/>
<path d="M102.497 211.208C102.566 211.242 103.136 206.032 103.136 205.702C103.113 201.848 100.81 194.427 96.6948 193.127C93.7308 192.193 90.8694 194.245 90.2652 197.163C89.6496 200.138 91.4508 203.422 93.3432 205.588C95.5776 208.13 102.497 211.196 102.497 211.208Z" fill="#282828"/>
<path d="M120.92 180.815C116.611 180.975 112.415 187.519 111.367 191.224C111.275 191.543 110.443 196.718 110.523 196.707C110.523 196.707 110.591 196.696 110.614 196.696C109.942 197.722 109.235 198.839 108.482 200.059C107.114 202.339 105.598 204.926 104.139 207.856C102.668 210.775 101.152 214.001 99.864 217.523C98.5644 221.057 97.3788 224.854 96.6606 228.912C96.6492 228.958 96.6492 229.003 96.6378 229.049C96.4782 227.795 95.9196 224.306 95.8398 224.044C94.8024 220.339 90.6186 213.784 86.3094 213.613C83.2086 213.488 80.9856 216.235 81.1794 219.211C81.3732 222.243 83.9838 224.933 86.3778 226.529C89.0796 228.319 96.0222 229.425 96.5808 229.516C95.931 233.392 95.589 237.416 95.4522 241.52C95.3724 243.857 95.3724 246.229 95.3952 248.588C95.2242 247.505 95.0646 246.548 95.019 246.411C93.9816 242.706 89.7978 236.151 85.4886 235.98C82.3878 235.855 80.1648 238.602 80.3586 241.577C80.5524 244.621 83.163 247.3 85.557 248.896C87.9852 250.504 93.8904 251.575 95.4522 251.826C95.475 252.738 95.4864 253.639 95.5092 254.551C95.6232 258.905 95.7486 263.249 95.7372 267.524C95.7372 269.029 95.6802 270.511 95.6346 271.993C95.475 271.035 95.3382 270.226 95.304 270.112C94.2666 266.407 90.0828 259.852 85.7736 259.681C82.6728 259.555 80.4498 262.303 80.6436 265.278C80.8374 268.31 83.448 271.001 85.842 272.597C88.1676 274.136 93.6054 275.162 95.4636 275.481C95.361 276.997 95.2698 278.513 95.1102 279.984C94.9734 280.987 94.9164 281.956 94.7226 282.948C94.5516 283.94 94.392 284.92 94.221 285.889C93.8334 287.747 93.4458 289.663 93.024 291.464C92.739 292.718 92.4426 293.903 92.1576 295.112C92.1804 293.618 92.1462 290.689 92.1234 290.438C91.8156 287.896 90.3222 283.917 88.1106 281.284C88.065 280.907 87.9966 280.543 87.8826 280.178C86.9934 277.339 83.9382 275.572 81.0882 276.792C77.121 278.491 75.5592 286.106 75.9126 289.936C75.9354 290.164 76.437 292.592 76.779 294.12C76.437 293.254 76.1292 292.41 75.7644 291.521C75.069 289.765 74.3166 288.021 73.5186 286.151C73.0968 285.262 72.6864 284.362 72.2532 283.45C71.8542 282.538 71.307 281.626 70.8396 280.714C69.6996 278.605 68.4456 276.518 67.1346 274.444C68.6736 273.828 74.1114 271.571 76.1292 269.496C78.1356 267.433 80.1192 264.252 79.6632 261.242C79.2186 258.301 76.4712 256.09 73.4616 256.865C69.2892 257.936 66.5874 265.232 66.3594 269.074C66.348 269.314 66.4962 272.095 66.5988 273.611C65.8008 272.369 65.0142 271.126 64.1592 269.906C61.7082 266.361 59.1204 262.85 56.5554 259.339C55.7688 258.267 54.9936 257.184 54.2184 256.101C54.7656 255.884 61.2978 253.342 63.555 251.028C65.5614 248.965 67.545 245.784 67.089 242.774C66.6444 239.833 63.897 237.622 60.8874 238.397C56.715 239.468 54.0132 246.764 53.7852 250.606C53.7738 250.891 53.979 254.893 54.093 255.907C52.383 253.525 50.7072 251.142 49.1454 248.725C46.9908 245.385 45.0528 241.999 43.4226 238.568C43.6734 238.465 50.502 235.843 52.8162 233.472C54.8226 231.409 56.8062 228.228 56.3502 225.218C55.9056 222.277 53.1582 220.066 50.1486 220.841C45.9762 221.912 43.2744 229.208 43.0464 233.05C43.035 233.301 43.1946 236.345 43.3086 237.793C43.1832 237.827 43.206 237.815 43.0692 237.85C41.3706 234.156 40.185 230.371 39.2502 226.769C38.703 224.683 38.304 222.665 37.9506 220.681C39.273 220.328 45.2922 218.618 47.6064 216.714C49.8294 214.89 52.1436 211.937 52.0182 208.905C51.8928 205.93 49.4076 203.433 46.3296 203.866C42.066 204.482 38.5776 211.424 37.9278 215.221C37.8936 215.426 37.7682 217.569 37.6998 219.119C37.5516 218.23 37.392 217.307 37.2666 216.44C36.7992 213.214 36.5826 210.227 36.4002 207.583C36.309 206.078 36.2634 204.721 36.2292 203.444C37.3464 202.418 41.7696 198.212 42.9324 195.51C44.061 192.865 44.7678 189.183 43.2516 186.538C41.7696 183.95 38.4066 182.879 35.8872 184.691C32.376 187.199 32.49 194.974 33.6642 198.645C33.7668 198.964 35.9214 203.741 35.9784 203.684C35.9784 203.684 36.0354 203.638 36.0468 203.627C36.0582 204.858 36.081 206.169 36.1266 207.605C36.252 210.262 36.4116 213.26 36.7992 216.509C37.1868 219.758 37.6998 223.28 38.5662 226.94C39.4326 230.611 40.5384 234.418 42.18 238.203C42.2028 238.249 42.2256 238.283 42.237 238.328C41.4162 237.371 39.0222 234.772 38.817 234.589C35.91 232.07 28.7964 228.912 25.1142 231.146C22.458 232.754 22.116 236.265 23.9172 238.648C25.7526 241.076 29.412 241.874 32.2848 241.885C35.5338 241.885 41.9292 238.978 42.4422 238.75C44.0382 242.341 45.9762 245.887 48.1194 249.375C49.3506 251.37 50.6502 253.342 51.9726 255.303C51.2316 254.494 50.5704 253.787 50.4678 253.696C47.5608 251.176 40.4472 248.018 36.765 250.253C34.1088 251.86 33.7668 255.371 35.568 257.754C37.4034 260.182 41.0628 260.98 43.9356 260.992C46.854 260.992 52.3602 258.62 53.808 257.982C54.321 258.723 54.834 259.475 55.3584 260.228C57.855 263.796 60.363 267.353 62.7114 270.921C63.5436 272.175 64.3074 273.44 65.0826 274.706C64.4214 273.988 63.8628 273.395 63.7716 273.315C60.8646 270.796 53.751 267.638 50.0688 269.872C47.4126 271.48 47.0706 274.991 48.8718 277.373C50.7072 279.802 54.3666 280.6 57.2394 280.611C60.021 280.611 65.1282 278.468 66.8496 277.715C67.602 279.038 68.3658 280.349 69.0384 281.66C69.4716 282.56 69.9618 283.404 70.3494 284.339C70.7598 285.251 71.1588 286.163 71.5578 287.063C72.2646 288.819 72.9942 290.632 73.6326 292.364C74.0886 293.561 74.499 294.724 74.9208 295.887C74.1114 294.633 72.4698 292.193 72.3102 292.011C69.8136 289.081 63.27 284.886 59.2914 286.539C56.4186 287.736 55.5522 291.145 56.9772 293.767C58.425 296.446 61.9248 297.791 64.7634 298.235C67.887 298.714 74.4078 296.913 75.2172 296.685C75.9012 298.612 76.551 300.493 77.1324 302.271C79.1502 308.381 80.598 313.557 81.567 317.216L84.4626 316.795C84.4398 316.715 84.417 316.635 84.3942 316.555C83.334 312.873 81.738 307.629 79.5492 301.45C78.8652 299.489 78.09 297.415 77.2692 295.294C77.7366 295.021 80.4042 293.47 82.707 291.703C85.2378 293.755 91.2342 295.705 92.0094 295.955C91.5192 297.939 91.0176 299.866 90.5274 301.667C88.8402 307.88 87.1872 312.998 85.9788 316.578L89.148 316.122C90.231 312.588 91.599 307.88 92.9898 302.317C93.4914 300.299 93.993 298.144 94.4946 295.921C95.3268 295.978 102.087 296.354 105.04 295.214C107.73 294.188 110.854 292.125 111.709 289.207C112.541 286.345 110.968 283.187 107.912 282.629C103.672 281.854 98.1654 287.348 96.3414 290.734C96.2388 290.939 95.3154 293.231 94.7568 294.701C94.9506 293.789 95.1558 292.912 95.3496 291.977C95.7372 290.119 96.0792 288.26 96.444 286.265C96.5922 285.296 96.729 284.316 96.8772 283.324C97.0482 282.344 97.0938 281.284 97.2078 280.258C97.4244 277.864 97.527 275.435 97.5726 272.984C99.1914 273.326 104.983 274.444 107.798 273.828C110.603 273.212 114.023 271.662 115.3 268.892C116.554 266.19 115.482 262.827 112.541 261.812C108.46 260.41 102.19 264.993 99.8754 268.082C99.7272 268.276 98.325 270.67 97.5726 272.004C97.5954 270.533 97.6182 269.063 97.584 267.569C97.4928 263.26 97.2762 258.905 97.071 254.562C97.0026 253.228 96.957 251.906 96.9114 250.572C97.4928 250.697 104.333 252.179 107.491 251.484C110.306 250.868 113.715 249.318 114.992 246.548C116.246 243.846 115.174 240.483 112.233 239.468C108.152 238.066 101.882 242.649 99.5676 245.738C99.3966 245.966 97.3674 249.421 96.9 250.321C96.786 247.391 96.7062 244.473 96.729 241.6C96.7632 237.622 97.0254 233.734 97.5498 229.972C97.8234 230.029 104.96 231.602 108.197 230.896C111.013 230.28 114.422 228.73 115.699 225.959C116.953 223.258 115.881 219.895 112.94 218.88C108.859 217.478 102.589 222.061 100.274 225.15C100.126 225.355 98.5758 227.977 97.869 229.243C97.7436 229.197 97.7664 229.208 97.641 229.163C98.2566 225.15 99.3624 221.331 100.559 217.808C101.255 215.768 102.03 213.853 102.828 212.017C104.128 212.45 110.09 214.343 113.077 214.035C115.938 213.739 119.495 212.564 121.068 209.954C122.607 207.4 121.912 203.946 119.107 202.624C115.208 200.777 108.471 204.653 105.838 207.457C105.689 207.605 104.413 209.327 103.489 210.581C103.865 209.76 104.23 208.894 104.606 208.107C105.997 205.154 107.456 202.544 108.767 200.241C109.52 198.941 110.238 197.779 110.911 196.696C112.404 196.456 118.412 195.396 120.874 193.766C123.28 192.181 125.89 189.502 126.084 186.458C126.232 183.449 124.021 180.701 120.92 180.815Z" fill="#282828"/>
<path d="M395.534 497.393L394.999 493.825C395.17 493.802 412.623 491.078 420.968 483.052C422.758 481.331 422.712 480.088 422.53 479.302C420.603 471.287 391.1 458.782 332.344 441.055C322.666 438.136 313.295 435.355 304.312 432.687C245.647 415.268 206.887 403.765 204.208 390.712C203.536 387.452 205.006 384.283 208.586 381.319C228.923 364.435 309.863 358.313 313.295 358.051L313.557 361.642C312.725 361.699 230.337 367.924 210.889 384.089C207.161 387.178 207.594 389.287 207.742 389.983C209.988 400.927 252.065 413.41 305.338 429.221C314.321 431.889 323.703 434.671 333.382 437.589C411.859 461.267 424.297 471.219 426.041 478.447C426.656 481 425.79 483.417 423.476 485.64C414.287 494.486 396.298 497.279 395.534 497.393Z" fill="#D9D9D9" stroke="#282828" stroke-miterlimit="10" stroke-linecap="round" stroke-linejoin="round"/>
<path d="M211.128 379.472L216.326 380.6C242.364 367.046 312.77 361.722 313.534 361.665L313.272 358.074C309.977 358.313 234.908 363.991 211.128 379.472Z" fill="#282828" stroke="#282828" stroke-miterlimit="10" stroke-linecap="round" stroke-linejoin="round"/>
<path d="M405.213 501.247C406.581 496.812 404.882 491.956 401.006 489.402C395.762 485.959 386.221 481.764 370.033 480.601C341.384 478.549 321.936 489.128 312.736 497.998C303.525 506.867 305.577 517.435 318.881 523.921C332.185 530.396 341.738 532.106 352.99 530.396C364.241 528.686 382.664 519.829 389.139 515.394C395.614 510.959 403.469 506.867 405.167 501.406C405.179 501.361 405.202 501.304 405.213 501.247Z" fill="#00CE00" stroke="#282828" stroke-miterlimit="10" stroke-linecap="round" stroke-linejoin="round"/>
<path d="M361.163 522.223C345.135 533.132 329.779 528.025 329.779 528.025L329.426 528.322C337.736 531.092 344.918 531.628 352.978 530.408C364.23 528.698 382.652 519.84 389.128 515.405C395.603 510.971 403.457 506.878 405.156 501.418C405.167 501.361 405.19 501.304 405.202 501.258C405.338 500.813 405.441 500.369 405.509 499.924C395.432 502.364 375.356 512.555 361.163 522.223Z" fill="#D9D9D9" stroke="#282828" stroke-miterlimit="10" stroke-linecap="round" stroke-linejoin="round"/>
<path d="M337.634 503.458C337.634 505.909 334.658 507.893 330.988 507.893C327.317 507.893 324.341 505.909 324.341 503.458C324.341 501.007 327.317 499.024 330.988 499.024C334.647 499.024 337.634 501.007 337.634 503.458Z" fill="#D9D9D9" stroke="#282828" stroke-miterlimit="10" stroke-linecap="round" stroke-linejoin="round"/>
<path d="M203.604 435.64L202.874 432.106C213.659 429.871 220.795 426.645 221.798 425.038C220.693 423.863 216.076 421.424 212.302 419.429C198.542 412.167 175.526 400.003 182.845 384.328C187.131 375.14 210.433 367.114 254.106 359.784C285.787 354.46 316.692 351.61 317 351.576L317.33 355.167C317.023 355.19 286.231 358.04 254.687 363.341C199.876 372.552 188.203 381.398 186.116 385.856C180.245 398.43 200.56 409.146 214.001 416.248C222.163 420.557 225.891 422.53 225.492 425.254C224.717 430.703 209.931 434.34 203.604 435.64Z" fill="#D9D9D9" stroke="#282828" stroke-miterlimit="10" stroke-linecap="round" stroke-linejoin="round"/>
<path d="M317 351.587C316.692 351.61 285.787 354.472 254.106 359.795C224.842 364.709 204.744 369.941 193.367 375.619L199.34 376.918C209.213 372.883 226.062 368.174 254.687 363.364C286.231 358.063 317.023 355.224 317.33 355.19L317 351.587Z" fill="#282828" stroke="#282828" stroke-miterlimit="10" stroke-linecap="round" stroke-linejoin="round"/>
<path d="M315.529 461.347L250.333 498.465L12.8136 416.089L85.0326 390.051L315.529 461.347Z" fill="#D9D9D9" stroke="#282828" stroke-miterlimit="10" stroke-linecap="round" stroke-linejoin="round"/>
<path d="M210.786 442.491L218.538 444.874L226.643 440.644L218.983 438.353L210.786 442.491Z" fill="#282828" stroke="#282828" stroke-miterlimit="10" stroke-linecap="round" stroke-linejoin="round"/>
<path d="M198.759 432.607L192.044 436.734L207.48 441.476L215.642 437.35L199.147 432.413L198.759 432.607Z" fill="#282828" stroke="#282828" stroke-miterlimit="10" stroke-linecap="round" stroke-linejoin="round"/>
<path d="M221.81 445.877L230.052 448.408L238.26 444.121L229.938 441.625L221.81 445.877Z" fill="#282828" stroke="#282828" stroke-miterlimit="10" stroke-linecap="round" stroke-linejoin="round"/>
<path d="M169.13 429.7L176.586 431.992L184.235 427.945L177.395 425.893L169.13 429.7Z" fill="#282828" stroke="#282828" stroke-miterlimit="10" stroke-linecap="round" stroke-linejoin="round"/>
<path d="M179.835 432.983L188.989 435.799L196.023 431.479L187.507 428.925L179.835 432.983Z" fill="#282828" stroke="#282828" stroke-miterlimit="10" stroke-linecap="round" stroke-linejoin="round"/>
<path d="M216.953 455.248L208.802 452.66L200.708 456.889L208.757 459.523L216.953 455.248Z" fill="#282828" stroke="#282828" stroke-miterlimit="10" stroke-linecap="round" stroke-linejoin="round"/>
<path d="M233.324 449.411L243.732 452.614L252.077 448.259L241.566 445.113L233.324 449.411Z" fill="#282828" stroke="#282828" stroke-miterlimit="10" stroke-linecap="round" stroke-linejoin="round"/>
<path d="M149.18 423.578L156.305 425.767L164.217 421.948L156.91 419.759L149.18 423.578Z" fill="#282828" stroke="#282828" stroke-miterlimit="10" stroke-linecap="round" stroke-linejoin="round"/>
<path d="M242.25 463.25L233.723 460.549L225.298 464.949L234.19 467.867L242.25 463.25Z" fill="#282828" stroke="#282828" stroke-miterlimit="10" stroke-linecap="round" stroke-linejoin="round"/>
<path d="M251.986 457.664L243.971 455.202L236.732 458.975L245.077 461.62L251.986 457.664Z" fill="#282828" stroke="#282828" stroke-miterlimit="10" stroke-linecap="round" stroke-linejoin="round"/>
<path d="M247.004 453.617L254.847 456.023L262.793 451.463L255.383 449.251L247.004 453.617Z" fill="#282828" stroke="#282828" stroke-miterlimit="10" stroke-linecap="round" stroke-linejoin="round"/>
<path d="M230.485 459.523L220.191 456.262L211.937 460.571L222.106 463.9L230.485 459.523Z" fill="#282828" stroke="#282828" stroke-miterlimit="10" stroke-linecap="round" stroke-linejoin="round"/>
<path d="M275.356 455.225L265.962 452.42L257.993 456.992L267.239 459.83L275.356 455.225Z" fill="#282828" stroke="#282828" stroke-miterlimit="10" stroke-linecap="round" stroke-linejoin="round"/>
<path d="M264.355 461.461L255.132 458.622L248.189 462.612L257.264 465.473L264.355 461.461Z" fill="#282828" stroke="#282828" stroke-miterlimit="10" stroke-linecap="round" stroke-linejoin="round"/>
<path d="M167.512 423.02L159.691 426.805L165.676 428.64L173.907 424.855L167.637 422.974L167.512 423.02Z" fill="#282828" stroke="#282828" stroke-miterlimit="10" stroke-linecap="round" stroke-linejoin="round"/>
<path d="M55.9398 417.092L62.6544 414.151L58.5276 412.805L51.471 415.587L55.9398 417.092Z" fill="#282828" stroke="#282828" stroke-miterlimit="10" stroke-linecap="round" stroke-linejoin="round"/>
<path d="M57.855 410.058L65.9604 412.703L72.9144 409.659L64.695 407.06L57.855 410.058Z" fill="#282828" stroke="#282828" stroke-miterlimit="10" stroke-linecap="round" stroke-linejoin="round"/>
<path d="M68.0238 405.589L76.2546 408.2L82.2966 405.555L73.9632 402.99L68.0238 405.589Z" fill="#282828" stroke="#282828" stroke-miterlimit="10" stroke-linecap="round" stroke-linejoin="round"/>
<path d="M91.1658 423.499L86.3322 421.914L78.8424 424.832L84.2688 426.656L91.1658 423.499Z" fill="#282828" stroke="#282828" stroke-miterlimit="10" stroke-linecap="round" stroke-linejoin="round"/>
<path d="M72.7434 417.457L66.0858 415.279L59.3256 418.243L65.9376 420.478L72.7434 417.457Z" fill="#282828" stroke="#282828" stroke-miterlimit="10" stroke-linecap="round" stroke-linejoin="round"/>
<path d="M79.7316 409.294L83.2656 410.411L89.0454 407.618L85.8192 406.627L79.7316 409.294Z" fill="#282828" stroke="#282828" stroke-miterlimit="10" stroke-linecap="round" stroke-linejoin="round"/>
<path d="M82.7298 420.74L76.152 418.585L69.312 421.606L75.2856 423.624L82.7298 420.74Z" fill="#282828" stroke="#282828" stroke-miterlimit="10" stroke-linecap="round" stroke-linejoin="round"/>
<path d="M139.114 420.489L145.84 422.552L153.535 418.745L146.957 416.784L139.114 420.489Z" fill="#282828" stroke="#282828" stroke-miterlimit="10" stroke-linecap="round" stroke-linejoin="round"/>
<path d="M120.133 414.652L125.674 416.351L132.901 412.566L127.418 410.924L120.133 414.652Z" fill="#282828" stroke="#282828" stroke-miterlimit="10" stroke-linecap="round" stroke-linejoin="round"/>
<path d="M91.8726 413.136L97.8918 410.343L92.4198 408.656L86.6058 411.472L91.8726 413.136Z" fill="#282828" stroke="#282828" stroke-miterlimit="10" stroke-linecap="round" stroke-linejoin="round"/>
<path d="M128.934 417.354L135.706 419.44L143.515 415.747L136.184 413.558L128.934 417.354Z" fill="#282828" stroke="#282828" stroke-miterlimit="10" stroke-linecap="round" stroke-linejoin="round"/>
<path d="M117.853 408.131L110.135 411.586L116.839 413.649L124.089 409.933L117.956 408.097L117.853 408.131Z" fill="#282828" stroke="#282828" stroke-miterlimit="10" stroke-linecap="round" stroke-linejoin="round"/>
<path d="M100.046 408.485L106.647 410.514L114.422 407.037L107.456 404.951L100.046 408.485Z" fill="#282828" stroke="#282828" stroke-miterlimit="10" stroke-linecap="round" stroke-linejoin="round"/>
<path d="M89.1936 405.156L96.6492 407.447L104.025 403.925L96.8772 401.782L89.1936 405.156Z" fill="#282828" stroke="#282828" stroke-miterlimit="10" stroke-linecap="round" stroke-linejoin="round"/>
<path d="M186.436 443.061L197.448 446.549L204.379 443.038L192.74 439.47L186.436 443.061Z" fill="#282828" stroke="#282828" stroke-miterlimit="10" stroke-linecap="round" stroke-linejoin="round"/>
<path d="M200.72 447.587L208.574 450.072L215.506 446.458L207.697 444.053L200.72 447.587Z" fill="#282828" stroke="#282828" stroke-miterlimit="10" stroke-linecap="round" stroke-linejoin="round"/>
<path d="M240.7 454.199L230.291 450.995L223.201 454.7L233.495 457.961L240.7 454.199Z" fill="#282828" stroke="#282828" stroke-miterlimit="10" stroke-linecap="round" stroke-linejoin="round"/>
<path d="M211.812 451.098L219.963 453.674L227.02 449.992L218.766 447.461L211.812 451.098Z" fill="#282828" stroke="#282828" stroke-miterlimit="10" stroke-linecap="round" stroke-linejoin="round"/>
<path d="M101.255 426.805L94.5288 424.604L87.5976 427.785L94.3236 430.054L101.255 426.805Z" fill="#282828" stroke="#282828" stroke-miterlimit="10" stroke-linecap="round" stroke-linejoin="round"/>
<path d="M153.592 432.664L161.641 435.218L167.466 431.707L159.634 429.301L153.592 432.664Z" fill="#282828" stroke="#282828" stroke-miterlimit="10" stroke-linecap="round" stroke-linejoin="round"/>
<path d="M164.696 436.187L172.528 438.661L178.535 435.104L170.555 432.653L164.696 436.187Z" fill="#282828" stroke="#282828" stroke-miterlimit="10" stroke-linecap="round" stroke-linejoin="round"/>
<path d="M175.606 439.63L183.323 442.081L189.593 438.501L181.636 436.05L175.606 439.63Z" fill="#282828" stroke="#282828" stroke-miterlimit="10" stroke-linecap="round" stroke-linejoin="round"/>
<path d="M97.1166 417.32L92.0322 415.712L85.0326 418.961L90.4248 420.728L97.1166 417.32Z" fill="#282828" stroke="#282828" stroke-miterlimit="10" stroke-linecap="round" stroke-linejoin="round"/>
<path d="M85.671 404.073L93.3204 400.721L81.6126 397.21L81.6354 397.279L73.0626 400.197L85.671 404.073Z" fill="#282828" stroke="#282828" stroke-miterlimit="10" stroke-linecap="round" stroke-linejoin="round"/>
<path d="M69.141 399L77.7594 396.059L75.297 395.318L66.9636 398.327L69.141 399Z" fill="#282828" stroke="#282828" stroke-miterlimit="10" stroke-linecap="round" stroke-linejoin="round"/>
<path d="M295.682 458.804L307.458 462.338L310.513 460.594L298.908 457.049L295.682 458.804Z" fill="#282828" stroke="#282828" stroke-miterlimit="10" stroke-linecap="round" stroke-linejoin="round"/>
<path d="M88.6464 414.641L83.448 412.988L76.7334 416.237L81.6924 417.867L88.6464 414.641Z" fill="#282828" stroke="#282828" stroke-miterlimit="10" stroke-linecap="round" stroke-linejoin="round"/>
<path d="M143.64 429.518L150.434 431.672L156.454 428.321L149.625 426.223L143.64 429.518Z" fill="#282828" stroke="#282828" stroke-miterlimit="10" stroke-linecap="round" stroke-linejoin="round"/>
<path d="M69.3804 413.831L73.4388 415.165L80.1192 411.939L76.3914 410.765L69.3804 413.831Z" fill="#282828" stroke="#282828" stroke-miterlimit="10" stroke-linecap="round" stroke-linejoin="round"/>
<path d="M133.004 426.155L140.482 428.515L146.433 425.243L138.795 422.894L133.004 426.155Z" fill="#282828" stroke="#282828" stroke-miterlimit="10" stroke-linecap="round" stroke-linejoin="round"/>
<path d="M126.996 426.77L120.293 424.65L113.282 428.23L120.316 430.532L126.996 426.77Z" fill="#282828" stroke="#282828" stroke-miterlimit="10" stroke-linecap="round" stroke-linejoin="round"/>
<path d="M137.575 430.122L130.131 427.762L123.416 431.547L130.667 433.918L137.575 430.122Z" fill="#282828" stroke="#282828" stroke-miterlimit="10" stroke-linecap="round" stroke-linejoin="round"/>
<path d="M158.905 436.871L150.708 434.272L143.686 438.193L152.122 440.952L158.905 436.871Z" fill="#282828" stroke="#282828" stroke-miterlimit="10" stroke-linecap="round" stroke-linejoin="round"/>
<path d="M205.565 451.634L197.665 449.137L189.559 453.23L197.516 455.84L205.565 451.634Z" fill="#282828" stroke="#282828" stroke-miterlimit="10" stroke-linecap="round" stroke-linejoin="round"/>
<path d="M169.757 440.302L161.948 437.84L155.131 441.944L162.769 444.452L169.757 440.302Z" fill="#282828" stroke="#282828" stroke-miterlimit="10" stroke-linecap="round" stroke-linejoin="round"/>
<path d="M194.381 448.1L172.835 441.283L165.813 445.444L186.333 452.17L194.381 448.1Z" fill="#282828" stroke="#282828" stroke-miterlimit="10" stroke-linecap="round" stroke-linejoin="round"/>
<path d="M147.55 433.28L140.733 431.125L133.79 434.944L140.573 437.167L147.55 433.28Z" fill="#282828" stroke="#282828" stroke-miterlimit="10" stroke-linecap="round" stroke-linejoin="round"/>
<path d="M114.148 420.193L120.076 422.062L126.095 418.996L120.167 417.183L114.148 420.193Z" fill="#282828" stroke="#282828" stroke-miterlimit="10" stroke-linecap="round" stroke-linejoin="round"/>
<path d="M103.432 416.795L110.865 419.144L116.839 416.157L109.246 413.82L103.432 416.795Z" fill="#282828" stroke="#282828" stroke-miterlimit="10" stroke-linecap="round" stroke-linejoin="round"/>
<path d="M117.032 423.624L111.047 421.72L103.922 425.152L110.067 427.169L117.032 423.624Z" fill="#282828" stroke="#282828" stroke-miterlimit="10" stroke-linecap="round" stroke-linejoin="round"/>
<path d="M123.348 423.1L129.869 425.163L135.614 421.925L129.39 420.01L123.348 423.1Z" fill="#282828" stroke="#282828" stroke-miterlimit="10" stroke-linecap="round" stroke-linejoin="round"/>
<path d="M95.2584 414.208L100.16 415.758L105.94 412.817L101.323 411.392L95.2584 414.208Z" fill="#282828" stroke="#282828" stroke-miterlimit="10" stroke-linecap="round" stroke-linejoin="round"/>
<path d="M107.707 420.671L100.377 418.346L93.6396 421.789L100.628 424.08L107.707 420.671Z" fill="#282828" stroke="#282828" stroke-miterlimit="10" stroke-linecap="round" stroke-linejoin="round"/>
<path d="M54.435 408.929L61.218 405.954L53.0328 403.366L45.6228 406.045L54.435 408.929Z" fill="#282828" stroke="#282828" stroke-miterlimit="10" stroke-linecap="round" stroke-linejoin="round"/>
<path d="M121.501 441.773L84.4056 429.244L84.3714 429.256L84.36 429.233L66.063 423.043L53.8992 428.423L109.964 447.815L121.501 441.773Z" fill="#282828" stroke="#282828" stroke-miterlimit="10" stroke-linecap="round" stroke-linejoin="round"/>
<path d="M31.521 420.694L43.1376 415.313L37.7796 413.501L25.1826 418.494L31.521 420.694Z" fill="#282828" stroke="#282828" stroke-miterlimit="10" stroke-linecap="round" stroke-linejoin="round"/>
<path d="M52.668 418.528L46.4436 416.419L34.7928 421.823L40.584 423.818L52.668 418.528Z" fill="#282828" stroke="#282828" stroke-miterlimit="10" stroke-linecap="round" stroke-linejoin="round"/>
<path d="M62.6886 421.914L56.0538 419.668L43.9356 424.981L50.5704 427.272L62.6886 421.914Z" fill="#282828" stroke="#282828" stroke-miterlimit="10" stroke-linecap="round" stroke-linejoin="round"/>
<path d="M152.977 452.398L146.08 450.072L134.064 456.148L141.588 458.747L152.977 452.398Z" fill="#282828" stroke="#282828" stroke-miterlimit="10" stroke-linecap="round" stroke-linejoin="round"/>
<path d="M131.453 445.124L124.648 442.833L113.077 448.886L119.483 451.109L131.453 445.124Z" fill="#282828" stroke="#282828" stroke-miterlimit="10" stroke-linecap="round" stroke-linejoin="round"/>
<path d="M142.888 448.989L134.657 446.207L122.664 452.204L130.895 455.054L142.888 448.989Z" fill="#282828" stroke="#282828" stroke-miterlimit="10" stroke-linecap="round" stroke-linejoin="round"/>
<path d="M109.463 403.047L114.205 400.562L105.655 397.94L100.286 400.3L109.463 403.047Z" fill="#282828" stroke="#282828" stroke-miterlimit="10" stroke-linecap="round" stroke-linejoin="round"/>
<path d="M112.757 404.027L117.83 405.544L123.268 403.332L117.477 401.554L112.757 404.027Z" fill="#282828" stroke="#282828" stroke-miterlimit="10" stroke-linecap="round" stroke-linejoin="round"/>
<path d="M172.71 459.067L156.055 453.435L144.632 459.808L160.444 465.268L172.71 459.067Z" fill="#282828" stroke="#282828" stroke-miterlimit="10" stroke-linecap="round" stroke-linejoin="round"/>
<path d="M121.501 406.649L127.258 408.371L132.4 406.125L126.893 404.438L121.501 406.649Z" fill="#282828" stroke="#282828" stroke-miterlimit="10" stroke-linecap="round" stroke-linejoin="round"/>
<path d="M37.7112 410.936L37.7682 410.913L37.791 410.97L47.9484 414.401L54.9594 411.631L41.952 407.368L34.7928 409.955L37.7112 410.936Z" fill="#282828" stroke="#282828" stroke-miterlimit="10" stroke-linecap="round" stroke-linejoin="round"/>
<path d="M90.0828 397.233L96.729 399.228L102.133 396.857L95.7144 394.896L90.0828 397.233Z" fill="#282828" stroke="#282828" stroke-miterlimit="10" stroke-linecap="round" stroke-linejoin="round"/>
<path d="M70.4406 401.907L63.2016 399.684L56.7492 402.021L64.5468 404.495L70.4406 401.907Z" fill="#282828" stroke="#282828" stroke-miterlimit="10" stroke-linecap="round" stroke-linejoin="round"/>
<path d="M256.318 477.649L246.4 474.388L238.636 478.789L248.292 482.049L256.318 477.649Z" fill="#282828" stroke="#282828" stroke-miterlimit="10" stroke-linecap="round" stroke-linejoin="round"/>
<path d="M292.729 460.435L284.282 465.063L296.206 468.722L304.562 463.98L292.729 460.435Z" fill="#282828" stroke="#282828" stroke-miterlimit="10" stroke-linecap="round" stroke-linejoin="round"/>
<path d="M86.4348 396.15L92.1006 393.802L85.2834 391.715L79.0932 393.95L86.4348 396.15Z" fill="#282828" stroke="#282828" stroke-miterlimit="10" stroke-linecap="round" stroke-linejoin="round"/>
<path d="M281.341 466.67L273.908 470.752L285.958 474.559L293.345 470.353L281.341 466.67Z" fill="#282828" stroke="#282828" stroke-miterlimit="10" stroke-linecap="round" stroke-linejoin="round"/>
<path d="M248.531 484.66L236.14 491.454L248.634 495.763L260.855 488.821L248.531 484.66Z" fill="#282828" stroke="#282828" stroke-miterlimit="10" stroke-linecap="round" stroke-linejoin="round"/>
<path d="M271.001 472.348L262.337 477.09L274.489 481.08L283.108 476.178L271.001 472.348Z" fill="#282828" stroke="#282828" stroke-miterlimit="10" stroke-linecap="round" stroke-linejoin="round"/>
<path d="M34.8156 412.292L31.1562 411.266L18.0006 416.02L21.7056 417.297L34.8156 412.292Z" fill="#282828" stroke="#282828" stroke-miterlimit="10" stroke-linecap="round" stroke-linejoin="round"/>
<path d="M245.431 483.611L235.832 480.373L223.805 487.179L233.073 490.394L245.431 483.611Z" fill="#282828" stroke="#282828" stroke-miterlimit="10" stroke-linecap="round" stroke-linejoin="round"/>
<path d="M208.335 471.094L198.292 467.696L186.002 474.103L195.955 477.546L208.335 471.094Z" fill="#282828" stroke="#282828" stroke-miterlimit="10" stroke-linecap="round" stroke-linejoin="round"/>
<path d="M232.777 479.347L224.113 476.417L223.885 476.543L223.748 476.292L211.481 472.154L199.078 478.629L220.784 486.142L232.777 479.347Z" fill="#282828" stroke="#282828" stroke-miterlimit="10" stroke-linecap="round" stroke-linejoin="round"/>
<path d="M195.134 466.636L187.177 463.946L175.001 470.307L182.879 473.032L195.134 466.636Z" fill="#282828" stroke="#282828" stroke-miterlimit="10" stroke-linecap="round" stroke-linejoin="round"/>
<path d="M271.662 482.676L259.453 478.675L251.393 483.086L263.648 487.236L271.662 482.676Z" fill="#282828" stroke="#282828" stroke-miterlimit="10" stroke-linecap="round" stroke-linejoin="round"/>
<path d="M130.815 409.431L135.991 410.993L141.029 408.758L135.922 407.197L130.815 409.431Z" fill="#282828" stroke="#282828" stroke-miterlimit="10" stroke-linecap="round" stroke-linejoin="round"/>
<path d="M184.03 462.886L175.913 460.138L163.601 466.363L171.866 469.224L184.03 462.886Z" fill="#282828" stroke="#282828" stroke-miterlimit="10" stroke-linecap="round" stroke-linejoin="round"/>
<path d="M190.996 427.454L198.907 429.826L202.977 427.705L195.772 425.505L190.996 427.454Z" fill="#282828" stroke="#282828" stroke-miterlimit="10" stroke-linecap="round" stroke-linejoin="round"/>
<path d="M231.386 469.475L222.323 466.499L214.434 470.615L223.85 473.795L231.386 469.475Z" fill="#282828" stroke="#282828" stroke-miterlimit="10" stroke-linecap="round" stroke-linejoin="round"/>
<path d="M205.781 461.073L197.733 458.44L190.129 462.407L198.086 465.097L205.781 461.073Z" fill="#282828" stroke="#282828" stroke-miterlimit="10" stroke-linecap="round" stroke-linejoin="round"/>
<path d="M289.492 459.466L278.548 456.182L270.397 460.799L281.078 464.083L289.492 459.466Z" fill="#282828" stroke="#282828" stroke-miterlimit="10" stroke-linecap="round" stroke-linejoin="round"/>
<path d="M243.31 473.385L234.464 470.478L226.894 474.821L235.581 477.751L243.31 473.385Z" fill="#282828" stroke="#282828" stroke-miterlimit="10" stroke-linecap="round" stroke-linejoin="round"/>
<path d="M278.137 465.69L267.524 462.43L260.387 466.465L270.739 469.748L278.137 465.69Z" fill="#282828" stroke="#282828" stroke-miterlimit="10" stroke-linecap="round" stroke-linejoin="round"/>
<path d="M254.402 467.092L245.362 464.231L237.268 468.871L246.137 471.778L254.402 467.092Z" fill="#282828" stroke="#282828" stroke-miterlimit="10" stroke-linecap="round" stroke-linejoin="round"/>
<path d="M267.832 471.344L257.537 468.084L249.227 472.792L259.202 476.064L267.832 471.344Z" fill="#282828" stroke="#282828" stroke-miterlimit="10" stroke-linecap="round" stroke-linejoin="round"/>
<path d="M219.131 465.451L208.962 462.122L201.233 466.157L211.288 469.543L219.131 465.451Z" fill="#282828" stroke="#282828" stroke-miterlimit="10" stroke-linecap="round" stroke-linejoin="round"/>
<path d="M131.271 436.654L123.998 434.272L116.907 437.68L124.442 440.222L131.271 436.654Z" fill="#282828" stroke="#282828" stroke-miterlimit="10" stroke-linecap="round" stroke-linejoin="round"/>
<path d="M141.622 440.04L134.452 437.692L127.589 441.294L134.474 443.62L141.622 440.04Z" fill="#282828" stroke="#282828" stroke-miterlimit="10" stroke-linecap="round" stroke-linejoin="round"/>
<path d="M120.703 433.189L114.57 431.171L107.912 434.648L113.647 436.586L120.703 433.189Z" fill="#282828" stroke="#282828" stroke-miterlimit="10" stroke-linecap="round" stroke-linejoin="round"/>
<path d="M183.301 453.709L156.351 444.874L149.089 448.544L175.72 457.539L183.301 453.709Z" fill="#282828" stroke="#282828" stroke-miterlimit="10" stroke-linecap="round" stroke-linejoin="round"/>
<path d="M194.541 457.391L186.527 454.769L178.912 458.622L186.971 461.347L194.541 457.391Z" fill="#282828" stroke="#282828" stroke-miterlimit="10" stroke-linecap="round" stroke-linejoin="round"/>
<path d="M153.125 443.813L144.86 441.112L137.689 444.703L145.897 447.473L153.125 443.813Z" fill="#282828" stroke="#282828" stroke-miterlimit="10" stroke-linecap="round" stroke-linejoin="round"/>
<path d="M160.307 418.266L167.512 420.432L172.493 418.38L165.186 416.146L160.307 418.266Z" fill="#282828" stroke="#282828" stroke-miterlimit="10" stroke-linecap="round" stroke-linejoin="round"/>
<path d="M171.171 421.526L177.236 423.339L182.024 421.298L176.119 419.486L171.171 421.526Z" fill="#282828" stroke="#282828" stroke-miterlimit="10" stroke-linecap="round" stroke-linejoin="round"/>
<path d="M180.838 424.422L187.348 426.36L192.147 424.399L185.592 422.393L180.838 424.422Z" fill="#282828" stroke="#282828" stroke-miterlimit="10" stroke-linecap="round" stroke-linejoin="round"/>
<path d="M202.213 430.817L208.802 432.79L208.791 432.778L213.032 430.783L206.26 428.708L202.213 430.817Z" fill="#282828" stroke="#282828" stroke-miterlimit="10" stroke-linecap="round" stroke-linejoin="round"/>
<path d="M111.378 430.133L104.595 427.899L97.6182 431.171L104.755 433.576L111.378 430.133Z" fill="#282828" stroke="#282828" stroke-miterlimit="10" stroke-linecap="round" stroke-linejoin="round"/>
<path d="M150.149 415.222L156.739 417.194L161.652 415.063L154.778 412.965L150.149 415.222Z" fill="#282828" stroke="#282828" stroke-miterlimit="10" stroke-linecap="round" stroke-linejoin="round"/>
<path d="M139.536 412.053L146.764 414.208L151.415 411.939L144.541 409.83L139.536 412.053Z" fill="#282828" stroke="#282828" stroke-miterlimit="10" stroke-linecap="round" stroke-linejoin="round"/>
<path d="M258.438 447.655L265.666 449.821L269.017 447.906L262.04 445.774L258.438 447.655Z" fill="#282828" stroke="#282828" stroke-miterlimit="10" stroke-linecap="round" stroke-linejoin="round"/>
<path d="M244.621 443.517L255.132 446.663L258.769 444.771L248.338 441.579L244.621 443.517Z" fill="#282828" stroke="#282828" stroke-miterlimit="10" stroke-linecap="round" stroke-linejoin="round"/>
<path d="M295.693 456.068L284.704 452.705L281.443 454.541L292.456 457.847L295.693 456.068Z" fill="#282828" stroke="#282828" stroke-miterlimit="10" stroke-linecap="round" stroke-linejoin="round"/>
<path d="M268.835 450.767L278.251 453.595L281.534 451.736L272.164 448.864L268.835 450.767Z" fill="#282828" stroke="#282828" stroke-miterlimit="10" stroke-linecap="round" stroke-linejoin="round"/>
<path d="M212.234 433.816L218.766 435.776L222.927 433.804L216.452 431.821L212.234 433.816Z" fill="#282828" stroke="#282828" stroke-miterlimit="10" stroke-linecap="round" stroke-linejoin="round"/>
<path d="M222.209 436.802L229.699 439.048L233.529 437.053L226.347 434.853L222.209 436.802Z" fill="#282828" stroke="#282828" stroke-miterlimit="10" stroke-linecap="round" stroke-linejoin="round"/>
<path d="M232.993 440.04L241.315 442.525L245.066 440.576L236.801 438.045L232.993 440.04Z" fill="#282828" stroke="#282828" stroke-miterlimit="10" stroke-linecap="round" stroke-linejoin="round"/>
<path d="M250.333 498.465L249.785 505.841L314.845 469.589L315.529 461.347L250.333 498.465Z" fill="#D9D9D9" stroke="#282828" stroke-miterlimit="10" stroke-linecap="round" stroke-linejoin="round"/>
<path d="M306.067 474.388V483.326L314.401 478.823L314.845 469.589L306.067 474.388Z" fill="#D9D9D9" stroke="#282828" stroke-miterlimit="10" stroke-linecap="round" stroke-linejoin="round"/>
<path d="M306.067 483.326L294.587 481.08L306.295 474.388L306.067 483.326Z" fill="#282828" stroke="#282828" stroke-miterlimit="10" stroke-linecap="round" stroke-linejoin="round"/>
<path d="M249.785 505.841L12.768 422.53L12.8136 416.089L250.333 498.465L249.785 505.841Z" fill="#D9D9D9" stroke="#282828" stroke-miterlimit="10" stroke-linecap="round" stroke-linejoin="round"/>
<path d="M303.479 368.961L234.555 393.813L360.365 425.847L430.578 396.116L303.479 368.961Z" fill="#282828" stroke="#282828" stroke-miterlimit="10" stroke-linecap="round" stroke-linejoin="round"/>
<path d="M234.555 393.813V397.712L360.16 430.977L360.365 425.847L234.555 393.813Z" fill="#D9D9D9" stroke="#282828" stroke-miterlimit="10" stroke-linecap="round" stroke-linejoin="round"/>
<path d="M360.365 425.847L430.578 396.116L430.065 400.414L360.16 430.977L360.365 425.847Z" fill="#D9D9D9" stroke="#282828" stroke-miterlimit="10" stroke-linecap="round" stroke-linejoin="round"/>
<path d="M311.596 337.953L308.758 381.911L304.79 383.621L376.542 400.63L380.509 398.932L383.633 351.291L311.596 337.953Z" fill="#D9D9D9" stroke="#282828" stroke-miterlimit="10" stroke-linecap="round" stroke-linejoin="round"/>
<path d="M307.629 339.663L304.79 383.621L376.542 400.63L379.666 352.99L307.629 339.663Z" fill="#282828" stroke="#282828" stroke-miterlimit="10" stroke-linecap="round" stroke-linejoin="round"/>
<path d="M543.609 62.4834L539.311 60.8532L533.315 61.218L532.813 62.8596L197.767 82.8096C195.943 82.9122 194.45 84.3258 194.267 86.1498L172.117 315.164C171.946 316.726 173.018 318.163 174.557 318.459L487.008 378.332L483.542 380.418L497.393 383.097L499.001 382.88L502.911 380.988C504.165 380.623 505.168 379.563 505.351 378.172L545.9 66.12C546.117 64.4556 545.091 62.985 543.609 62.4834Z" fill="#D9D9D9" stroke="#282828" stroke-miterlimit="10" stroke-linecap="round" stroke-linejoin="round"/>
<path d="M192.25 83.9496L167.58 317.057C167.409 318.619 168.481 320.055 170.02 320.351L496.812 382.972C498.727 383.336 500.563 382.014 500.813 380.076L541.375 64.4556C541.648 62.3466 539.938 60.5112 537.818 60.6366L195.749 80.6094C193.925 80.712 192.443 82.1256 192.25 83.9496Z" fill="#282828" stroke="#282828" stroke-miterlimit="10" stroke-linecap="round" stroke-linejoin="round"/>
<path d="M199.762 90.9948L178.991 284.339L491.648 332.299L526.874 72.8688L199.762 90.9948Z" fill="#00CE00" stroke="#282828" stroke-miterlimit="10" stroke-linecap="round" stroke-linejoin="round"/>
<path d="M234.19 219.131C284.236 203.809 340.267 186.937 392.035 171.98C444.497 156.83 486.689 151.13 516.203 149.443" stroke="#282828" stroke-miterlimit="10" stroke-linecap="round" stroke-linejoin="round"/>
<path d="M196.958 119.905C196.958 119.905 297.985 122.242 408.348 167.318" stroke="#282828" stroke-miterlimit="10" stroke-linecap="round" stroke-linejoin="round"/>
<path d="M277.248 300.344C277.248 300.344 353.959 228.365 426.611 190.471C487.806 158.551 514.163 157.787 514.163 157.787" stroke="#282828" stroke-miterlimit="10" stroke-linecap="round" stroke-linejoin="round"/>
<path d="M170.02 320.351L496.812 382.972C498.727 383.336 500.563 382.014 500.813 380.076L504.758 349.421L169.928 294.895L167.58 317.057C167.409 318.63 168.469 320.055 170.02 320.351Z" fill="#D9D9D9" stroke="#282828" stroke-miterlimit="10" stroke-linecap="round" stroke-linejoin="round"/>
<path d="M178.991 284.339L226.176 291.578L236.14 201.381L188.271 197.95L178.991 284.339Z" fill="#282828" stroke="#282828" stroke-miterlimit="10" stroke-linecap="round" stroke-linejoin="round"/>
<path d="M230.907 229.368L220.886 228.217L217.102 257.857L227.601 259.213L230.907 229.368Z" fill="#D9D9D9" stroke="#282828" stroke-miterlimit="10" stroke-linecap="round" stroke-linejoin="round"/>
<path d="M215.471 226.233C215.46 226.313 215.437 226.381 215.403 226.438L231.032 228.239L233.563 205.291L218.424 204.208L215.471 226.233Z" fill="#D9D9D9" stroke="#282828" stroke-miterlimit="10" stroke-linecap="round" stroke-linejoin="round"/>
<path d="M215.973 257.708L219.758 228.091L204.801 226.37L201.153 255.793L215.973 257.708Z" fill="#D9D9D9" stroke="#282828" stroke-miterlimit="10" stroke-linecap="round" stroke-linejoin="round"/>
<path d="M219.119 259.27L201.016 256.922L197.744 283.256L215.973 286.049L219.119 259.27Z" fill="#D9D9D9" stroke="#282828" stroke-miterlimit="10" stroke-linecap="round" stroke-linejoin="round"/>
<path d="M214.354 226.324C214.331 226.244 214.32 226.165 214.331 226.085L217.273 204.128L207.64 203.433L204.926 225.241L214.354 226.324Z" fill="#D9D9D9" stroke="#282828" stroke-miterlimit="10" stroke-linecap="round" stroke-linejoin="round"/>
<path d="M220.248 259.418L217.102 286.22L224.5 287.36L227.476 260.353L220.248 259.418Z" fill="#D9D9D9" stroke="#282828" stroke-miterlimit="10" stroke-linecap="round" stroke-linejoin="round"/>
</svg>
