<svg width="566" height="508" viewBox="0 0 566 508" fill="none" xmlns="http://www.w3.org/2000/svg">
<path d="M330.928 424.041C330.928 424.041 413.739 403.977 465.06 359.077C516.393 314.176 532.54 247.337 502.344 189.93C472.137 132.524 385.49 123.476 323.466 79.2623C261.442 35.0486 181.266 27.1072 128.709 87.0757C76.1514 147.033 119.673 181.011 106.394 259.11C93.1147 337.197 137.756 463.305 330.928 424.041Z" fill="#00CE00"/>
<path opacity="0.7" d="M330.928 424.041C330.928 424.041 413.739 403.977 465.06 359.077C516.393 314.176 532.54 247.337 502.344 189.93C472.137 132.524 385.49 123.476 323.466 79.2623C261.442 35.0486 181.266 27.1072 128.709 87.0757C76.1514 147.033 119.673 181.011 106.394 259.11C93.1147 337.197 137.756 463.305 330.928 424.041Z" fill="#D9D9D9"/>
<mask id="mask0_5_26" style="mask-type:luminance" maskUnits="userSpaceOnUse" x="0" y="246" width="86" height="251">
<path d="M85.6407 246.167H0.0147858V496.336H85.6407V246.167Z" fill="white"/>
</mask>
<g mask="url(#mask0_5_26)">
<path d="M121.325 274.74C116.788 274.251 111.418 280.46 109.752 284.172C109.606 284.489 107.953 289.773 108.032 289.759C108.032 289.759 108.112 289.759 108.125 289.759C107.265 290.737 106.366 291.78 105.387 292.956C103.615 295.136 101.631 297.606 99.6604 300.446C97.6764 303.273 95.5999 306.404 93.7218 309.904C91.8305 313.405 90.0185 317.183 88.643 321.318C88.6298 321.371 88.6166 321.41 88.6033 321.463C88.6298 320.129 88.5636 316.404 88.524 316.113C87.9949 312.084 84.6223 304.607 80.1386 303.775C76.9114 303.181 74.1736 305.704 73.9223 308.834C73.6578 312.031 75.9856 315.241 78.2473 317.262C80.7999 319.548 87.9023 321.754 88.4578 321.926C87.1881 325.875 86.2226 330.023 85.4555 334.29C85.019 336.721 84.6619 339.191 84.3313 341.661C84.3181 340.512 84.2916 339.482 84.2784 339.336C83.7493 335.307 80.3767 327.83 75.893 326.998C72.6659 326.404 69.928 328.927 69.6767 332.058C69.4122 335.254 71.74 338.464 74.0017 340.485C76.303 342.533 82.3077 344.541 83.9081 345.056C83.789 346.007 83.6568 346.958 83.5509 347.909C83.0087 352.48 82.4796 357.038 81.8316 361.489C81.6067 363.061 81.3157 364.594 81.038 366.139C81.0248 365.109 80.9983 364.25 80.9851 364.118C80.456 360.089 77.0834 352.612 72.5997 351.78C69.3725 351.186 66.6347 353.709 66.3834 356.839C66.1189 360.036 68.4467 363.246 70.7084 365.267C72.9039 367.222 78.4324 369.125 80.3238 369.732C79.9931 371.304 79.6625 372.876 79.2657 374.382C78.9747 375.399 78.7631 376.403 78.4192 377.42C78.0886 378.424 77.7711 379.428 77.4537 380.406C76.766 382.282 76.0782 384.224 75.364 386.047C74.8746 387.315 74.3852 388.517 73.9091 389.719C74.1604 388.16 74.5704 385.095 74.5836 384.831C74.6498 382.136 73.6843 377.738 71.7797 374.66C71.7929 374.263 71.7665 373.867 71.7003 373.471C71.1977 370.366 68.2748 368.055 65.1137 368.9C60.7094 370.076 57.9187 377.79 57.7071 381.846C57.6939 382.084 57.8526 384.699 57.9716 386.35C57.7468 385.399 57.5484 384.461 57.3103 383.484C56.8474 381.542 56.3316 379.613 55.7761 377.539C55.4719 376.549 55.1677 375.545 54.8635 374.527C54.5858 373.51 54.1493 372.48 53.8054 371.45C52.9325 369.072 51.9405 366.707 50.8824 364.343C52.5886 363.933 58.6197 362.401 61.0401 360.538C63.4472 358.689 66.0131 355.664 65.9867 352.454C65.9602 349.31 63.4208 346.588 60.1672 346.945C55.6438 347.434 51.7025 354.647 50.8824 358.623C50.8295 358.874 50.565 361.793 50.446 363.405C49.7979 361.991 49.163 360.578 48.4621 359.164C46.4385 355.096 44.2562 351.027 42.1135 346.972C41.4522 345.73 40.8174 344.488 40.1561 343.233C40.7645 343.101 47.9727 341.423 50.684 339.349C53.0912 337.5 55.6571 334.475 55.6306 331.265C55.6042 328.121 53.0648 325.4 49.8111 325.756C45.2878 326.245 41.3464 333.458 40.5264 337.434C40.4603 337.738 40.0899 341.939 40.037 343.009C38.6086 340.261 37.2199 337.513 35.9502 334.752C34.1911 330.948 32.6833 327.104 31.5062 323.286C31.7839 323.22 39.3228 321.516 42.1003 319.389C44.5075 317.54 47.0733 314.515 47.0469 311.305C47.0204 308.161 44.481 305.439 41.2274 305.796C36.6908 306.285 32.7627 313.498 31.9426 317.474C31.8897 317.738 31.5988 320.935 31.4929 322.467C31.3475 322.48 31.3739 322.48 31.2284 322.494C30.0116 318.385 29.3371 314.237 28.9139 310.34C28.6626 308.081 28.5435 305.902 28.4774 303.788C29.919 303.617 36.466 302.745 39.1773 301.107C41.7829 299.535 44.6529 296.813 44.9836 293.617C45.301 290.486 43.079 287.5 39.799 287.5C35.2492 287.487 30.5407 294.224 29.2842 298.095C29.2181 298.306 28.7551 300.512 28.4509 302.137C28.4377 301.186 28.398 300.195 28.4113 299.284C28.4113 295.849 28.6361 292.692 28.8477 289.905C28.98 288.319 29.1387 286.893 29.2974 285.559C30.62 284.647 35.884 280.935 37.5108 278.28C39.098 275.691 40.3809 271.952 39.2038 268.967C38.0531 266.047 34.6937 264.409 31.7839 265.915C27.7367 268.003 26.6654 276.14 27.3399 280.156C27.3929 280.499 28.9271 285.81 28.9932 285.77C28.9932 285.77 29.0593 285.73 29.0726 285.717C28.9006 286.998 28.7155 288.385 28.5568 289.891C28.279 292.679 27.988 295.836 27.9087 299.297C27.8161 302.745 27.8161 306.496 28.1732 310.459C28.5303 314.422 29.099 318.57 30.2365 322.771C30.2497 322.824 30.2629 322.863 30.2761 322.916C29.5619 321.793 27.4458 318.716 27.2606 318.491C24.6021 315.413 17.6452 311.041 13.4525 312.824C10.437 314.105 9.55082 317.725 11.0586 320.472C12.6061 323.286 16.3226 324.673 19.3249 325.122C22.7108 325.611 29.8529 323.55 30.4216 323.379C31.5459 327.368 33.0272 331.371 34.7466 335.347C35.7253 337.619 36.7834 339.878 37.8812 342.124C37.2331 341.172 36.6379 340.327 36.5453 340.208C33.8869 337.13 26.9299 332.758 22.7373 334.541C19.7217 335.822 18.8356 339.442 20.3433 342.19C21.8908 345.003 25.6073 346.404 28.6097 346.839C31.6649 347.289 37.7754 345.637 39.3889 345.188C39.8122 346.047 40.2354 346.906 40.6587 347.764C42.7219 351.872 44.8116 355.968 46.7162 360.049C47.3907 361.489 48.0124 362.929 48.6208 364.369C48.0388 363.524 47.5495 362.81 47.4569 362.718C44.7984 359.64 37.8415 355.267 33.6488 357.051C30.6333 358.332 29.7471 361.952 31.2549 364.699C32.8023 367.513 36.5189 368.9 39.5212 369.349C42.431 369.772 48.0917 368.306 50.0095 367.777C50.6047 369.27 51.1866 370.763 51.6892 372.229C52.0067 373.246 52.3902 374.197 52.6547 375.228C52.9457 376.245 53.2235 377.262 53.5012 378.253C53.9641 380.195 54.4667 382.202 54.8635 384.105C55.1545 385.426 55.419 386.694 55.6703 387.975C55.009 386.535 53.6731 383.748 53.5277 383.537C51.3586 380.102 45.1555 374.726 40.738 375.848C37.5637 376.654 36.1353 380.089 37.2199 383.048C38.3309 386.06 41.7829 388.002 44.6794 388.887C47.8801 389.864 54.9693 388.966 55.8422 388.847C56.2655 390.961 56.6623 393.021 56.9929 394.977C58.1833 401.74 58.9239 407.407 59.3868 411.383C59.4662 412.083 59.5323 412.717 59.5984 413.312H45.9623L50.1947 495.768H75.1127L79.345 413.312H66.5686C66.6612 413.114 66.7538 412.929 66.8464 412.731C68.6054 409.085 71.0258 403.84 73.6578 397.434C74.4911 395.412 75.3375 393.233 76.1972 390.987C77.0569 391.172 84.0668 392.586 87.3336 391.846C90.2963 391.172 93.8938 389.508 95.2164 386.575C96.5125 383.708 95.3486 380.181 92.2405 379.138C87.9156 377.685 81.329 382.586 78.9086 385.862C78.7631 386.06 77.4537 388.319 76.6469 389.759C76.9908 388.834 77.3347 387.949 77.6786 386.998C78.3663 385.122 79.0012 383.233 79.6889 381.199C79.9931 380.208 80.2841 379.204 80.5883 378.187C80.9057 377.183 81.1306 376.086 81.3951 375.029C81.977 372.572 82.4532 370.036 82.8764 367.487C84.5297 368.081 90.4021 370.129 93.4441 369.917C96.4729 369.706 100.282 368.596 102.028 365.901C103.747 363.259 103.139 359.6 100.216 358.094C96.1687 356.007 88.9075 359.851 86.0242 362.718C85.8391 362.903 84.0006 365.188 83.0219 366.456C83.26 364.924 83.5113 363.392 83.7097 361.82C84.2652 357.302 84.7016 352.718 85.1381 348.147C85.2703 346.747 85.4291 345.347 85.5745 343.96C86.1565 344.184 93.087 346.76 96.4993 346.522C99.5281 346.311 103.337 345.201 105.083 342.507C106.802 339.865 106.194 336.205 103.271 334.7C99.2239 332.612 91.9628 336.456 89.0795 339.323C88.8679 339.534 86.2226 342.837 85.5878 343.709C85.9184 340.631 86.2623 337.579 86.7384 334.567C87.3865 330.419 88.2462 326.39 89.3704 322.546C89.6482 322.652 96.8696 325.373 100.361 325.122C103.39 324.911 107.199 323.801 108.945 321.106C110.664 318.464 110.056 314.805 107.133 313.299C103.086 311.212 95.8248 315.056 92.9415 317.923C92.7563 318.108 90.7327 320.618 89.8069 321.833C89.6746 321.767 89.7011 321.78 89.5821 321.714C90.8385 317.606 92.5712 313.801 94.3567 310.301C95.3883 308.28 96.4993 306.404 97.6103 304.594C98.9065 305.241 104.845 308.121 108.019 308.253C111.061 308.372 114.963 307.685 117 305.202C118.997 302.771 118.799 299.059 116.061 297.236C112.265 294.713 104.633 297.738 101.446 300.274C101.274 300.407 99.6736 302.005 98.5229 303.181C99.0387 302.375 99.5546 301.529 100.07 300.776C101.975 297.91 103.893 295.4 105.612 293.194C106.604 291.952 107.517 290.843 108.39 289.812C109.99 289.786 116.431 289.588 119.261 288.267C122.012 286.972 125.16 284.568 125.822 281.424C126.483 278.293 124.592 275.096 121.325 274.74ZM71.1713 396.311C68.4335 402.599 65.9205 407.737 64.1086 411.304C63.7382 412.017 63.4208 412.665 63.1166 413.246H62.8124C62.7198 412.546 62.6272 411.793 62.5082 410.934C61.9527 406.931 61.093 401.212 59.7307 394.422C59.3075 392.268 58.8181 389.983 58.2891 387.645C58.8181 387.434 61.8469 386.218 64.5186 384.726C66.8464 387.249 72.8246 390.195 73.6049 390.578C72.7717 392.559 71.9649 394.488 71.1713 396.311Z" fill="#00CE00"/>
<path d="M16.5607 301.939C19.8275 303.366 27.8293 303.181 27.8293 303.181C27.9087 303.181 26.1099 297.949 25.9644 297.632C24.2053 293.96 18.6636 287.91 14.1403 288.518C10.8866 288.954 9.07467 292.203 9.81533 295.268C10.5692 298.399 13.7832 300.724 16.5607 301.939Z" fill="#00CE00"/>
<path opacity="0.3" d="M16.5607 301.939C19.8275 303.366 27.8293 303.181 27.8293 303.181C27.9087 303.181 26.1099 297.949 25.9644 297.632C24.2053 293.96 18.6636 287.91 14.1403 288.518C10.8866 288.954 9.07467 292.203 9.81533 295.268C10.5692 298.399 13.7832 300.724 16.5607 301.939Z" fill="#D9D9D9"/>
<path opacity="0.3" d="M30.4216 323.326C31.5459 327.315 33.0272 331.318 34.7466 335.294C35.7253 337.566 36.7834 339.825 37.8812 342.071C37.2331 341.12 36.6379 340.274 36.5453 340.155C33.8869 337.077 26.9299 332.705 22.7373 334.488C19.7217 335.77 18.8355 339.389 20.3433 342.137C21.8908 344.95 25.6073 346.351 28.6096 346.787C31.6649 347.236 37.7753 345.585 39.3889 345.135C39.8122 345.994 40.2354 346.853 40.6586 347.711C42.7219 351.82 44.8116 355.915 46.7162 359.997C47.3907 361.436 48.0124 362.876 48.6208 364.316C48.0388 363.471 47.5495 362.757 47.4569 362.665C44.7984 359.587 37.8415 355.215 33.6488 356.998C30.6332 358.279 29.7471 361.899 31.2549 364.646C32.8023 367.46 36.5189 368.847 39.5212 369.296C42.4309 369.719 48.0917 368.253 50.0095 367.724C50.6047 369.217 51.1866 370.71 51.6892 372.176C52.0067 373.193 52.3902 374.144 52.6547 375.175C52.9457 376.192 53.2235 377.209 53.5012 378.2C53.9641 380.142 54.4667 382.15 54.8635 384.052C55.1545 385.373 55.419 386.641 55.6703 387.922C55.009 386.483 53.6731 383.695 53.5277 383.484C51.3586 380.049 45.1555 374.673 40.738 375.796C37.5637 376.602 36.1353 380.036 37.2199 382.995C38.3308 386.007 41.7829 387.949 44.6794 388.834C47.8801 389.811 54.9693 388.913 55.8422 388.794C56.2655 390.908 56.6622 392.969 56.9929 394.924C58.1833 401.687 58.9239 407.354 59.3868 411.33C59.4662 412.031 59.5323 412.665 59.5984 413.259H45.9623L50.1947 495.716H75.1127L79.345 413.259H66.5686C66.6612 413.061 66.7538 412.876 66.8464 412.678C68.6054 409.032 71.0258 403.788 73.6578 397.381C74.4911 395.36 75.3375 393.18 76.1972 390.934C77.0569 391.119 84.0667 392.533 87.3336 391.793C90.2963 391.119 93.8938 389.455 95.2164 386.522C96.5125 383.656 95.3486 380.129 92.2405 379.085C87.9156 377.632 81.329 382.533 78.9086 385.809C78.7631 386.007 77.4537 388.266 76.6469 389.706C76.9908 388.781 77.3347 387.896 77.6785 386.945C78.3663 385.069 79.0012 383.18 79.6889 381.146C79.9931 380.155 80.2841 379.151 80.5883 378.134C80.9057 377.13 81.1306 376.033 81.3951 374.977C81.977 372.52 82.4532 369.983 82.8764 367.434C84.5297 368.028 90.4021 370.076 93.4441 369.864C96.4729 369.653 100.282 368.543 102.028 365.849C103.747 363.207 103.139 359.547 100.216 358.042C96.1687 355.954 88.9075 359.798 86.0242 362.665C85.8391 362.85 84.0006 365.135 83.0219 366.403C83.26 364.871 83.5113 363.339 83.7096 361.767C84.2651 357.249 84.7016 352.665 85.1381 348.094C85.2703 346.694 85.4291 345.294 85.5745 343.907C86.1565 344.131 93.087 346.707 96.4993 346.47C99.5281 346.258 103.337 345.149 105.083 342.454C106.802 339.812 106.194 336.153 103.271 334.647C99.2239 332.56 91.9628 336.404 89.0795 339.27C88.8678 339.482 86.2226 342.784 85.5878 343.656C85.9184 340.578 86.2623 337.526 86.7384 334.515C87.3865 330.367 88.2462 326.338 89.3704 322.494C89.6482 322.599 96.8696 325.32 100.361 325.069C103.39 324.858 107.199 323.749 108.945 321.054C110.664 318.412 110.056 314.753 107.133 313.247C103.086 311.159 95.8248 315.004 92.9415 317.87C92.7563 318.055 90.7327 320.565 89.8069 321.78C89.6746 321.714 89.7011 321.727 89.582 321.661C90.8385 317.553 92.5712 313.749 94.3567 310.248C95.3883 308.227 96.4993 306.351 97.6103 304.541C98.9065 305.189 104.845 308.068 108.019 308.2C111.061 308.319 114.963 307.632 117 305.149C118.997 302.718 118.799 299.006 116.061 297.183C112.265 294.66 104.633 297.685 101.446 300.222C101.274 300.354 99.6736 301.952 98.5229 303.128C99.0387 302.322 99.5546 301.477 100.07 300.724C101.975 297.857 103.893 295.347 105.612 293.141C106.604 291.899 107.517 290.79 108.39 289.759C109.99 289.733 116.431 289.535 119.261 288.214C122.012 286.919 125.16 284.515 125.822 281.371C126.47 278.293 124.578 275.096 121.312 274.74C116.775 274.251 111.405 280.46 109.739 284.172C109.593 284.489 107.94 289.773 108.019 289.759C108.019 289.759 108.099 289.759 108.112 289.759C107.252 290.737 106.353 291.78 105.374 292.956C103.602 295.136 101.618 297.606 99.6471 300.446C97.6632 303.273 95.5867 306.404 93.7086 309.904C91.8173 313.405 90.0053 317.183 88.6298 321.318C88.6165 321.371 88.6033 321.41 88.5901 321.463C88.6165 320.129 88.5504 316.404 88.5107 316.113C87.9817 312.084 84.609 304.607 80.1254 303.775C76.8982 303.181 74.1604 305.704 73.9091 308.834C73.6446 312.031 75.9724 315.241 78.234 317.262C80.7867 319.548 87.8891 321.754 88.4446 321.926C87.1749 325.875 86.2094 330.023 85.4423 334.29C85.0058 336.721 84.6487 339.191 84.3181 341.661C84.3048 340.512 84.2784 339.482 84.2651 339.336C83.7361 335.307 80.3634 327.83 75.8798 326.998C72.6526 326.404 69.9148 328.927 69.6635 332.058C69.399 335.254 71.7268 338.464 73.9885 340.486C76.2898 342.533 82.2945 344.541 83.8948 345.056C83.7758 346.007 83.6435 346.958 83.5377 347.909C82.9954 352.48 82.4664 357.038 81.8183 361.489C81.5935 363.061 81.3025 364.594 81.0247 366.139C81.0115 365.109 80.9851 364.25 80.9718 364.118C80.4428 360.089 77.0701 352.612 72.5865 351.78C69.3593 351.186 66.6215 353.709 66.3702 356.839C66.1057 360.036 68.4335 363.246 70.6952 365.267C72.8907 367.222 78.4192 369.125 80.3105 369.732C79.9799 371.304 79.6492 372.876 79.2525 374.382C78.9615 375.399 78.7499 376.403 78.406 377.42C78.0753 378.424 77.7579 379.428 77.4405 380.406C76.7527 382.282 76.065 384.224 75.3507 386.047C74.8614 387.315 74.372 388.517 73.8959 389.719C74.1472 388.16 74.5572 385.095 74.5704 384.831C74.6365 382.136 73.671 377.738 71.7665 374.66C71.7797 374.263 71.7532 373.867 71.6871 373.471C71.1845 370.366 68.2615 368.055 65.1005 368.9C60.6962 370.076 57.9055 377.79 57.6939 381.846C57.6807 382.084 57.8394 384.699 57.9584 386.35C57.7336 385.399 57.5352 384.461 57.2971 383.484C56.8342 381.542 56.3184 379.613 55.7629 377.539C55.4587 376.549 55.1545 375.545 54.8503 374.528C54.5725 373.51 54.1361 372.48 53.7922 371.45C52.9193 369.072 51.9273 366.707 50.8692 364.343C52.5754 363.933 58.6065 362.401 61.0269 360.538C63.434 358.689 65.9999 355.664 65.9734 352.454C65.947 349.31 63.4076 346.588 60.1539 346.945C55.6306 347.434 51.6892 354.647 50.8692 358.623C50.8163 358.874 50.5518 361.793 50.4327 363.405C49.7847 361.991 49.1498 360.578 48.4488 359.164C46.4252 355.096 44.2429 351.027 42.1003 346.972C41.439 345.73 40.8041 344.488 40.1428 343.233C40.7512 343.101 47.9595 341.423 50.6708 339.349C53.078 337.5 55.6438 334.475 55.6174 331.265C55.5909 328.121 53.0515 325.4 49.7979 325.756C45.2746 326.245 41.3332 333.458 40.5132 337.434C40.447 337.738 40.0767 341.939 40.0238 343.009C38.5954 340.261 37.2066 337.513 35.9369 334.752C34.1778 330.948 32.6701 327.104 31.4929 323.286C31.7707 323.22 39.3096 321.516 42.0871 319.389C44.4942 317.54 47.0601 314.515 47.0336 311.305C47.0072 308.161 44.4678 305.44 41.2141 305.796C36.6776 306.285 32.7494 313.498 31.9294 317.474C31.8765 317.738 31.5855 320.935 31.4797 322.467C31.3342 322.48 31.3607 322.48 31.2152 322.494C29.9984 318.385 29.3239 314.237 28.9006 310.34C28.6493 308.082 28.5303 305.902 28.4642 303.788C29.9058 303.617 36.4527 302.745 39.1641 301.107C41.7696 299.535 44.6397 296.813 44.9704 293.617C45.2878 290.486 43.0658 287.5 39.7857 287.5C35.2359 287.487 30.5274 294.224 29.271 298.095C29.2048 298.306 28.7419 300.512 28.4377 302.137C28.4245 301.186 28.3848 300.195 28.398 299.284C28.398 295.849 28.6229 292.692 28.8345 289.905C28.9668 288.319 29.1255 286.893 29.2842 285.559C30.6068 284.647 35.8708 280.935 37.4976 278.28C39.0847 275.691 40.3677 271.952 39.1905 268.967C38.0399 266.047 34.6804 264.409 31.7707 265.915C27.7235 268.003 26.6522 276.14 27.3267 280.156C27.3796 280.499 28.9139 285.81 28.98 285.77C28.98 285.77 29.0461 285.73 29.0593 285.717C28.8874 286.998 28.7022 288.385 28.5435 289.891C28.2658 292.679 27.9748 295.836 27.8954 299.297C27.8029 302.745 27.8029 306.496 28.16 310.459C28.5171 314.422 29.0858 318.57 30.2232 322.771C30.2365 322.824 30.2497 322.863 30.2629 322.916C29.5487 321.793 27.4325 318.716 27.2474 318.491C24.5889 315.413 17.632 311.041 13.4393 312.824C10.4237 314.105 9.53759 317.725 11.0454 320.472C12.5928 323.286 16.3094 324.673 19.3117 325.122C22.7108 325.558 29.8529 323.498 30.4216 323.326ZM64.5053 384.712C66.8331 387.236 72.8113 390.181 73.5917 390.564C72.7716 392.559 71.9649 394.501 71.1713 396.311C68.4335 402.599 65.9205 407.737 64.1085 411.304C63.7382 412.017 63.4208 412.665 63.1166 413.246H62.8124C62.7198 412.546 62.6272 411.793 62.5082 410.934C61.9527 406.932 61.093 401.212 59.7307 394.422C59.3075 392.268 58.8181 389.983 58.2891 387.645C58.8049 387.42 61.8204 386.205 64.5053 384.712Z" fill="#D9D9D9"/>
</g>
<path d="M522.87 474.91H86.2491V205.665C86.2491 198.043 92.4389 191.847 100.084 191.847H509.035C516.667 191.847 522.87 198.029 522.87 205.665V474.91Z" stroke="#282828" stroke-miterlimit="10" stroke-linecap="round" stroke-linejoin="round"/>
<path d="M505.147 213.961H103.959V440.405H505.147V213.961Z" stroke="#282828" stroke-miterlimit="10" stroke-linecap="round" stroke-linejoin="round"/>
<path d="M455.588 461.277H155.527V476.046H455.588V461.277Z" fill="#282828" stroke="#282828" stroke-miterlimit="10" stroke-linecap="round" stroke-linejoin="round"/>
<path d="M455.588 468.384H155.527V476.046H455.588V468.384Z" fill="#D9D9D9" stroke="#282828" stroke-miterlimit="10" stroke-linecap="round" stroke-linejoin="round"/>
<path d="M50.9353 484.791C50.9353 484.791 55.8687 490.801 70.6422 495.729H540.447C540.447 495.729 551.398 492.994 556.332 485.332L50.9353 484.791Z" fill="#282828" stroke="#282828" stroke-miterlimit="10" stroke-linecap="round" stroke-linejoin="round"/>
<path d="M554.903 485.517H52.4431C51.0544 485.517 49.9434 484.395 49.9434 483.021V476.521C49.9434 475.134 51.0676 474.025 52.4431 474.025H554.903C556.292 474.025 557.403 475.148 557.403 476.521V483.021C557.403 484.395 556.279 485.517 554.903 485.517Z" fill="#D9D9D9" stroke="#282828" stroke-miterlimit="10" stroke-linecap="round" stroke-linejoin="round"/>
<path d="M308.289 200.407C308.289 198.294 306.57 196.576 304.454 196.576C302.337 196.576 300.618 198.294 300.618 200.407C300.618 202.521 302.337 204.238 304.454 204.238C306.583 204.238 308.289 202.521 308.289 200.407Z" fill="#D9D9D9" stroke="#282828" stroke-miterlimit="10" stroke-linecap="round" stroke-linejoin="round"/>
<path d="M90.3624 271.503C89.754 271.503 89.2646 271.014 89.2646 270.407V238.69C89.2646 238.082 89.754 237.593 90.3624 237.593C90.9708 237.593 91.4601 238.082 91.4601 238.69V270.407C91.4601 271.014 90.9708 271.503 90.3624 271.503Z" fill="#282828" stroke="#D9D9D9" stroke-width="0.6917" stroke-miterlimit="10"/>
<path d="M396.203 213.961V440.326" stroke="#282828" stroke-miterlimit="10" stroke-linecap="round" stroke-linejoin="round"/>
<path d="M401.824 213.961V440.326" stroke="#282828" stroke-miterlimit="10" stroke-linecap="round" stroke-linejoin="round"/>
<path d="M104.184 425.373H396.203" stroke="#282828" stroke-miterlimit="10" stroke-linecap="round" stroke-linejoin="round"/>
<path d="M117.053 397.183H215.825" stroke="#282828" stroke-miterlimit="10" stroke-linecap="round" stroke-linejoin="round"/>
<path d="M117.053 387.79H215.825" stroke="#282828" stroke-miterlimit="10" stroke-linecap="round" stroke-linejoin="round"/>
<path d="M117.053 378.398H215.825" stroke="#282828" stroke-miterlimit="10" stroke-linecap="round" stroke-linejoin="round"/>
<path d="M117.053 369.006H215.825" stroke="#282828" stroke-miterlimit="10" stroke-linecap="round" stroke-linejoin="round"/>
<path d="M117.053 359.6H215.825" stroke="#282828" stroke-miterlimit="10" stroke-linecap="round" stroke-linejoin="round"/>
<path d="M117.053 332.203H215.825" stroke="#282828" stroke-miterlimit="10" stroke-linecap="round" stroke-linejoin="round"/>
<path d="M117.053 322.811H215.825" stroke="#282828" stroke-miterlimit="10" stroke-linecap="round" stroke-linejoin="round"/>
<path d="M117.053 313.418H215.825" stroke="#282828" stroke-miterlimit="10" stroke-linecap="round" stroke-linejoin="round"/>
<path d="M117.053 304.026H215.825" stroke="#282828" stroke-miterlimit="10" stroke-linecap="round" stroke-linejoin="round"/>
<path d="M117.053 294.62H215.825" stroke="#282828" stroke-miterlimit="10" stroke-linecap="round" stroke-linejoin="round"/>
<path d="M456.012 235.414C455.311 235.414 454.715 235.982 454.689 236.682L454.61 238.399H433.263L432.006 268.293H473.007L473.959 245.638L474.277 238.412L474.409 235.427H456.012V235.414Z" fill="#00CE00" stroke="#282828" stroke-miterlimit="10" stroke-linecap="round" stroke-linejoin="round"/>
<path d="M473.007 268.293L472.822 240.486H433.421L433.739 267.963L473.007 268.293Z" fill="#D9D9D9" stroke="#282828" stroke-miterlimit="10" stroke-linecap="round" stroke-linejoin="round"/>
<path d="M473.007 268.293L471.208 240.486H431.808L432.125 267.963L473.007 268.293Z" fill="#D9D9D9" stroke="#282828" stroke-miterlimit="10" stroke-linecap="round" stroke-linejoin="round"/>
<path d="M432.006 268.293L426.517 239.628H467.783L473.007 268.293H432.006Z" fill="#00CE00" stroke="#282828" stroke-miterlimit="10" stroke-linecap="round" stroke-linejoin="round"/>
<path d="M456.012 285.928C455.311 285.928 454.715 286.496 454.689 287.197L454.61 288.914H433.263L432.006 318.808H473.007L473.959 296.153L474.277 288.927L474.409 285.942H456.012V285.928Z" fill="#00CE00" stroke="#282828" stroke-miterlimit="10" stroke-linecap="round" stroke-linejoin="round"/>
<path d="M473.007 318.808L472.822 291.001H433.421L433.739 318.465L473.007 318.808Z" fill="#D9D9D9" stroke="#282828" stroke-miterlimit="10" stroke-linecap="round" stroke-linejoin="round"/>
<path d="M473.007 318.808L471.208 291.001H431.808L432.125 318.465L473.007 318.808Z" fill="#D9D9D9" stroke="#282828" stroke-miterlimit="10" stroke-linecap="round" stroke-linejoin="round"/>
<path d="M432.006 318.808L426.517 290.129H467.783L473.007 318.808H432.006Z" fill="#00CE00" stroke="#282828" stroke-miterlimit="10" stroke-linecap="round" stroke-linejoin="round"/>
<path d="M456.012 336.43C455.311 336.43 454.715 336.998 454.689 337.698L454.61 339.416H433.263L432.006 369.31H473.007L473.959 346.655L474.277 339.429L474.409 336.443H456.012V336.43Z" fill="#00CE00" stroke="#282828" stroke-miterlimit="10" stroke-linecap="round" stroke-linejoin="round"/>
<path d="M473.007 369.31L472.822 341.503H433.421L433.739 368.979L473.007 369.31Z" fill="#D9D9D9" stroke="#282828" stroke-miterlimit="10" stroke-linecap="round" stroke-linejoin="round"/>
<path d="M473.007 369.31L471.208 341.503H431.808L432.125 368.979L473.007 369.31Z" fill="#D9D9D9" stroke="#282828" stroke-miterlimit="10" stroke-linecap="round" stroke-linejoin="round"/>
<path d="M432.006 369.31L426.517 340.644H467.783L473.007 369.31H432.006Z" fill="#00CE00" stroke="#282828" stroke-miterlimit="10" stroke-linecap="round" stroke-linejoin="round"/>
<path d="M456.012 386.945C455.311 386.945 454.715 387.513 454.689 388.213L454.61 389.93H433.263L432.006 419.824H473.007L473.959 397.169L474.277 389.943L474.409 386.958H456.012V386.945Z" fill="#00CE00" stroke="#282828" stroke-miterlimit="10" stroke-linecap="round" stroke-linejoin="round"/>
<path d="M473.007 419.824L472.822 392.017H433.421L433.739 419.481L473.007 419.824Z" fill="#D9D9D9" stroke="#282828" stroke-miterlimit="10" stroke-linecap="round" stroke-linejoin="round"/>
<path d="M473.007 419.824L471.208 392.017H431.808L432.125 419.481L473.007 419.824Z" fill="#D9D9D9" stroke="#282828" stroke-miterlimit="10" stroke-linecap="round" stroke-linejoin="round"/>
<path d="M432.006 419.824L426.517 391.146H467.783L473.007 419.824H432.006Z" fill="#00CE00" stroke="#282828" stroke-miterlimit="10" stroke-linecap="round" stroke-linejoin="round"/>
<mask id="mask1_5_26" style="mask-type:luminance" maskUnits="userSpaceOnUse" x="244" y="209" width="139" height="265">
<path d="M382.567 209.43H244.169V473.549H382.567V209.43Z" fill="white"/>
</mask>
<g mask="url(#mask1_5_26)">
<path d="M343.431 468.133C343.431 468.133 346.513 472.413 346.235 476.957C345.97 481.502 357.213 486.442 360.281 484.58C363.363 482.704 363.892 477.631 361.617 474.421C359.342 471.211 355.467 467.341 354.792 466.535C354.118 465.729 354.118 465.069 351.988 465.069C349.859 465.055 344.238 464.923 343.431 468.133Z" fill="#282828" stroke="#282828" stroke-miterlimit="10" stroke-linecap="round" stroke-linejoin="round"/>
<path d="M362.225 475.452C362.252 476.535 362.186 477.776 361.895 478.82C361.22 481.224 360.559 481.356 360.559 481.356L359.355 479.481L356.816 480.154L356.683 482.558C356.683 482.558 353.88 482.691 352.398 482.03C350.93 481.356 347.981 479.758 347.452 476.548C347.042 474.104 345.309 471.198 344.515 469.943C345.375 471.607 346.407 474.236 346.248 476.944C345.984 481.488 357.226 486.429 360.294 484.566C363.058 482.889 363.759 478.622 362.225 475.452Z" fill="#D9D9D9" stroke="#282828" stroke-miterlimit="10" stroke-linecap="round" stroke-linejoin="round"/>
<path d="M315.193 464.791C315.193 464.791 311.45 468.133 307.165 470.405C302.88 472.677 297.933 471.74 297.259 473.88C296.584 476.02 300.062 478.027 307.826 479.097C315.59 480.167 316.926 478.292 320.272 477.09C323.618 475.887 329.504 476.825 330.84 475.887C332.176 474.95 330.972 471.343 330.443 468.001C329.914 464.659 329.636 463.721 329.636 463.721C329.636 463.721 326.554 465.465 322.137 464.923C317.746 464.382 315.193 464.791 315.193 464.791Z" fill="#282828" stroke="#282828" stroke-miterlimit="10" stroke-linecap="round" stroke-linejoin="round"/>
<path d="M320.285 477.076C323.631 475.874 329.517 476.812 330.853 475.874C331.752 475.24 331.501 473.404 331.078 471.251C329.967 471.938 328.208 472.915 326.7 473.338C324.293 474.012 320.814 474.672 316.132 476.416C311.45 478.16 307.429 477.09 304.096 475.742C300.75 474.408 302.086 474.54 302.496 473.206C302.642 472.704 302.509 472.281 302.298 471.938C299.771 472.4 297.695 472.545 297.285 473.866C296.61 476.006 300.089 478.014 307.853 479.084C315.603 480.154 316.939 478.278 320.285 477.076Z" fill="#D9D9D9" stroke="#282828" stroke-miterlimit="10" stroke-linecap="round" stroke-linejoin="round"/>
<path d="M307.575 331.014C307.575 331.014 306.636 339.97 306.636 359.613C306.636 379.257 308.104 396.099 309.175 404.25C310.247 412.4 310.511 412.533 310.643 413.603C310.776 414.673 315.722 445.003 315.722 446.878C315.722 448.754 315.722 449.415 315.722 449.415C315.722 449.415 313.051 452.083 313.976 454.487C314.915 456.891 316.516 461.832 316.119 461.977C315.722 462.123 314.241 462.783 314.241 463.985C314.241 465.187 314.241 465.187 314.241 465.187C314.241 465.187 316.251 467.856 320.933 468.794C325.615 469.732 327.083 470.392 328.287 468.662C329.491 466.918 331.091 464.382 331.633 461.845C332.162 459.309 332.837 458.107 331.236 455.57C329.636 453.034 329.094 451.964 329.094 450.63C329.094 449.296 330.972 427.103 329.768 419.494C328.565 411.872 327.493 406.931 327.493 402.929C327.493 398.913 328.697 364.435 328.697 364.435C328.697 364.435 335.522 407.064 336.329 416.284C337.135 425.505 339.675 448.886 339.41 450.366C339.146 451.832 337.135 454.104 338.074 456.508C339.013 458.913 341.685 462.387 341.685 462.387C341.685 462.387 340.746 463.061 341.288 464.395C341.817 465.729 342.889 468.001 343.431 468.133C343.96 468.265 354.805 466.535 354.805 466.535C354.805 466.535 358.681 459.851 357.477 456.376C356.273 452.902 355.07 451.304 355.07 450.894C355.07 450.485 356.273 444.884 356.406 440.075C356.538 435.267 352.121 387.817 352.121 387.817C352.121 387.817 350.242 344.924 350.242 344.514C350.242 344.105 349.846 337.302 349.846 337.302C349.846 337.302 335.667 346.654 323.486 342.652C311.318 338.636 307.575 331.014 307.575 331.014Z" fill="#00CE00" stroke="#282828" stroke-miterlimit="10" stroke-linecap="round" stroke-linejoin="round"/>
<path d="M328.71 364.422L327.11 359.349" stroke="#282828" stroke-miterlimit="10" stroke-linecap="round" stroke-linejoin="round"/>
<path d="M329.107 360.683L323.354 357.209" stroke="#282828" stroke-miterlimit="10" stroke-linecap="round" stroke-linejoin="round"/>
<path d="M327.824 257.989C327.824 257.989 318.063 256.576 316.529 257.606C314.995 258.637 309.466 267.223 306.768 270.816C304.07 274.409 285.977 289.667 285.977 289.667L270.171 259.244C270.171 259.244 271.203 254.634 271.203 252.322C271.203 250.011 270.052 248.61 270.052 246.431C270.052 244.251 271.084 241.041 270.568 240.275C270.052 239.509 268.637 240.407 267.751 241.939C266.852 243.472 266.984 247.712 266.984 247.712C266.984 247.712 258.942 237.805 258.255 236.563C258.07 236.233 256.721 236.312 256.721 237.329C256.721 238.359 261.72 247.712 261.72 247.712C261.72 247.712 261.204 248.478 260.688 248.478C260.173 248.478 253.11 240.024 252.726 239.892C252.343 239.76 251.192 240.024 251.827 241.424C252.475 242.838 257.858 250.011 257.858 250.011C257.858 250.011 255.292 250.143 254.776 250.394C254.26 250.645 254.009 251.543 254.644 252.19C255.279 252.838 256.178 253.221 256.178 253.221C256.178 253.221 256.31 253.987 256.43 255.268C256.562 256.549 256.297 257.699 258.228 259.376C260.159 261.041 262.077 262.071 262.725 262.203C263.373 262.335 277.115 302.626 279.297 306.219C281.48 309.812 282.511 309.931 284.945 309.297C287.379 308.649 311.384 290.71 311.384 290.71C311.384 290.71 310.352 323.656 309.202 325.968C308.051 328.279 306.768 328.279 306.768 329.812C306.768 331.344 307.284 333.788 307.284 333.788C307.284 333.788 313.699 344.554 326.792 344.937C339.886 345.32 351.816 340.063 351.816 337.632C351.816 335.201 350.917 333.656 350.917 333.141C350.917 332.626 352.451 330.195 352.2 328.649C351.949 327.117 351.049 326.721 351.3 324.422C351.552 322.11 362.596 289.165 363.111 279.046C363.627 268.914 363.759 268.148 361.313 266.351C358.879 264.555 349.885 263.022 349.885 263.022L334.741 259.178L328.71 258.663L327.824 257.989Z" fill="#D9D9D9" stroke="#282828" stroke-miterlimit="10" stroke-linecap="round" stroke-linejoin="round"/>
<path d="M363.125 279.006C363.64 268.874 363.773 268.108 361.326 266.312C358.892 264.515 349.898 262.983 349.898 262.983L334.755 259.139L328.724 258.624L327.824 257.976C327.824 257.976 318.063 256.563 316.529 257.593C314.995 258.624 309.466 267.21 306.768 270.803C304.07 274.396 285.977 289.654 285.977 289.654L280.699 278.927L271.018 285.374C274.986 295.836 278.464 304.805 279.297 306.193C281.48 309.786 282.511 309.905 284.945 309.27C287.379 308.623 311.384 290.684 311.384 290.684C311.384 290.684 310.352 323.63 309.202 325.941C308.051 328.253 306.768 328.253 306.768 329.785C306.768 331.318 307.284 333.762 307.284 333.762C307.284 333.762 313.699 344.528 326.793 344.911C339.886 345.294 351.816 340.036 351.816 337.606C351.816 335.175 350.917 333.63 350.917 333.114C350.917 332.599 352.451 330.169 352.2 328.623C351.949 327.091 351.049 326.694 351.3 324.396C351.578 322.084 362.609 289.138 363.125 279.006Z" fill="#282828" stroke="#282828" stroke-miterlimit="10" stroke-linecap="round" stroke-linejoin="round"/>
<path d="M311.463 275.519L311.397 290.671L308.183 275.664" stroke="#D9D9D9" stroke-width="0.75" stroke-miterlimit="10" stroke-linecap="round" stroke-linejoin="round"/>
<path d="M308.779 334.62C308.779 334.62 327.242 340.631 348.113 333.418" stroke="#D9D9D9" stroke-width="0.75" stroke-miterlimit="10" stroke-linecap="round" stroke-linejoin="round"/>
<path d="M338.048 340.578C339.304 340.419 340.614 340.221 341.963 339.97" stroke="#D9D9D9" stroke-width="0.75" stroke-miterlimit="10" stroke-linecap="round" stroke-linejoin="round"/>
<path d="M312.257 336.364C312.257 336.364 319.333 341.133 332.189 340.974" stroke="#D9D9D9" stroke-width="0.75" stroke-miterlimit="10" stroke-linecap="round" stroke-linejoin="round"/>
<path d="M266.971 247.686C266.971 247.686 266.931 248.98 266.151 250.262C265.384 251.543 264.405 252.032 264.273 254.343C264.14 256.655 265.688 257.804 265.688 257.804" stroke="#282828" stroke-miterlimit="10" stroke-linecap="round" stroke-linejoin="round"/>
<path d="M258.757 251.398C258.757 251.398 253.626 247.805 252.594 248.452C251.562 249.099 251.06 251.015 252.21 252.045C253.361 253.075 258.374 253.841 259.273 253.326C260.173 252.811 259.577 251.926 258.757 251.398Z" fill="#D9D9D9" stroke="#282828" stroke-miterlimit="10" stroke-linecap="round" stroke-linejoin="round"/>
<path d="M260.344 255.374C260.344 255.374 256.747 254.608 255.887 254.462C255.028 254.317 254.499 254.793 254.551 255.704C254.604 256.616 255.504 257.184 256.906 257.236C258.294 257.289 261.363 257.804 261.508 256.47C261.641 255.136 260.344 255.374 260.344 255.374Z" fill="#D9D9D9" stroke="#282828" stroke-miterlimit="10" stroke-linecap="round" stroke-linejoin="round"/>
<path d="M334.794 250.526C334.794 250.526 341.963 250.301 344.383 249.139" stroke="#282828" stroke-miterlimit="10" stroke-linecap="round" stroke-linejoin="round"/>
<path d="M351.327 273.419C351.327 273.419 336.739 288.253 332.056 293.868C327.374 299.482 321.357 304.422 321.357 304.422L289.019 282.956C289.019 282.956 286.612 279.35 285.672 277.342C284.733 275.334 283.265 274.806 282.062 271.728C280.858 268.65 279.655 266.655 278.716 268.782C277.776 270.922 278.186 271.582 278.716 272.652C279.245 273.722 281.123 276.932 281.123 276.932C281.123 276.932 273.094 273.722 270.291 272.52C267.487 271.318 264.537 270.922 264.405 271.992C264.273 273.062 264.802 272.93 266.151 273.458C267.487 273.987 275.779 278.531 275.779 278.531L274.973 278.927C274.973 278.927 263.995 276.919 262.937 276.787C261.865 276.655 262.13 278.121 262.937 278.531C263.744 278.927 267.883 280.935 267.883 280.935C267.883 280.935 266.944 281.741 268.016 283.207C269.087 284.673 271.494 286.417 271.494 286.417C271.494 286.417 271.891 288.161 272.962 288.954C274.033 289.759 280.99 289.627 283.94 289.891C286.889 290.156 288.225 290.829 288.225 290.829C288.225 290.829 322.309 319.904 324.584 319.904C326.859 319.904 358.575 289.971 362.053 285.559C365.532 281.146 368.071 273.392 365.929 269.786C363.786 266.18 360.44 265.374 358.297 266.18" fill="#D9D9D9"/>
<path d="M351.327 273.419C351.327 273.419 336.739 288.253 332.056 293.868C327.374 299.482 321.357 304.422 321.357 304.422L289.019 282.956C289.019 282.956 286.612 279.35 285.672 277.342C284.733 275.334 283.265 274.806 282.062 271.728C280.858 268.65 279.655 266.655 278.716 268.782C277.776 270.922 278.186 271.582 278.716 272.652C279.245 273.722 281.123 276.932 281.123 276.932C281.123 276.932 273.094 273.722 270.291 272.52C267.487 271.318 264.537 270.922 264.405 271.992C264.273 273.062 264.802 272.93 266.151 273.458C267.487 273.987 275.779 278.531 275.779 278.531L274.973 278.927C274.973 278.927 263.995 276.919 262.937 276.787C261.865 276.655 262.13 278.121 262.937 278.531C263.744 278.927 267.883 280.935 267.883 280.935C267.883 280.935 266.944 281.741 268.016 283.207C269.087 284.673 271.494 286.417 271.494 286.417C271.494 286.417 271.891 288.161 272.962 288.954C274.033 289.759 280.99 289.627 283.94 289.891C286.889 290.156 288.225 290.829 288.225 290.829C288.225 290.829 322.309 319.904 324.584 319.904C326.859 319.904 358.575 289.971 362.053 285.559C365.532 281.146 368.071 273.392 365.929 269.786C363.786 266.18 360.44 265.374 358.297 266.18" stroke="#282828" stroke-miterlimit="10" stroke-linecap="round" stroke-linejoin="round"/>
<path d="M267.87 280.948C267.87 280.948 272.155 282.415 273.491 282.824L267.87 280.948Z" fill="#D9D9D9"/>
<path d="M267.87 280.948C267.87 280.948 272.155 282.415 273.491 282.824" stroke="#282828" stroke-miterlimit="10" stroke-linecap="round" stroke-linejoin="round"/>
<path d="M271.481 286.43L274.298 286.827" stroke="#282828" stroke-miterlimit="10" stroke-linecap="round" stroke-linejoin="round"/>
<path d="M351.327 273.419C351.327 273.419 336.738 288.253 332.056 293.868C327.374 299.482 321.357 304.422 321.357 304.422L312.707 298.835L307.813 308.002C316.344 314.515 323.658 319.918 324.557 319.918C326.832 319.918 358.548 289.984 362.027 285.572C365.505 281.16 368.045 273.405 365.902 269.799C363.759 266.193 360.413 265.387 358.271 266.193L356.326 267.408" fill="#282828"/>
<path d="M351.327 273.419C351.327 273.419 336.738 288.253 332.056 293.868C327.374 299.482 321.357 304.422 321.357 304.422L312.707 298.835L307.813 308.002C316.344 314.515 323.658 319.918 324.557 319.918C326.832 319.918 358.548 289.984 362.027 285.572C365.505 281.16 368.045 273.405 365.902 269.799C363.759 266.193 360.413 265.387 358.271 266.193L356.326 267.408" stroke="#D9D9D9" stroke-width="0.75" stroke-miterlimit="10" stroke-linecap="round" stroke-linejoin="round"/>
<path d="M349.898 262.983L334.755 259.139L329.94 258.716L327.824 257.989C327.824 257.989 326.726 257.831 325.205 257.659L324.822 287.051L355.043 264.066C352.359 263.406 349.898 262.983 349.898 262.983Z" fill="#D9D9D9" stroke="#282828" stroke-miterlimit="10" stroke-linecap="round" stroke-linejoin="round"/>
<path d="M346.116 215.929C342.968 215.982 339.714 216.933 337.572 219.152C334.107 222.732 333.882 225.031 332.493 226.299C331.104 227.567 328.446 227.448 326.607 231.371C324.756 235.295 323.367 243.485 323.724 246.14C324.068 248.795 326.382 249.601 328.578 249.945C330.774 250.288 334.821 250.526 334.821 250.526C334.821 250.526 334.226 259.191 333.67 259.059C332.943 258.888 329.98 258.716 329.98 258.716C329.98 258.716 329.398 272.216 329.292 275.559C329.173 278.901 329.173 278.901 329.173 278.901L350.269 262.956L346.156 261.252C346.156 261.252 346.275 256.985 347.425 253.406C348.576 249.826 349.846 247.527 349.846 247.527C349.846 247.527 356.432 245.334 360.016 240.381C362.887 236.404 362.807 230.711 361.233 226.246C359.355 220.896 354.872 217.105 349.25 216.167C348.219 215.982 347.174 215.902 346.116 215.929Z" fill="#D9D9D9" stroke="#282828" stroke-miterlimit="10" stroke-linecap="round" stroke-linejoin="round"/>
<path d="M334.556 229.073C334.556 229.073 332.599 231.266 330.747 232.415C328.895 233.564 330.284 235.757 332.599 236.563C334.913 237.369 335.601 236.338 335.601 236.338" stroke="#282828" stroke-miterlimit="10" stroke-linecap="round" stroke-linejoin="round"/>
<path d="M335.945 240.381C335.945 240.381 331.21 239.694 329.014 237.606C329.014 237.606 329.477 239.799 331.554 240.381C333.63 240.949 335.945 240.381 335.945 240.381Z" stroke="#282828" stroke-width="0.75" stroke-miterlimit="10" stroke-linecap="round" stroke-linejoin="round"/>
<path d="M342.651 226.074C342.651 226.074 345.309 226.761 345.653 229.76" stroke="#282828" stroke-miterlimit="10" stroke-linecap="round" stroke-linejoin="round"/>
<path d="M338.722 224.225C338.722 224.225 336.765 222.494 334.569 224" stroke="#282828" stroke-miterlimit="10" stroke-linecap="round" stroke-linejoin="round"/>
<path d="M340.561 230.566C340.071 231.345 339.384 231.807 339.027 231.583C338.67 231.358 338.789 230.552 339.291 229.773C339.781 228.994 340.468 228.531 340.825 228.756C341.169 228.967 341.063 229.786 340.561 230.566Z" fill="#282828"/>
<path d="M333.987 227.342C333.498 228.122 332.81 228.584 332.453 228.359C332.096 228.135 332.215 227.329 332.718 226.55C333.207 225.77 333.895 225.308 334.252 225.533C334.596 225.744 334.477 226.55 333.987 227.342Z" fill="#282828"/>
<path d="M338.021 232.64C338.021 232.64 341.606 232.758 342.756 234.145" stroke="#282828" stroke-width="0.75" stroke-miterlimit="10" stroke-linecap="round" stroke-linejoin="round"/>
<path d="M361.194 226.233C359.315 220.883 354.832 217.091 349.211 216.154C348.219 215.982 347.174 215.903 346.116 215.929C344.939 215.955 343.748 216.101 342.611 216.378C342.942 216.722 343.1 217.25 344.264 218.109C345.322 218.888 348.311 218.571 351.539 219.958C354.779 221.345 356.736 225.955 354.66 228.729C352.583 231.503 350.441 228.069 349.396 230.605C349.052 231.451 348.602 232.891 348.179 234.462C348.153 234.912 348.179 235.361 348.272 235.717C348.642 237.091 349.515 237.712 349.026 238.333C348.523 238.954 347.782 239.707 347.782 240.579C347.782 240.83 347.901 241.041 348.06 241.213C350.018 240.42 354.144 239.086 354.673 241.543C355.361 244.779 352.597 246.391 350.401 246.735C348.206 247.078 345.322 246.048 345.322 246.048C345.322 246.048 346.116 247.923 349.449 248.293C349.687 247.818 349.832 247.54 349.832 247.54C349.832 247.54 356.419 245.347 360.003 240.394C362.847 236.391 362.754 230.698 361.194 226.233Z" fill="#282828" stroke="#282828" stroke-miterlimit="10" stroke-linecap="round" stroke-linejoin="round"/>
</g>
<path d="M347.796 112.403C347.796 92.9179 331.977 77.132 312.482 77.132C310.419 77.132 308.408 77.317 306.451 77.6604C306.266 50.1045 283.847 27.8061 256.205 27.8061C228.628 27.8061 206.236 49.9988 205.959 77.4755C204.358 77.2509 202.731 77.132 201.065 77.132C181.556 77.132 165.751 92.9311 165.751 112.403C165.751 131.174 180.419 146.511 198.936 147.607V147.686H314.598V147.607C333.128 146.511 347.796 131.161 347.796 112.403Z" fill="#D9D9D9" stroke="#282828" stroke-miterlimit="10" stroke-linecap="round" stroke-linejoin="round"/>
<path d="M274.959 111.082L252.515 92.4556L230.07 111.082H235.003V170.975H270.039V111.082H274.959Z" fill="#282828"/>
<path d="M256.43 159.43C255.57 159.43 254.842 160.13 254.803 160.989L254.71 163.115H228.443L226.896 199.905H277.353L278.517 172.019L278.901 163.115L279.059 159.443H256.43V159.43Z" fill="#00CE00" stroke="#282828" stroke-miterlimit="10" stroke-linecap="round" stroke-linejoin="round"/>
<path d="M277.34 199.892L277.128 165.665H228.641L229.025 199.469L277.34 199.892Z" fill="#D9D9D9" stroke="#282828" stroke-miterlimit="10" stroke-linecap="round" stroke-linejoin="round"/>
<path d="M277.34 199.892L275.144 165.665H226.658L227.041 199.469L277.34 199.892Z" fill="#D9D9D9" stroke="#282828" stroke-miterlimit="10" stroke-linecap="round" stroke-linejoin="round"/>
<path d="M226.896 199.892L220.15 164.608H270.912L277.34 199.892H226.896Z" fill="#00CE00" stroke="#282828" stroke-miterlimit="10" stroke-linecap="round" stroke-linejoin="round"/>
<path d="M231.829 153.208V155.559" stroke="#282828" stroke-miterlimit="10" stroke-linecap="round" stroke-linejoin="round"/>
<path d="M231.829 140.13V150.844" stroke="#282828" stroke-miterlimit="10" stroke-linecap="round" stroke-linejoin="round"/>
<path d="M273.068 128.77V137.766" stroke="#282828" stroke-miterlimit="10" stroke-linecap="round" stroke-linejoin="round"/>
<path d="M257.395 201.451V210.447" stroke="#282828" stroke-miterlimit="10" stroke-linecap="round" stroke-linejoin="round"/>
<path d="M276.943 215.149V235.519" stroke="#282828" stroke-miterlimit="10" stroke-linecap="round" stroke-linejoin="round"/>
<path d="M276.943 208.082V211.939" stroke="#282828" stroke-miterlimit="10" stroke-linecap="round" stroke-linejoin="round"/>
<path d="M230.797 207.224V214.502" stroke="#282828" stroke-miterlimit="10" stroke-linecap="round" stroke-linejoin="round"/>
<path d="M235.519 240.869V242.587" stroke="#282828" stroke-miterlimit="10" stroke-linecap="round" stroke-linejoin="round"/>
<path d="M235.519 211.715V238.518" stroke="#282828" stroke-miterlimit="10" stroke-linecap="round" stroke-linejoin="round"/>
<path d="M481.154 154.899C481.154 143.446 471.857 134.159 460.389 134.159C459.186 134.159 457.996 134.265 456.845 134.463C456.739 118.255 443.553 105.15 427.311 105.15C411.096 105.15 397.936 118.202 397.777 134.357C396.838 134.225 395.886 134.159 394.907 134.159C383.44 134.159 374.142 143.446 374.142 154.899C374.142 165.929 382.765 174.952 393.65 175.599V175.639H461.646V175.599C472.518 174.952 481.154 165.929 481.154 154.899Z" fill="#D9D9D9" stroke="#282828" stroke-miterlimit="10" stroke-linecap="round" stroke-linejoin="round"/>
<path d="M405.369 44.0675C405.369 37.6079 400.131 32.3767 393.664 32.3767C392.976 32.3767 392.315 32.4428 391.667 32.5485C391.6 23.4204 384.181 16.0228 375.015 16.0228C365.876 16.0228 358.456 23.3808 358.363 32.4824C357.834 32.4032 357.292 32.3635 356.75 32.3635C350.282 32.3635 345.044 37.5947 345.044 44.0543C345.044 50.2762 349.912 55.362 356.035 55.7187V55.7451H394.365V55.7187C400.502 55.362 405.369 50.2894 405.369 44.0675Z" fill="#D9D9D9" stroke="#282828" stroke-miterlimit="10" stroke-linecap="round" stroke-linejoin="round"/>
</svg>
