<svg width="785" height="785" viewBox="0 0 785 785" fill="none" xmlns="http://www.w3.org/2000/svg">
<path d="M663.184 282.663C666.748 245.846 675.273 210.977 660.201 175.542C632.522 110.481 549.092 75.988 484.251 106.776C451.092 122.523 422.738 145.429 386.22 153.86C287.655 176.609 135.522 55.4053 81.8755 196.517C63.4751 244.92 70.8541 308.741 104.185 349.199C114.877 362.183 127.939 373.503 135.852 388.34C157.502 428.987 126.856 473.653 112.977 511.569C80.1642 601.169 203.896 650.749 271.029 659.887C382.091 675.021 473.653 547.93 584.04 599.74C660.97 635.85 728.48 547.93 714.35 460.01C705.103 402.454 658.285 347.363 662.666 288.707C662.823 286.682 662.995 284.657 663.184 282.663Z" fill="#00CE00"/>
<path opacity="0.7" d="M663.184 282.663C666.748 245.846 675.273 210.977 660.201 175.542C632.522 110.481 549.092 75.988 484.251 106.776C451.092 122.523 422.738 145.429 386.22 153.86C287.655 176.609 135.522 55.4053 81.8755 196.517C63.4751 244.92 70.8541 308.741 104.185 349.199C114.877 362.183 127.939 373.503 135.852 388.34C157.502 428.987 126.856 473.653 112.977 511.569C80.1642 601.169 203.896 650.749 271.029 659.887C382.091 675.021 473.653 547.93 584.04 599.74C660.97 635.85 728.48 547.93 714.35 460.01C705.103 402.454 658.285 347.363 662.666 288.707C662.823 286.682 662.995 284.657 663.184 282.663Z" fill="#D9D9D9"/>
<path d="M134.659 306.558C164.599 306.558 188.871 282.287 188.871 252.346C188.871 222.406 164.599 198.134 134.659 198.134C104.718 198.134 80.4468 222.406 80.4468 252.346C80.4468 282.287 104.718 306.558 134.659 306.558Z" fill="#D9D9D9" stroke="#282828" stroke-miterlimit="10" stroke-linecap="round" stroke-linejoin="round"/>
<path d="M130.624 301.173C160.564 301.173 184.836 276.902 184.836 246.961C184.836 217.021 160.564 192.749 130.624 192.749C100.683 192.749 76.4119 217.021 76.4119 246.961C76.4119 276.902 100.683 301.173 130.624 301.173Z" fill="#D9D9D9" stroke="#282828" stroke-miterlimit="10" stroke-linecap="round" stroke-linejoin="round"/>
<path d="M130.624 295.788C157.59 295.788 179.451 273.927 179.451 246.961C179.451 219.995 157.59 198.134 130.624 198.134C103.658 198.134 81.797 219.995 81.797 246.961C81.797 273.927 103.658 295.788 130.624 295.788Z" fill="#282828" stroke="#282828" stroke-miterlimit="10" stroke-linecap="round" stroke-linejoin="round"/>
<path d="M124.893 210.255C124.893 210.255 119.508 196.784 110.073 187.364C100.637 177.944 62.2662 171.868 62.2662 171.868C62.2662 171.868 70.3517 179.278 79.0966 191.399C87.8572 203.519 116.808 231.136 116.808 231.136C116.808 231.136 102.662 219.015 89.8668 217.665C77.0713 216.315 44.745 223.05 42.7354 223.05C40.7101 223.05 54.8558 228.435 64.9509 233.145C75.046 237.855 114.108 241.906 114.108 241.906C114.108 241.906 97.2772 246.616 85.8319 250.666C74.3866 254.701 63.6164 284.343 63.6164 284.343C63.6164 284.343 78.4372 270.872 91.2327 267.512C104.028 264.153 122.209 258.092 122.209 258.092C122.209 258.092 110.763 270.888 108.063 279.648C105.363 288.409 107.388 308.599 107.388 308.599C107.388 308.599 113.448 289.744 120.859 282.333C128.269 274.923 136.354 262.127 136.354 262.127C136.354 262.127 141.064 269.538 146.45 280.983C151.835 292.428 155.21 309.259 155.21 309.259C155.21 309.259 163.971 290.403 163.296 280.983C162.621 271.563 152.525 254.717 152.525 254.717C152.525 254.717 159.261 250.007 169.356 254.042C179.451 258.077 196.972 274.923 196.972 274.923C196.972 274.923 192.937 252.707 186.202 243.947C179.467 235.186 150.516 232.501 150.516 232.501C150.516 232.501 166.671 223.081 176.782 221.056C186.877 219.031 200.348 223.757 200.348 223.757C200.348 223.757 184.852 202.2 172.731 200.866C160.611 199.516 142.43 218.371 142.43 218.371C142.43 218.371 146.465 198.166 147.815 191.43C149.166 184.695 146.465 167.865 146.465 167.865C146.465 167.865 139.055 171.899 130.31 184.695C121.534 197.459 124.893 210.255 124.893 210.255Z" fill="#00CE00"/>
<path opacity="0.5" d="M124.893 210.255C124.893 210.255 119.508 196.784 110.073 187.364C100.637 177.944 62.2662 171.868 62.2662 171.868C62.2662 171.868 70.3517 179.278 79.0966 191.399C87.8572 203.519 116.808 231.136 116.808 231.136C116.808 231.136 102.662 219.015 89.8668 217.665C77.0713 216.315 44.745 223.05 42.7354 223.05C40.7101 223.05 54.8558 228.435 64.9509 233.145C75.046 237.855 114.108 241.906 114.108 241.906C114.108 241.906 97.2772 246.616 85.8319 250.666C74.3866 254.701 63.6164 284.343 63.6164 284.343C63.6164 284.343 78.4372 270.872 91.2327 267.512C104.028 264.153 122.209 258.092 122.209 258.092C122.209 258.092 110.763 270.888 108.063 279.648C105.363 288.409 107.388 308.599 107.388 308.599C107.388 308.599 113.448 289.744 120.859 282.333C128.269 274.923 136.354 262.127 136.354 262.127C136.354 262.127 141.064 269.538 146.45 280.983C151.835 292.428 155.21 309.259 155.21 309.259C155.21 309.259 163.971 290.403 163.296 280.983C162.621 271.563 152.525 254.717 152.525 254.717C152.525 254.717 159.261 250.007 169.356 254.042C179.451 258.077 196.972 274.923 196.972 274.923C196.972 274.923 192.937 252.707 186.202 243.947C179.467 235.186 150.516 232.501 150.516 232.501C150.516 232.501 166.671 223.081 176.782 221.056C186.877 219.031 200.348 223.757 200.348 223.757C200.348 223.757 184.852 202.2 172.731 200.866C160.611 199.516 142.43 218.371 142.43 218.371C142.43 218.371 146.465 198.166 147.815 191.43C149.166 184.695 146.465 167.865 146.465 167.865C146.465 167.865 139.055 171.899 130.31 184.695C121.534 197.459 124.893 210.255 124.893 210.255Z" fill="#282828"/>
<path d="M138.16 189.75C138.631 187.819 139.149 185.888 139.714 183.989" stroke="#282828" stroke-width="0.5" stroke-miterlimit="10" stroke-linecap="round" stroke-linejoin="round"/>
<path d="M93.1794 189.75C99.4908 194.35 107.372 200.693 111.423 206.22C118.833 216.315 133.638 237.871 133.638 237.871C133.638 237.871 132.649 216.519 137.061 194.696" stroke="#282828" stroke-width="0.5" stroke-miterlimit="10" stroke-linecap="round" stroke-linejoin="round"/>
<path d="M83.8223 183.313C83.8223 183.313 85.7848 184.554 88.7207 186.579" stroke="#282828" stroke-width="0.5" stroke-miterlimit="10" stroke-linecap="round" stroke-linejoin="round"/>
<path d="M133.654 237.871C133.654 237.871 159.245 212.28 170.015 210.255C180.785 208.229 190.221 216.315 190.221 216.315" stroke="#282828" stroke-width="0.5" stroke-miterlimit="10" stroke-linecap="round" stroke-linejoin="round"/>
<path d="M87.92 259.27C81.6871 263.242 81.1376 265.487 81.1376 265.487" stroke="#282828" stroke-width="0.5" stroke-miterlimit="10" stroke-linecap="round" stroke-linejoin="round"/>
<path d="M189.546 261.437C189.546 261.437 185.511 251.342 171.365 246.616C157.22 241.906 135.004 241.231 135.004 241.231C135.004 241.231 103.84 251.436 92.4416 256.758" stroke="#282828" stroke-width="0.5" stroke-miterlimit="10" stroke-linecap="round" stroke-linejoin="round"/>
<path d="M121.392 237.384C128.913 239.566 134.989 241.231 134.989 241.231" stroke="#282828" stroke-width="0.5" stroke-miterlimit="10" stroke-linecap="round" stroke-linejoin="round"/>
<path d="M73.9626 225.421C81.2788 225.86 90.6988 226.865 95.9426 229.11C100.213 230.947 108.644 233.6 116.572 235.971" stroke="#282828" stroke-width="0.5" stroke-miterlimit="10" stroke-linecap="round" stroke-linejoin="round"/>
<path d="M63.6164 225.075C63.6164 225.075 66.0813 225.075 69.708 225.216" stroke="#282828" stroke-width="0.5" stroke-miterlimit="10" stroke-linecap="round" stroke-linejoin="round"/>
<path d="M133.654 245.266C133.654 245.266 114.798 273.541 113.448 280.277C112.098 287.012 112.098 292.397 112.098 292.397" stroke="#282828" stroke-width="0.5" stroke-miterlimit="10" stroke-linecap="round" stroke-linejoin="round"/>
<path d="M142.038 254.167C145.665 258.862 150.029 265.11 151.835 270.181C155.194 279.601 156.545 289.037 156.545 289.037" stroke="#282828" stroke-width="0.5" stroke-miterlimit="10" stroke-linecap="round" stroke-linejoin="round"/>
<path d="M136.339 247.291C136.339 247.291 137.83 248.955 139.918 251.514" stroke="#282828" stroke-width="0.5" stroke-miterlimit="10" stroke-linecap="round" stroke-linejoin="round"/>
<path d="M116.337 216.063C116.337 216.063 112.852 201.981 115.018 188.824C117.185 175.667 144.817 148.349 144.817 148.349C144.817 148.349 142.572 159.072 142.54 174.035C142.493 188.981 135.083 228.309 135.083 228.309C135.083 228.309 139.494 210.207 149.103 201.651C158.711 193.094 188.887 179.718 190.535 178.525C192.184 177.347 183.831 189.97 178.383 199.688C172.935 209.407 143.561 235.469 143.561 235.469C143.561 235.469 159.983 229.471 171.648 226.08C183.297 222.689 209.344 240.461 209.344 240.461C209.344 240.461 189.452 238.169 177.096 242.895C164.74 247.62 146.434 253.304 146.434 253.304C146.434 253.304 163.201 257.025 170.486 262.567C177.787 268.109 187.929 285.693 187.929 285.693C187.929 285.693 172.009 273.918 161.663 272.222C151.332 270.527 137.296 264.843 137.296 264.843C137.296 264.843 137.783 273.604 140.091 286.054C142.399 298.488 149.48 314.141 149.48 314.141C149.48 314.141 131.378 303.936 126.416 295.882C121.471 287.828 119.854 268.266 119.854 268.266C119.854 268.266 111.627 268.36 105.787 277.545C99.9305 286.713 95.5345 310.609 95.5345 310.609C95.5345 310.609 85.8476 290.199 86.2244 279.162C86.5855 268.125 108.534 249.049 108.534 249.049C108.534 249.049 89.9139 250.823 80.5253 255.062C71.1367 259.317 62.957 270.998 62.957 270.998C62.957 270.998 62.9727 244.465 72.0316 236.301C81.0905 228.137 106.854 232.847 106.854 232.847C106.854 232.847 91.7822 218.795 86.7739 214.117C81.7499 209.438 74.1197 194.193 74.1197 194.193C74.1197 194.193 82.4878 193.157 97.0731 198.448C111.611 203.692 116.337 216.063 116.337 216.063Z" fill="#00CE00"/>
<path d="M93.6033 207.146C92.0961 205.843 90.5575 204.587 88.9875 203.362" stroke="#282828" stroke-width="0.5" stroke-miterlimit="10" stroke-linecap="round" stroke-linejoin="round"/>
<path d="M130.137 180.911C127.704 188.322 124.988 198.071 124.925 204.916C124.799 217.445 125.333 243.586 125.333 243.586C125.333 243.586 113.684 225.656 97.3714 210.506" stroke="#282828" stroke-width="0.5" stroke-miterlimit="10" stroke-linecap="round" stroke-linejoin="round"/>
<path d="M133.999 170.219C133.999 170.219 133.12 172.386 131.927 175.73" stroke="#282828" stroke-width="0.5" stroke-miterlimit="10" stroke-linecap="round" stroke-linejoin="round"/>
<path d="M125.333 243.586C125.333 243.586 89.6156 237.729 79.6931 242.377C69.7707 247.024 66.8192 259.081 66.8192 259.081" stroke="#282828" stroke-width="0.5" stroke-miterlimit="10" stroke-linecap="round" stroke-linejoin="round"/>
<path d="M174.976 234.291C182.355 233.883 184.114 235.375 184.114 235.375" stroke="#282828" stroke-width="0.5" stroke-miterlimit="10" stroke-linecap="round" stroke-linejoin="round"/>
<path d="M93.6819 295.333C93.6819 295.333 91.0757 284.767 99.8049 272.693C108.55 260.62 126.197 247.102 126.197 247.102C126.197 247.102 157.455 237.211 169.811 234.888" stroke="#282828" stroke-width="0.5" stroke-miterlimit="10" stroke-linecap="round" stroke-linejoin="round"/>
<path d="M135.004 236.05C130.169 242.22 126.197 247.102 126.197 247.102" stroke="#282828" stroke-width="0.5" stroke-miterlimit="10" stroke-linecap="round" stroke-linejoin="round"/>
<path d="M166.561 198.668C160.878 203.299 153.813 209.595 150.861 214.478C148.459 218.45 143.168 225.531 138.097 232.078" stroke="#282828" stroke-width="0.5" stroke-miterlimit="10" stroke-linecap="round" stroke-linejoin="round"/>
<path d="M174.757 192.341C174.757 192.341 172.763 193.77 169.89 196.015" stroke="#282828" stroke-width="0.5" stroke-miterlimit="10" stroke-linecap="round" stroke-linejoin="round"/>
<path d="M129.651 249.615C129.651 249.615 161.459 261.594 166.483 266.272C171.507 270.951 174.647 275.331 174.647 275.331" stroke="#282828" stroke-width="0.5" stroke-miterlimit="10" stroke-linecap="round" stroke-linejoin="round"/>
<path d="M128.033 261.719C127.814 267.638 127.924 275.268 129.415 280.449C132.178 290.073 136.59 298.52 136.59 298.52" stroke="#282828" stroke-width="0.5" stroke-miterlimit="10" stroke-linecap="round" stroke-linejoin="round"/>
<path d="M128.646 252.817C128.646 252.817 128.395 255.047 128.206 258.344" stroke="#282828" stroke-width="0.5" stroke-miterlimit="10" stroke-linecap="round" stroke-linejoin="round"/>
<path d="M575.405 553.849H222.673C212.562 553.849 204.351 545.654 204.351 535.527V304.737C204.351 295.49 211.856 287.985 221.103 287.985H576.975C586.222 287.985 593.727 295.49 593.727 304.737V535.527C593.727 545.638 585.516 553.849 575.405 553.849Z" fill="#D9D9D9" stroke="#282828" stroke-miterlimit="10" stroke-linecap="round" stroke-linejoin="round"/>
<path d="M351.35 314.157H329.433V328.554H351.35V314.157Z" fill="#282828"/>
<path d="M280.339 402.972H259.992V423.162H280.339V402.972Z" fill="#282828"/>
<path d="M370.237 332.008H349.733V352.198H370.237V332.008Z" fill="#282828"/>
<path d="M325.963 314.157H304.046V328.554H325.963V314.157Z" fill="#282828"/>
<path d="M394.196 332.008H373.691V352.198H394.196V332.008Z" fill="#282828"/>
<path d="M376.722 314.157H354.804V328.554H376.722V314.157Z" fill="#282828"/>
<path d="M268.046 379.312H229.487V399.502H268.046V379.312Z" fill="#282828"/>
<path d="M322.305 332.008H301.801V352.198H322.305V332.008Z" fill="#282828"/>
<path d="M256.538 402.972H229.487V423.162H256.538V402.972Z" fill="#282828"/>
<path d="M402.108 314.157H380.191V328.554H402.108V314.157Z" fill="#282828"/>
<path d="M274.373 332.008H253.869V352.198H274.373V332.008Z" fill="#282828"/>
<path d="M275.205 314.157H253.288V328.554H275.205V314.157Z" fill="#282828"/>
<path d="M300.592 314.157H278.675V328.554H300.592V314.157Z" fill="#282828"/>
<path d="M298.331 332.008H277.827V352.198H298.331V332.008Z" fill="#282828"/>
<path d="M346.263 332.008H325.759V352.198H346.263V332.008Z" fill="#282828"/>
<path d="M503.64 314.157H481.723V328.554H503.64V314.157Z" fill="#282828"/>
<path d="M529.011 314.157H507.094V328.554H529.011V314.157Z" fill="#282828"/>
<path d="M514.034 332.008H493.53V352.198H514.034V332.008Z" fill="#282828"/>
<path d="M538.008 332.008H517.503V352.198H538.008V332.008Z" fill="#282828"/>
<path d="M575.923 402.972H545.732V423.162H575.923V402.972Z" fill="#282828"/>
<path d="M554.398 314.157H532.481V328.554H554.398V314.157Z" fill="#282828"/>
<path d="M250.415 332.008H229.487V352.198H250.415V332.008Z" fill="#282828"/>
<path d="M427.495 314.157H405.578V328.554H427.495V314.157Z" fill="#282828"/>
<path d="M452.866 314.157H430.949V328.554H452.866V314.157Z" fill="#282828"/>
<path d="M442.143 332.008H421.639V352.198H442.143V332.008Z" fill="#282828"/>
<path d="M490.075 332.008H469.571V352.198H490.075V332.008Z" fill="#282828"/>
<path d="M418.17 332.008H397.665V352.198H418.17V332.008Z" fill="#282828"/>
<path d="M466.102 332.008H445.597V352.198H466.102V332.008Z" fill="#282828"/>
<path d="M478.253 314.157H456.336V328.554H478.253V314.157Z" fill="#282828"/>
<path d="M447.026 402.972H426.679V423.162H447.026V402.972Z" fill="#282828"/>
<path d="M553.786 379.312H533.439V399.502H553.786V379.312Z" fill="#282828"/>
<path d="M529.969 379.312H509.622V399.502H529.969V379.312Z" fill="#282828"/>
<path d="M542.262 402.972H521.915V423.162H542.262V402.972Z" fill="#282828"/>
<path d="M518.461 402.972H498.114V423.162H518.461V402.972Z" fill="#282828"/>
<path d="M470.827 402.972H450.48V423.162H470.827V402.972Z" fill="#282828"/>
<path d="M494.644 402.972H474.297V423.162H494.644V402.972Z" fill="#282828"/>
<path d="M506.152 379.312H485.805V399.502H506.152V379.312Z" fill="#282828"/>
<path d="M482.351 379.312H462.004V399.502H482.351V379.312Z" fill="#282828"/>
<path d="M575.939 314.157H557.868V328.554H575.939V314.157Z" fill="#282828"/>
<path d="M249.834 314.157H229.487V328.554H249.834V314.157Z" fill="#282828"/>
<path d="M575.939 426.616H229.487V447.607H575.939V426.616Z" fill="#282828"/>
<path d="M575.923 332.008H541.462V352.198H575.923V332.008Z" fill="#282828"/>
<path d="M575.923 379.312H557.24V399.502H575.923V379.312Z" fill="#282828"/>
<path d="M551.494 375.701H548.024V355.668H527.677V375.701H524.223V355.668H503.86V375.701H500.406V355.668H480.059V375.701H476.589V355.668H456.242V375.701H452.788V355.668H432.425V375.701H428.971V355.668H408.624V375.701H405.154V355.668H384.807V375.701H381.353V355.668H360.99V375.701H357.536V355.668H337.189V375.701H333.719V355.668H313.372V375.701H309.918V355.668H289.555V375.701H286.101V355.668H265.754V375.701H262.284V355.668H229.487V375.858H575.923V355.668H551.494V375.701Z" fill="#282828"/>
<path d="M387.099 379.312H366.752V399.502H387.099V379.312Z" fill="#282828"/>
<path d="M458.534 379.312H438.187V399.502H458.534V379.312Z" fill="#282828"/>
<path d="M339.481 379.312H319.134V399.502H339.481V379.312Z" fill="#282828"/>
<path d="M351.774 402.972H331.427V423.162H351.774V402.972Z" fill="#282828"/>
<path d="M363.282 379.312H342.935V399.502H363.282V379.312Z" fill="#282828"/>
<path d="M315.664 379.312H295.317V399.502H315.664V379.312Z" fill="#282828"/>
<path d="M304.156 402.972H283.809V423.162H304.156V402.972Z" fill="#282828"/>
<path d="M327.957 402.972H307.61V423.162H327.957V402.972Z" fill="#282828"/>
<path d="M410.916 379.312H390.569V399.502H410.916V379.312Z" fill="#282828"/>
<path d="M423.209 402.972H402.862V423.162H423.209V402.972Z" fill="#282828"/>
<path d="M434.717 379.312H414.37V399.502H434.717V379.312Z" fill="#282828"/>
<path d="M375.591 402.972H355.244V423.162H375.591V402.972Z" fill="#282828"/>
<path d="M399.392 402.972H379.045V423.162H399.392V402.972Z" fill="#282828"/>
<path d="M291.847 379.312H271.5V399.502H291.847V379.312Z" fill="#282828"/>
<path d="M615.958 143.545H180.032C170.863 143.545 164.206 152.243 166.577 161.082L198.448 279.758C200.081 285.85 205.591 290.073 211.903 290.073H256.397V298.237H541.697V290.073H584.087C590.383 290.073 595.909 285.85 597.542 279.758L629.413 161.082C631.784 152.243 625.127 143.545 615.958 143.545Z" fill="#282828" stroke="#282828" stroke-miterlimit="10" stroke-linecap="round" stroke-linejoin="round"/>
<path d="M566.66 279.617H229.33L195.591 158.209H600.384L566.66 279.617Z" fill="#00CE00" stroke="#282828" stroke-miterlimit="10" stroke-linecap="round" stroke-linejoin="round"/>
<path d="M251.718 226.331V227.901H245.752V226.331H251.718Z" fill="#282828"/>
<path d="M259.128 226.331V227.901H253.162V226.331H259.128Z" fill="#282828"/>
<path d="M266.539 226.331V227.901H260.573V226.331H266.539Z" fill="#282828"/>
<path d="M273.934 226.331V227.901H267.968V226.331H273.934Z" fill="#282828"/>
<path d="M281.344 226.331V227.901H275.378V226.331H281.344Z" fill="#282828"/>
<path d="M288.754 226.331V227.901H282.788V226.331H288.754Z" fill="#282828"/>
<path d="M296.149 226.331V227.901H290.183V226.331H296.149Z" fill="#282828"/>
<path d="M303.481 234.605L296.918 217.115H298.551L305.114 234.605H303.481Z" fill="#282828"/>
<path d="M245.721 200.866V202.436H239.755V200.866H245.721Z" fill="#282828"/>
<path d="M253.131 200.866V202.436H247.165V200.866H253.131Z" fill="#282828"/>
<path d="M260.542 200.866V202.436H254.576V200.866H260.542Z" fill="#282828"/>
<path d="M267.952 200.866V202.436H261.986V200.866H267.952Z" fill="#282828"/>
<path d="M275.347 200.866V202.436H269.381V200.866H275.347Z" fill="#282828"/>
<path d="M287.875 200.866V202.436H281.909V200.866H287.875Z" fill="#282828"/>
<path d="M295.27 200.866V202.436H289.304V200.866H295.27Z" fill="#282828"/>
<path d="M302.68 200.866V202.436H296.73V200.866H302.68Z" fill="#282828"/>
<path d="M310.091 200.866V202.436H304.125V200.866H310.091Z" fill="#282828"/>
<path d="M317.485 200.866V202.436H311.519V200.866H317.485Z" fill="#282828"/>
<path d="M324.896 200.866V202.436H318.93V200.866H324.896Z" fill="#282828"/>
<path d="M332.306 200.866V202.436H326.34V200.866H332.306Z" fill="#282828"/>
<path d="M344.819 200.866V202.436H338.853V200.866H344.819Z" fill="#282828"/>
<path d="M352.229 200.866V202.436H346.263V200.866H352.229Z" fill="#282828"/>
<path d="M359.64 200.866V202.436H353.674V200.866H359.64Z" fill="#282828"/>
<path d="M372.153 200.866V202.436H366.203V200.866H372.153Z" fill="#282828"/>
<path d="M379.563 200.866V202.436H373.613V200.866H379.563Z" fill="#282828"/>
<path d="M386.974 200.866V202.436H381.023V200.866H386.974Z" fill="#282828"/>
<path d="M414.825 200.866V202.436H408.875V200.866H414.825Z" fill="#282828"/>
<path d="M422.236 200.866V202.436H416.285V200.866H422.236Z" fill="#282828"/>
<path d="M429.646 200.866V202.436H423.696V200.866H429.646Z" fill="#282828"/>
<path d="M437.041 200.866V202.436H431.091V200.866H437.041Z" fill="#282828"/>
<path d="M444.451 200.866V202.436H438.501V200.866H444.451Z" fill="#282828"/>
<path d="M456.964 200.866V202.436H451.014V200.866H456.964Z" fill="#282828"/>
<path d="M464.375 200.866V202.436H458.424V200.866H464.375Z" fill="#282828"/>
<path d="M471.785 200.866V202.436H465.835V200.866H471.785Z" fill="#282828"/>
<path d="M484.298 200.866V202.436H478.348V200.866H484.298Z" fill="#282828"/>
<path d="M496.827 200.866V202.436H490.876V200.866H496.827Z" fill="#282828"/>
<path d="M596.113 458.88L579.314 523.705L595.203 528.368L596.113 458.88Z" fill="#D9D9D9" stroke="#282828" stroke-miterlimit="10" stroke-linecap="round" stroke-linejoin="round"/>
<path d="M603.649 390.396C603.649 390.396 600.855 386.927 601.718 380.537C602.582 374.147 610.29 372.687 610.29 372.687C610.29 372.687 611.97 371.415 618.156 373.754C624.342 376.094 672.038 382.562 702.528 386.691C733.017 390.82 742.893 388.151 742.469 398.607C742.045 409.064 715.292 503.075 714.884 506.027C714.491 508.978 603.649 390.396 603.649 390.396Z" fill="#D9D9D9" stroke="#282828" stroke-miterlimit="10"/>
<path d="M731.883 407.744L603.63 390.361L582.91 543.241L711.163 560.624L731.883 407.744Z" fill="#D9D9D9" stroke="#282828" stroke-miterlimit="10" stroke-linecap="round" stroke-linejoin="round"/>
<path d="M708.054 438.281L715.512 439.302" stroke="#282828" stroke-width="0.5" stroke-miterlimit="10" stroke-linecap="round" stroke-linejoin="round"/>
<path d="M661.347 431.954L702.151 437.496" stroke="#282828" stroke-width="0.5" stroke-miterlimit="10" stroke-linecap="round" stroke-linejoin="round"/>
<path d="M611.892 425.25L655.444 431.153" stroke="#282828" stroke-width="0.5" stroke-miterlimit="10" stroke-linecap="round" stroke-linejoin="round"/>
<path d="M696.374 450.543L713.675 452.882" stroke="#282828" stroke-width="0.5" stroke-miterlimit="10" stroke-linecap="round" stroke-linejoin="round"/>
<path d="M610.055 438.846L678.68 448.141" stroke="#282828" stroke-width="0.5" stroke-miterlimit="10" stroke-linecap="round" stroke-linejoin="round"/>
<path d="M644.878 457.404L711.838 466.478" stroke="#282828" stroke-width="0.5" stroke-miterlimit="10" stroke-linecap="round" stroke-linejoin="round"/>
<path d="M608.202 452.427L637.985 456.478" stroke="#282828" stroke-width="0.5" stroke-miterlimit="10" stroke-linecap="round" stroke-linejoin="round"/>
<path d="M667.124 474.266L709.985 480.075" stroke="#282828" stroke-width="0.5" stroke-miterlimit="10" stroke-linecap="round" stroke-linejoin="round"/>
<path d="M630.748 469.32L662.21 473.59" stroke="#282828" stroke-width="0.5" stroke-miterlimit="10" stroke-linecap="round" stroke-linejoin="round"/>
<path d="M606.365 466.023L625.331 468.598" stroke="#282828" stroke-width="0.5" stroke-miterlimit="10" stroke-linecap="round" stroke-linejoin="round"/>
<path d="M692.81 491.583L708.148 493.655" stroke="#282828" stroke-width="0.5" stroke-miterlimit="10" stroke-linecap="round" stroke-linejoin="round"/>
<path d="M604.528 479.619L682.495 490.186" stroke="#282828" stroke-width="0.5" stroke-miterlimit="10" stroke-linecap="round" stroke-linejoin="round"/>
<path d="M662.948 501.379L706.312 507.251" stroke="#282828" stroke-width="0.5" stroke-miterlimit="10" stroke-linecap="round" stroke-linejoin="round"/>
<path d="M602.676 493.2L655.569 500.375" stroke="#282828" stroke-width="0.5" stroke-miterlimit="10" stroke-linecap="round" stroke-linejoin="round"/>
<path d="M676.34 517.032L704.459 520.832" stroke="#282828" stroke-width="0.5" stroke-miterlimit="10" stroke-linecap="round" stroke-linejoin="round"/>
<path d="M619.318 509.292L669.464 516.09" stroke="#282828" stroke-width="0.5" stroke-miterlimit="10" stroke-linecap="round" stroke-linejoin="round"/>
<path d="M600.839 506.796L613.415 508.492" stroke="#282828" stroke-width="0.5" stroke-miterlimit="10" stroke-linecap="round" stroke-linejoin="round"/>
<path d="M731.903 407.792C731.903 407.792 734.101 386.471 741.951 395.043" stroke="#282828" stroke-miterlimit="10" stroke-linecap="round" stroke-linejoin="round"/>
<path d="M688.414 572.03L688.288 585.579L680.375 574.416L648.677 467.813L656.715 465.427L688.414 572.03Z" fill="#D9D9D9" stroke="#282828" stroke-miterlimit="10" stroke-linecap="round" stroke-linejoin="round"/>
<path d="M654.883 465.913L650.504 467.216L682.206 573.834L686.585 572.532L654.883 465.913Z" fill="#00CE00" stroke="#282828" stroke-width="0.5" stroke-miterlimit="10" stroke-linecap="round" stroke-linejoin="round"/>
<path d="M688.414 572.061L680.391 574.447L688.288 585.579L688.414 572.061Z" stroke="#282828" stroke-miterlimit="10" stroke-linecap="round" stroke-linejoin="round"/>
<path d="M684.332 580.005L688.288 585.578L688.351 578.812L684.332 580.005Z" fill="#282828" stroke="#282828" stroke-miterlimit="10" stroke-linecap="round" stroke-linejoin="round"/>
<path d="M649.148 454.672C646.934 455.331 645.662 457.671 646.322 459.884L648.677 467.813L656.7 465.426L654.345 457.498C653.701 455.284 651.362 454.013 649.148 454.672Z" fill="#D9D9D9" stroke="#282828" stroke-miterlimit="10" stroke-linecap="round" stroke-linejoin="round"/>
<path d="M649.148 454.672C646.934 455.331 645.662 457.671 646.322 459.884L647.452 463.668L655.475 461.282L654.345 457.498C653.701 455.284 651.362 454.013 649.148 454.672Z" fill="#282828" stroke="#282828" stroke-miterlimit="10" stroke-linecap="round" stroke-linejoin="round"/>
<path d="M253.791 391.699C252.786 393.112 251.781 394.604 250.808 396.143" stroke="#D9D9D9" stroke-miterlimit="10" stroke-linecap="round" stroke-linejoin="round"/>
<path d="M270.213 372.797C270.213 372.797 264.655 377.711 258.108 385.938" stroke="#D9D9D9" stroke-miterlimit="10" stroke-linecap="round" stroke-linejoin="round"/>
<path d="M252.393 381.133C252.393 381.133 244.496 392.265 240.744 400.036" stroke="#D9D9D9" stroke-miterlimit="10" stroke-linecap="round" stroke-linejoin="round"/>
<path d="M363.125 415.658C362.121 417.071 361.116 418.562 360.142 420.101" stroke="#D9D9D9" stroke-miterlimit="10" stroke-linecap="round" stroke-linejoin="round"/>
<path d="M379.548 396.755C379.548 396.755 373.99 401.669 367.443 409.896" stroke="#D9D9D9" stroke-miterlimit="10" stroke-linecap="round" stroke-linejoin="round"/>
<path d="M361.744 405.076C361.744 405.076 353.847 416.207 350.094 423.979" stroke="#D9D9D9" stroke-miterlimit="10" stroke-linecap="round" stroke-linejoin="round"/>
<path d="M519.843 376.816C518.414 375.842 516.907 374.853 515.353 373.896" stroke="#D9D9D9" stroke-miterlimit="10" stroke-linecap="round" stroke-linejoin="round"/>
<path d="M538.997 392.94C538.997 392.94 534.004 387.46 525.667 381.039" stroke="#D9D9D9" stroke-miterlimit="10" stroke-linecap="round" stroke-linejoin="round"/>
<path d="M530.393 375.262C530.393 375.262 519.136 367.537 511.302 363.91" stroke="#D9D9D9" stroke-miterlimit="10" stroke-linecap="round" stroke-linejoin="round"/>
<path d="M358.353 474.124C357.552 480.027 356.312 488.207 355.087 493.137" stroke="#282828" stroke-miterlimit="10" stroke-linecap="round" stroke-linejoin="round"/>
<path d="M359.263 466.965C359.263 466.965 359.138 468.08 358.902 469.885" stroke="#282828" stroke-miterlimit="10" stroke-linecap="round" stroke-linejoin="round"/>
<path d="M363.455 483.717C363.455 483.717 360.315 494.189 357.175 500.469" stroke="#282828" stroke-miterlimit="10" stroke-linecap="round" stroke-linejoin="round"/>
<path d="M441.955 492.085C441.955 492.085 443.007 505.697 450.323 513.013" stroke="#282828" stroke-miterlimit="10" stroke-linecap="round" stroke-linejoin="round"/>
<path d="M440.903 505.697C440.903 505.697 444.043 515.117 450.323 519.309" stroke="#282828" stroke-miterlimit="10" stroke-linecap="round" stroke-linejoin="round"/>
<path d="M227.587 578.451C227.587 578.451 234.558 572.846 234.558 524.663C234.558 476.479 242.581 441.28 252.472 425.831C262.347 410.382 271.626 404.212 275.943 404.212C280.261 404.212 277.184 409.77 270.998 417.793C264.828 425.815 259.27 430.149 256.789 440.024C254.324 449.899 254.324 462.255 257.402 461.031C260.494 459.79 265.424 435.094 269.757 425.831C274.075 416.568 284.578 404.825 290.764 399.267C296.934 393.709 310.53 377.036 316.7 381.353C322.871 385.671 319.165 391.856 315.46 394.321C311.755 396.786 296.934 411.623 290.136 420.886C283.338 430.149 279.02 453.62 282.726 454.233C286.431 454.845 297.546 420.258 303.732 412.847C309.902 405.437 334.614 385.058 340.172 384.43C345.73 383.818 346.342 392.453 341.412 396.786C336.467 401.104 319.793 419.645 314.235 430.761C308.678 441.877 306.213 462.255 311.143 457.325C316.088 452.38 324.111 432.001 330.909 425.203C337.707 418.405 358.086 396.786 363.031 399.267C367.977 401.732 366.736 407.918 362.419 412.235C358.101 416.553 341.412 440.024 337.095 452.38C332.777 464.736 327.832 499.323 330.297 494.377C332.762 489.432 340.8 464.108 345.117 453.62C349.435 443.117 358.086 438.171 359.326 443.117C360.566 448.062 358.086 450.527 355.008 461.643C351.915 472.759 351.916 502.4 342.653 519.089C333.39 535.763 296.542 571.229 291.596 583.585C286.651 595.941 278.863 608.077 278.863 608.077" fill="#00CE00"/>
<path d="M570.773 582.627C570.773 582.627 563.614 572.846 563.614 524.663C563.614 476.479 555.592 441.28 545.701 425.831C535.825 410.382 526.547 404.212 522.229 404.212C517.912 404.212 520.989 409.77 527.175 417.793C533.345 425.815 538.902 430.149 541.383 440.024C543.848 449.899 543.848 462.255 540.771 461.031C537.678 459.79 532.748 435.094 528.415 425.831C524.097 416.568 513.594 404.825 507.408 399.267C501.238 393.709 487.642 377.036 481.472 381.353C475.302 385.671 479.007 391.856 482.712 394.321C486.417 396.786 501.238 411.623 508.036 420.886C514.834 430.149 519.152 453.62 515.447 454.233C511.741 454.845 500.626 420.258 494.44 412.847C488.27 405.437 463.558 385.058 458 384.43C452.443 383.818 451.83 392.453 456.76 396.786C461.706 401.104 478.379 419.645 483.937 430.761C489.495 441.877 491.959 462.255 487.03 457.325C482.084 452.38 474.061 432.001 467.263 425.203C460.465 418.405 440.087 396.786 435.141 399.267C430.196 401.732 431.436 407.918 435.753 412.235C440.071 416.553 456.76 440.024 461.078 452.38C465.395 464.736 470.341 499.323 467.876 494.377C465.411 489.432 457.372 464.108 453.055 453.62C448.737 443.117 440.087 438.171 438.846 443.117C437.606 448.062 440.087 450.527 443.164 461.643C446.257 472.759 446.257 502.4 455.52 519.089C464.783 535.763 500.61 568.12 505.556 580.476C510.501 592.832 519.513 612.253 519.513 612.253" fill="#00CE00"/>
<path d="M225.295 590.367C225.295 590.367 234.558 560.098 234.558 511.93C234.558 463.762 242.581 428.547 252.472 413.099C262.347 397.65 271.626 391.48 275.943 391.48C280.261 391.48 277.184 397.037 270.998 405.06C264.828 413.083 259.27 417.416 256.789 427.291C254.324 437.167 254.324 449.523 257.402 448.298C260.494 447.058 265.424 422.362 269.757 413.099C274.075 403.836 284.578 392.092 290.764 386.534C296.934 380.976 310.53 364.303 316.7 368.62C322.871 372.938 319.165 379.124 315.46 381.589C311.755 384.054 296.934 398.89 290.136 408.153C283.338 417.416 279.02 440.888 282.726 441.5C286.431 442.112 297.546 407.525 303.732 400.115C309.902 392.704 334.614 372.326 340.172 371.698C345.73 371.085 346.342 379.72 341.412 384.054C336.467 388.371 319.793 406.913 314.236 418.028C308.678 429.144 306.213 449.523 311.143 444.593C316.088 439.647 324.111 419.269 330.909 412.471C337.707 405.672 358.086 384.054 363.031 386.534C367.977 388.999 366.736 395.185 362.419 399.502C358.101 403.82 341.412 427.291 337.095 439.647C332.777 452.003 327.832 486.59 330.297 481.645C332.762 476.699 340.8 451.375 345.117 440.888C349.435 430.384 358.086 425.439 359.326 430.384C360.566 435.33 358.086 437.795 355.008 448.91C351.916 460.026 351.916 489.667 342.653 506.357C333.39 523.03 297.562 568.12 292.617 580.476C287.671 592.832 276.556 620.009 276.556 620.009" fill="#D9D9D9"/>
<path d="M225.295 590.367C225.295 590.367 234.558 560.098 234.558 511.93C234.558 463.762 242.581 428.547 252.472 413.099C262.347 397.65 271.626 391.48 275.943 391.48C280.261 391.48 277.184 397.037 270.998 405.06C264.828 413.083 259.27 417.416 256.789 427.291C254.324 437.167 254.324 449.523 257.402 448.298C260.494 447.058 265.424 422.362 269.757 413.099C274.075 403.836 284.578 392.092 290.764 386.534C296.934 380.976 310.53 364.303 316.7 368.62C322.871 372.938 319.165 379.124 315.46 381.589C311.755 384.054 296.934 398.89 290.136 408.153C283.338 417.416 279.02 440.888 282.726 441.5C286.431 442.112 297.546 407.525 303.732 400.115C309.902 392.704 334.614 372.326 340.172 371.698C345.73 371.085 346.342 379.72 341.412 384.054C336.467 388.371 319.793 406.913 314.236 418.028C308.678 429.144 306.213 449.523 311.143 444.593C316.088 439.647 324.111 419.269 330.909 412.471C337.707 405.672 358.086 384.054 363.031 386.534C367.977 388.999 366.736 395.185 362.419 399.502C358.101 403.82 341.412 427.291 337.095 439.647C332.777 452.003 327.832 486.59 330.297 481.645C332.762 476.699 340.8 451.375 345.117 440.888C349.435 430.384 358.086 425.439 359.326 430.384C360.566 435.33 358.086 437.795 355.008 448.91C351.916 460.026 351.916 489.667 342.653 506.357C333.39 523.03 297.562 568.12 292.617 580.476C287.671 592.832 276.556 620.009 276.556 620.009" stroke="#282828" stroke-miterlimit="10" stroke-linecap="round" stroke-linejoin="round"/>
<path d="M572.877 590.367C572.877 590.367 563.614 560.098 563.614 511.93C563.614 463.762 555.592 428.547 545.701 413.099C535.825 397.65 526.547 391.48 522.229 391.48C517.912 391.48 520.989 397.037 527.175 405.06C533.345 413.083 538.902 417.416 541.383 427.291C543.848 437.167 543.848 449.523 540.771 448.298C537.678 447.058 532.748 422.362 528.415 413.099C524.097 403.836 513.594 392.092 507.408 386.534C501.238 380.976 487.642 364.303 481.472 368.62C475.302 372.938 479.007 379.124 482.712 381.589C486.417 384.054 501.238 398.89 508.036 408.153C514.834 417.416 519.152 440.888 515.447 441.5C511.741 442.112 500.626 407.525 494.44 400.115C488.27 392.704 463.558 372.326 458 371.698C452.443 371.085 451.83 379.72 456.76 384.054C461.706 388.371 478.379 406.913 483.937 418.028C489.495 429.144 491.959 449.523 487.03 444.593C482.084 439.647 474.061 419.269 467.263 412.471C460.465 405.672 440.087 384.054 435.141 386.534C430.196 388.999 431.436 395.185 435.753 399.502C440.071 403.82 456.76 427.291 461.078 439.647C465.395 452.003 470.341 486.59 467.876 481.645C465.411 476.699 457.372 451.375 453.055 440.888C448.737 430.384 440.087 425.439 438.846 430.384C437.606 435.33 440.087 437.795 443.164 448.91C446.257 460.026 446.257 489.667 455.52 506.357C464.783 523.03 500.61 568.12 505.556 580.476C510.501 592.832 521.617 620.009 521.617 620.009" fill="#D9D9D9"/>
<path d="M572.877 590.367C572.877 590.367 563.614 560.098 563.614 511.93C563.614 463.762 555.592 428.547 545.701 413.099C535.825 397.65 526.547 391.48 522.229 391.48C517.912 391.48 520.989 397.037 527.175 405.06C533.345 413.083 538.902 417.416 541.383 427.291C543.848 437.167 543.848 449.523 540.771 448.298C537.678 447.058 532.748 422.362 528.415 413.099C524.097 403.836 513.594 392.092 507.408 386.534C501.238 380.976 487.642 364.303 481.472 368.62C475.302 372.938 479.007 379.124 482.712 381.589C486.417 384.054 501.238 398.89 508.036 408.153C514.834 417.416 519.152 440.888 515.447 441.5C511.741 442.112 500.626 407.525 494.44 400.115C488.27 392.704 463.558 372.326 458 371.698C452.443 371.085 451.83 379.72 456.76 384.054C461.706 388.371 478.379 406.913 483.937 418.028C489.495 429.144 491.959 449.523 487.03 444.593C482.084 439.647 474.061 419.269 467.263 412.471C460.465 405.672 440.087 384.054 435.141 386.534C430.196 388.999 431.436 395.185 435.753 399.502C440.071 403.82 456.76 427.291 461.078 439.647C465.395 452.003 470.341 486.59 467.876 481.645C465.411 476.699 457.372 451.375 453.055 440.888C448.737 430.384 440.087 425.439 438.846 430.384C437.606 435.33 440.087 437.795 443.164 448.91C446.257 460.026 446.257 489.667 455.52 506.357C464.783 523.03 500.61 568.12 505.556 580.476C510.501 592.832 521.617 620.009 521.617 620.009" stroke="#282828" stroke-miterlimit="10" stroke-linecap="round" stroke-linejoin="round"/>
<path d="M186.202 684.52H280.324C281.564 679.81 283.087 674.535 284.986 668.82C292.381 646.62 316.434 618.863 316.434 618.863C316.434 618.863 293.307 596.663 257.229 585.563C221.15 574.447 194.68 577.76 194.68 577.76C194.68 577.76 202.797 606.727 196.25 638.99C191.603 661.849 188.384 676.309 186.202 684.52Z" fill="#282828" stroke="#282828" stroke-miterlimit="10" stroke-linecap="round" stroke-linejoin="round"/>
<path d="M517.158 684.52H615.032C611.908 676.387 605.109 658.725 598.311 641.062C589.064 617.01 592.754 584.637 589.064 584.637C585.359 584.637 543.738 581.858 523.375 588.342C503.028 594.81 479.902 613.321 479.902 613.321C479.902 613.321 495.633 630.905 506.733 653.104C511.726 663.058 515.023 674.708 517.158 684.52Z" fill="#282828" stroke="#282828" stroke-miterlimit="10" stroke-linecap="round" stroke-linejoin="round"/>
<path d="M245.046 596.914C244.371 594.23 234.338 598.249 234.338 598.249C234.338 598.249 237.682 585.532 232.329 585.532C226.975 585.532 226.3 594.905 226.3 594.905C226.3 594.905 216.252 590.885 216.252 596.914C216.252 602.943 222.94 602.943 222.94 602.943C222.94 602.943 214.902 612.991 220.93 614.985C226.959 616.995 230.978 609.631 230.978 609.631C230.978 609.631 234.998 616.319 240.351 613.65C245.705 610.966 241.686 604.953 241.686 604.953C241.686 604.953 245.705 599.599 245.046 596.914ZM231.654 606.962C229.801 606.962 228.309 605.769 228.309 604.278C228.309 602.802 229.801 601.593 231.654 601.593C233.506 601.593 234.998 602.786 234.998 604.278C234.998 605.753 233.506 606.962 231.654 606.962ZM259.772 671.882C259.097 669.197 249.065 673.216 249.065 673.216C249.065 673.216 252.409 660.499 247.055 660.499C241.702 660.499 241.026 669.872 241.026 669.872C241.026 669.872 230.978 665.853 230.978 671.882C230.978 677.911 237.667 677.911 237.667 677.911C237.667 677.911 229.628 687.959 235.657 689.952C241.686 691.962 245.705 684.599 245.705 684.599C245.705 684.599 249.724 691.287 255.078 688.618C260.432 685.933 256.412 679.92 256.412 679.92C256.412 679.92 260.432 674.566 259.772 671.882ZM246.38 681.93C244.528 681.93 243.036 680.737 243.036 679.245C243.036 677.769 244.528 676.56 246.38 676.56C248.233 676.56 249.724 677.754 249.724 679.245C249.724 680.737 248.233 681.93 246.38 681.93ZM200.866 681.93C200.191 679.245 190.158 683.264 190.158 683.264C190.158 683.264 193.503 670.547 188.149 670.547C182.795 670.547 182.12 679.92 182.12 679.92C182.12 679.92 172.072 675.901 172.072 681.93C172.072 687.959 178.76 687.959 178.76 687.959C178.76 687.959 170.722 698.007 176.751 700C182.779 702.01 186.799 694.647 186.799 694.647C186.799 694.647 190.818 701.335 196.172 698.666C201.525 695.981 197.506 689.968 197.506 689.968C197.506 689.968 201.525 684.599 200.866 681.93ZM187.474 691.962C185.621 691.962 184.13 690.769 184.13 689.277C184.13 687.802 185.621 686.593 187.474 686.593C189.326 686.593 190.818 687.786 190.818 689.277C190.818 690.769 189.326 691.962 187.474 691.962ZM273.824 629.712C273.824 629.712 275.833 629.712 281.187 629.712C286.541 629.712 289.885 635.74 289.885 635.74C278.502 639.084 273.824 629.712 273.824 629.712ZM266.46 681.93C266.46 681.93 268.47 681.93 273.824 681.93C279.177 681.93 282.522 687.959 282.522 687.959C271.139 691.303 266.46 681.93 266.46 681.93ZM202.2 671.882C202.2 671.882 204.21 671.882 209.564 671.882C214.917 671.882 218.261 677.911 218.261 677.911C206.879 681.255 202.2 671.882 202.2 671.882ZM237.792 624.64C237.792 624.64 238.97 626.273 242.078 630.622C245.203 634.971 242.251 641.204 242.251 641.204C232.91 633.919 237.792 624.64 237.792 624.64ZM200.882 644.721C200.882 644.721 201.808 642.931 204.257 638.174C206.706 633.417 213.599 633.197 213.599 633.197C211.353 644.831 200.882 644.721 200.882 644.721Z" fill="#D9D9D9"/>
<path d="M560.317 609.631C559.642 606.946 549.61 610.966 549.61 610.966C549.61 610.966 552.954 598.249 547.6 598.249C542.247 598.249 541.571 607.621 541.571 607.621C541.571 607.621 531.523 603.602 531.523 609.631C531.523 615.66 538.212 615.66 538.212 615.66C538.212 615.66 530.173 625.708 536.202 627.702C542.231 629.711 546.25 622.348 546.25 622.348C546.25 622.348 550.269 629.036 555.623 626.367C560.977 623.683 556.957 617.669 556.957 617.669C556.957 617.669 560.977 612.316 560.317 609.631ZM546.925 619.679C545.073 619.679 543.581 618.486 543.581 616.994C543.581 615.519 545.073 614.31 546.925 614.31C548.778 614.31 550.269 615.503 550.269 616.994C550.269 618.486 548.778 619.679 546.925 619.679ZM591.764 661.849C591.089 659.165 581.057 663.184 581.057 663.184C581.057 663.184 584.401 650.467 579.047 650.467C573.694 650.467 573.019 659.84 573.019 659.84C573.019 659.84 562.971 655.82 562.971 661.849C562.971 667.878 569.659 667.878 569.659 667.878C569.659 667.878 561.62 677.926 567.649 679.92C573.678 681.93 577.697 674.566 577.697 674.566C577.697 674.566 581.716 681.254 587.07 678.585C592.424 675.901 588.405 669.888 588.405 669.888C588.405 669.888 592.439 664.518 591.764 661.849ZM578.388 671.882C576.535 671.882 575.044 670.688 575.044 669.197C575.044 667.721 576.535 666.512 578.388 666.512C580.241 666.512 581.732 667.705 581.732 669.197C581.732 670.688 580.225 671.882 578.388 671.882ZM558.308 681.93C557.633 679.245 547.6 683.264 547.6 683.264C547.6 683.264 550.944 670.547 545.591 670.547C540.237 670.547 539.562 679.92 539.562 679.92C539.562 679.92 529.514 675.901 529.514 681.93C529.514 687.958 536.202 687.958 536.202 687.958C536.202 687.958 528.164 698.006 534.192 700C540.221 702.01 544.24 694.647 544.24 694.647C544.24 694.647 548.26 701.335 553.613 698.666C558.967 695.981 554.948 689.968 554.948 689.968C554.948 689.968 558.967 684.599 558.308 681.93ZM544.916 691.962C543.063 691.962 541.571 690.769 541.571 689.277C541.571 687.801 543.063 686.592 544.916 686.592C546.768 686.592 548.26 687.786 548.26 689.277C548.26 690.769 546.768 691.962 544.916 691.962ZM589.095 642.428C589.095 642.428 591.105 642.428 596.459 642.428C601.812 642.428 605.156 648.457 605.156 648.457C593.774 651.801 589.095 642.428 589.095 642.428ZM510.109 680.595C510.109 680.595 512.118 680.595 517.472 680.595C522.826 680.595 526.17 686.624 526.17 686.624C514.787 689.968 510.109 680.595 510.109 680.595ZM553.064 637.357C553.064 637.357 554.241 638.99 557.35 643.339C560.474 647.688 557.523 653.921 557.523 653.921C548.181 646.636 553.064 637.357 553.064 637.357ZM596.584 674.849C596.584 674.849 597.762 676.482 600.87 680.831C603.995 685.179 601.043 691.412 601.043 691.412C591.702 684.112 596.584 674.849 596.584 674.849ZM516.153 657.438C516.153 657.438 517.079 655.648 519.529 650.891C521.978 646.134 528.87 645.914 528.87 645.914C526.625 657.547 516.153 657.438 516.153 657.438Z" fill="#D9D9D9"/>
</svg>
