<svg width="983" height="499" viewBox="0 0 983 499" fill="none" xmlns="http://www.w3.org/2000/svg">
<g clip-path="url(#clip0_10_720)">
<path d="M894.759 328.165H451.929V44.0241C451.929 34.0031 460.09 25.8724 470.148 25.8724H876.539C886.597 25.8724 894.759 34.0031 894.759 44.0241V328.165Z" fill="#282828" stroke="#282828" stroke-miterlimit="10" stroke-linecap="round" stroke-linejoin="round"/>
<path d="M961.191 461.808H385.496L451.929 328.165H894.759L961.191 461.808Z" fill="#D9D9D9" stroke="#282828" stroke-miterlimit="10" stroke-linecap="round" stroke-linejoin="round"/>
<path d="M867.943 49.809H478.744V304.228H867.943V49.809Z" fill="#00CE00" stroke="#282828" stroke-miterlimit="10" stroke-linecap="round" stroke-linejoin="round"/>
<path d="M654.861 370.481L655.638 354.197H632.229L630.675 370.481H654.861Z" fill="#282828" stroke="#D9D9D9" stroke-miterlimit="10" stroke-linecap="round" stroke-linejoin="round"/>
<path d="M703.234 370.481L702.434 354.197H679.024L679.047 370.481H703.234Z" fill="#282828" stroke="#D9D9D9" stroke-miterlimit="10" stroke-linecap="round" stroke-linejoin="round"/>
<path d="M829.172 387.881H854.181L848.306 370.481H824.143L829.172 387.881Z" fill="#282828" stroke="#D9D9D9" stroke-miterlimit="10" stroke-linecap="round" stroke-linejoin="round"/>
<path d="M630.675 370.481L632.229 354.197H608.843L606.511 370.481H630.675Z" fill="#282828" stroke="#D9D9D9" stroke-miterlimit="10" stroke-linecap="round" stroke-linejoin="round"/>
<path d="M582.325 370.481L585.434 354.197H562.047L558.138 370.481H582.325Z" fill="#282828" stroke="#D9D9D9" stroke-miterlimit="10" stroke-linecap="round" stroke-linejoin="round"/>
<path d="M799.956 370.481L796.024 354.197H772.638L775.77 370.481H799.956Z" fill="#282828" stroke="#D9D9D9" stroke-miterlimit="10" stroke-linecap="round" stroke-linejoin="round"/>
<path d="M824.143 370.481L819.433 354.197H796.024L799.956 370.481H824.143Z" fill="#282828" stroke="#D9D9D9" stroke-miterlimit="10" stroke-linecap="round" stroke-linejoin="round"/>
<path d="M558.138 370.481L562.047 354.197H538.638L533.952 370.481H558.138Z" fill="#282828" stroke="#D9D9D9" stroke-miterlimit="10" stroke-linecap="round" stroke-linejoin="round"/>
<path d="M727.42 370.481L725.82 354.197H702.433L703.234 370.481H727.42Z" fill="#282828" stroke="#D9D9D9" stroke-miterlimit="10" stroke-linecap="round" stroke-linejoin="round"/>
<path d="M848.306 370.481L842.82 354.197H819.433L824.143 370.481H848.306Z" fill="#282828" stroke="#D9D9D9" stroke-miterlimit="10" stroke-linecap="round" stroke-linejoin="round"/>
<path d="M775.77 370.481L772.638 354.197H749.229L751.584 370.481H775.77Z" fill="#282828" stroke="#D9D9D9" stroke-miterlimit="10" stroke-linecap="round" stroke-linejoin="round"/>
<path d="M751.584 370.481L749.229 354.197H725.82L727.42 370.481H751.584Z" fill="#282828" stroke="#D9D9D9" stroke-miterlimit="10" stroke-linecap="round" stroke-linejoin="round"/>
<path d="M679.047 370.481L679.024 354.197H655.638L654.861 370.481H679.047Z" fill="#282828" stroke="#D9D9D9" stroke-miterlimit="10" stroke-linecap="round" stroke-linejoin="round"/>
<path d="M509.788 370.481H485.602L478.927 387.881H503.936L509.788 370.481Z" fill="#282828" stroke="#D9D9D9" stroke-miterlimit="10" stroke-linecap="round" stroke-linejoin="round"/>
<path d="M515.229 354.197H491.843L485.602 370.481H509.788L515.229 354.197Z" fill="#282828" stroke="#D9D9D9" stroke-miterlimit="10" stroke-linecap="round" stroke-linejoin="round"/>
<path d="M533.952 370.481L538.638 354.197H515.229L509.788 370.481H533.952Z" fill="#282828" stroke="#D9D9D9" stroke-miterlimit="10" stroke-linecap="round" stroke-linejoin="round"/>
<path d="M471.771 406.534L464.067 426.598H490.951L497.672 406.534H471.771Z" fill="#282828" stroke="#D9D9D9" stroke-miterlimit="10" stroke-linecap="round" stroke-linejoin="round"/>
<path d="M503.936 387.881H478.927L471.771 406.534H497.672L503.936 387.881Z" fill="#282828" stroke="#D9D9D9" stroke-miterlimit="10" stroke-linecap="round" stroke-linejoin="round"/>
<path d="M497.672 406.534L490.951 426.598H517.835L523.596 406.534H497.672Z" fill="#282828" stroke="#D9D9D9" stroke-miterlimit="10" stroke-linecap="round" stroke-linejoin="round"/>
<path d="M606.511 370.481L608.843 354.197H585.434L582.325 370.481H606.511Z" fill="#282828" stroke="#D9D9D9" stroke-miterlimit="10" stroke-linecap="round" stroke-linejoin="round"/>
<path d="M604.019 387.881L606.511 370.481H582.325L578.987 387.881H604.019Z" fill="#282828" stroke="#D9D9D9" stroke-miterlimit="10" stroke-linecap="round" stroke-linejoin="round"/>
<path d="M578.987 387.881L582.325 370.481H558.138L553.978 387.881H578.987Z" fill="#282828" stroke="#D9D9D9" stroke-miterlimit="10" stroke-linecap="round" stroke-linejoin="round"/>
<path d="M629.029 387.881L630.675 370.481H606.511L604.019 387.881H629.029Z" fill="#282828" stroke="#D9D9D9" stroke-miterlimit="10" stroke-linecap="round" stroke-linejoin="round"/>
<path d="M533.952 370.481H509.788L503.936 387.881H528.946L533.952 370.481Z" fill="#282828" stroke="#D9D9D9" stroke-miterlimit="10" stroke-linecap="round" stroke-linejoin="round"/>
<path d="M834.567 406.534H860.491L854.181 387.881H829.172L834.567 406.534Z" fill="#282828" stroke="#D9D9D9" stroke-miterlimit="10" stroke-linecap="round" stroke-linejoin="round"/>
<path d="M553.978 387.881L558.138 370.481H533.952L528.945 387.881H553.978Z" fill="#282828" stroke="#D9D9D9" stroke-miterlimit="10" stroke-linecap="round" stroke-linejoin="round"/>
<path d="M503.936 387.881L497.672 406.534H523.596L528.946 387.881H503.936Z" fill="#282828" stroke="#D9D9D9" stroke-miterlimit="10" stroke-linecap="round" stroke-linejoin="round"/>
<path d="M779.13 387.881L775.77 370.481H751.583L754.121 387.881H779.13Z" fill="#282828" stroke="#D9D9D9" stroke-miterlimit="10" stroke-linecap="round" stroke-linejoin="round"/>
<path d="M754.121 387.881L751.584 370.481H727.42L729.089 387.881H754.121Z" fill="#282828" stroke="#D9D9D9" stroke-miterlimit="10" stroke-linecap="round" stroke-linejoin="round"/>
<path d="M829.172 387.881L824.143 370.481H799.956L804.163 387.881H829.172Z" fill="#282828" stroke="#D9D9D9" stroke-miterlimit="10" stroke-linecap="round" stroke-linejoin="round"/>
<path d="M679.07 387.881L679.047 370.481H654.861L654.038 387.881H679.07Z" fill="#282828" stroke="#D9D9D9" stroke-miterlimit="10" stroke-linecap="round" stroke-linejoin="round"/>
<path d="M729.089 387.881L727.42 370.481H703.234L704.079 387.881H729.089Z" fill="#282828" stroke="#D9D9D9" stroke-miterlimit="10" stroke-linecap="round" stroke-linejoin="round"/>
<path d="M704.08 387.881L703.234 370.481H679.047L679.07 387.881H704.08Z" fill="#282828" stroke="#D9D9D9" stroke-miterlimit="10" stroke-linecap="round" stroke-linejoin="round"/>
<path d="M654.038 387.881L654.861 370.481H630.675L629.029 387.881H654.038Z" fill="#282828" stroke="#D9D9D9" stroke-miterlimit="10" stroke-linecap="round" stroke-linejoin="round"/>
<path d="M729.089 387.881L730.918 406.534H756.819L754.121 387.881H729.089Z" fill="#282828" stroke="#D9D9D9" stroke-miterlimit="10" stroke-linecap="round" stroke-linejoin="round"/>
<path d="M754.121 387.881L756.819 406.534H782.742L779.13 387.881H754.121Z" fill="#282828" stroke="#D9D9D9" stroke-miterlimit="10" stroke-linecap="round" stroke-linejoin="round"/>
<path d="M528.946 387.881L523.596 406.534H549.497L553.978 387.881H528.946Z" fill="#282828" stroke="#D9D9D9" stroke-miterlimit="10" stroke-linecap="round" stroke-linejoin="round"/>
<path d="M779.13 387.881L782.742 406.534H808.643L804.163 387.881H779.13Z" fill="#282828" stroke="#D9D9D9" stroke-miterlimit="10" stroke-linecap="round" stroke-linejoin="round"/>
<path d="M679.07 387.881V406.534H704.994L704.079 387.881H679.07Z" fill="#282828" stroke="#D9D9D9" stroke-miterlimit="10" stroke-linecap="round" stroke-linejoin="round"/>
<path d="M804.163 387.881L808.643 406.534H834.567L829.172 387.881H804.163Z" fill="#282828" stroke="#D9D9D9" stroke-miterlimit="10" stroke-linecap="round" stroke-linejoin="round"/>
<path d="M704.079 387.881L704.994 406.534H730.918L729.089 387.881H704.079Z" fill="#282828" stroke="#D9D9D9" stroke-miterlimit="10" stroke-linecap="round" stroke-linejoin="round"/>
<path d="M578.987 387.881L575.421 406.534H601.344L604.019 387.881H578.987Z" fill="#282828" stroke="#D9D9D9" stroke-miterlimit="10" stroke-linecap="round" stroke-linejoin="round"/>
<path d="M553.978 387.881L549.497 406.534H575.421L578.987 387.881H553.978Z" fill="#282828" stroke="#D9D9D9" stroke-miterlimit="10" stroke-linecap="round" stroke-linejoin="round"/>
<path d="M654.038 387.881L653.169 406.534H679.07V387.881H654.038Z" fill="#282828" stroke="#D9D9D9" stroke-miterlimit="10" stroke-linecap="round" stroke-linejoin="round"/>
<path d="M629.029 387.881L627.245 406.534H653.169L654.038 387.881H629.029Z" fill="#282828" stroke="#D9D9D9" stroke-miterlimit="10" stroke-linecap="round" stroke-linejoin="round"/>
<path d="M604.019 387.881L601.344 406.534H627.245L629.029 387.881H604.019Z" fill="#282828" stroke="#D9D9D9" stroke-miterlimit="10" stroke-linecap="round" stroke-linejoin="round"/>
<path d="M804.163 387.881L799.956 370.481H775.77L779.13 387.881H804.163Z" fill="#282828" stroke="#D9D9D9" stroke-miterlimit="10" stroke-linecap="round" stroke-linejoin="round"/>
<path d="M515.229 354.197L520.83 337.525H498.244L491.843 354.197H515.229Z" fill="#282828" stroke="#D9D9D9" stroke-miterlimit="10" stroke-linecap="round" stroke-linejoin="round"/>
<path d="M491.843 354.197H470.24L463.267 370.481H485.602L491.843 354.197Z" fill="#282828" stroke="#D9D9D9" stroke-miterlimit="10" stroke-linecap="round" stroke-linejoin="round"/>
<path d="M498.244 337.525H477.372L470.24 354.197H491.843L498.244 337.525Z" fill="#282828" stroke="#D9D9D9" stroke-miterlimit="10" stroke-linecap="round" stroke-linejoin="round"/>
<path d="M485.602 370.481H463.267L455.815 387.881H478.927L485.602 370.481Z" fill="#282828" stroke="#D9D9D9" stroke-miterlimit="10" stroke-linecap="round" stroke-linejoin="round"/>
<path d="M478.927 387.881H455.815L447.837 406.534H471.771L478.927 387.881Z" fill="#282828" stroke="#D9D9D9" stroke-miterlimit="10" stroke-linecap="round" stroke-linejoin="round"/>
<path d="M471.771 406.534H447.837L439.264 426.598H464.067L471.771 406.534Z" fill="#282828" stroke="#D9D9D9" stroke-miterlimit="10" stroke-linecap="round" stroke-linejoin="round"/>
<path d="M872.493 370.481L879.214 387.881H901.342L893.89 370.481H872.493Z" fill="#282828" stroke="#D9D9D9" stroke-miterlimit="10" stroke-linecap="round" stroke-linejoin="round"/>
<path d="M886.392 406.534H909.321L901.343 387.881H879.214L886.392 406.534Z" fill="#282828" stroke="#D9D9D9" stroke-miterlimit="10" stroke-linecap="round" stroke-linejoin="round"/>
<path d="M894.118 426.598H917.893L909.321 406.534H886.392L894.118 426.598Z" fill="#282828" stroke="#D9D9D9" stroke-miterlimit="10" stroke-linecap="round" stroke-linejoin="round"/>
<path d="M702.434 354.197L701.611 337.525H679.024V354.197H702.434Z" fill="#282828" stroke="#D9D9D9" stroke-miterlimit="10" stroke-linecap="round" stroke-linejoin="round"/>
<path d="M872.493 370.481H893.89L886.917 354.197H866.229L872.493 370.481Z" fill="#282828" stroke="#D9D9D9" stroke-miterlimit="10" stroke-linecap="round" stroke-linejoin="round"/>
<path d="M860.491 406.534H886.392L879.214 387.881H854.181L860.491 406.534Z" fill="#282828" stroke="#D9D9D9" stroke-miterlimit="10" stroke-linecap="round" stroke-linejoin="round"/>
<path d="M538.638 354.197L543.439 337.525H520.83L515.229 354.197H538.638Z" fill="#282828" stroke="#D9D9D9" stroke-miterlimit="10" stroke-linecap="round" stroke-linejoin="round"/>
<path d="M842.82 354.197L848.306 370.481H872.492L866.229 354.197H842.82Z" fill="#282828" stroke="#D9D9D9" stroke-miterlimit="10" stroke-linecap="round" stroke-linejoin="round"/>
<path d="M886.917 354.197L879.785 337.525H859.805L866.229 354.197H886.917Z" fill="#282828" stroke="#D9D9D9" stroke-miterlimit="10" stroke-linecap="round" stroke-linejoin="round"/>
<path d="M866.229 354.197L859.805 337.525H837.196L842.82 354.197H866.229Z" fill="#282828" stroke="#D9D9D9" stroke-miterlimit="10" stroke-linecap="round" stroke-linejoin="round"/>
<path d="M782.742 406.534L786.606 426.598H813.49L808.643 406.534H782.742Z" fill="#282828" stroke="#D9D9D9" stroke-miterlimit="10" stroke-linecap="round" stroke-linejoin="round"/>
<path d="M867.235 426.598H894.119L886.392 406.534H860.491L867.235 426.598Z" fill="#282828" stroke="#D9D9D9" stroke-miterlimit="10" stroke-linecap="round" stroke-linejoin="round"/>
<path d="M842.82 354.197L837.196 337.525H814.61L819.433 354.197H842.82Z" fill="#282828" stroke="#D9D9D9" stroke-miterlimit="10" stroke-linecap="round" stroke-linejoin="round"/>
<path d="M834.567 406.534L840.374 426.598H867.235L860.491 406.534H834.567Z" fill="#282828" stroke="#D9D9D9" stroke-miterlimit="10" stroke-linecap="round" stroke-linejoin="round"/>
<path d="M808.643 406.534L813.49 426.598H840.374L834.567 406.534H808.643Z" fill="#282828" stroke="#D9D9D9" stroke-miterlimit="10" stroke-linecap="round" stroke-linejoin="round"/>
<path d="M854.181 387.881H879.214L872.493 370.481H848.306L854.181 387.881Z" fill="#282828" stroke="#D9D9D9" stroke-miterlimit="10" stroke-linecap="round" stroke-linejoin="round"/>
<path d="M632.229 354.197L633.829 337.525H611.22L608.843 354.197H632.229Z" fill="#282828" stroke="#D9D9D9" stroke-miterlimit="10" stroke-linecap="round" stroke-linejoin="round"/>
<path d="M819.433 354.197L814.61 337.525H792.001L796.024 354.197H819.433Z" fill="#282828" stroke="#D9D9D9" stroke-miterlimit="10" stroke-linecap="round" stroke-linejoin="round"/>
<path d="M608.843 354.197L611.22 337.525H588.634L585.434 354.197H608.843Z" fill="#282828" stroke="#D9D9D9" stroke-miterlimit="10" stroke-linecap="round" stroke-linejoin="round"/>
<path d="M679.024 354.197V337.525H656.416L655.638 354.197H679.024Z" fill="#282828" stroke="#D9D9D9" stroke-miterlimit="10" stroke-linecap="round" stroke-linejoin="round"/>
<path d="M585.434 354.197L588.634 337.525H566.025L562.047 354.197H585.434Z" fill="#282828" stroke="#D9D9D9" stroke-miterlimit="10" stroke-linecap="round" stroke-linejoin="round"/>
<path d="M562.047 354.197L566.025 337.525H543.439L538.638 354.197H562.047Z" fill="#282828" stroke="#D9D9D9" stroke-miterlimit="10" stroke-linecap="round" stroke-linejoin="round"/>
<path d="M655.638 354.197L656.415 337.525H633.829L632.229 354.197H655.638Z" fill="#282828" stroke="#D9D9D9" stroke-miterlimit="10" stroke-linecap="round" stroke-linejoin="round"/>
<path d="M796.024 354.197L792.001 337.525H769.415L772.638 354.197H796.024Z" fill="#282828" stroke="#D9D9D9" stroke-miterlimit="10" stroke-linecap="round" stroke-linejoin="round"/>
<path d="M772.638 354.197L769.415 337.525H746.806L749.229 354.197H772.638Z" fill="#282828" stroke="#D9D9D9" stroke-miterlimit="10" stroke-linecap="round" stroke-linejoin="round"/>
<path d="M725.82 354.197L724.22 337.525H701.611L702.434 354.197H725.82Z" fill="#282828" stroke="#D9D9D9" stroke-miterlimit="10" stroke-linecap="round" stroke-linejoin="round"/>
<path d="M782.742 406.534H756.819H730.918H704.994H679.07H653.169H627.246H601.345H575.421H549.497H523.596L517.835 426.598H544.719H571.58H598.464H625.348H652.232H679.093H705.977H732.861H759.722H786.606L782.742 406.534Z" fill="#282828" stroke="#D9D9D9" stroke-miterlimit="10" stroke-linecap="round" stroke-linejoin="round"/>
<path d="M749.229 354.197L746.806 337.525H724.219L725.82 354.197H749.229Z" fill="#282828" stroke="#D9D9D9" stroke-miterlimit="10" stroke-linecap="round" stroke-linejoin="round"/>
<path d="M961.443 461.809H385.496V469.962H961.443V461.809Z" fill="#282828" stroke="#282828" stroke-miterlimit="10" stroke-linecap="round" stroke-linejoin="round"/>
<path opacity="0.15" d="M827.343 107.862V326.684L763.494 409.608L752.749 413.617L425.205 461.763V472.467L305.233 478.912V361.462H509.788V106.792L827.343 107.862Z" fill="#282828"/>
<path d="M231.668 337.981C216.923 338.71 200.944 349.915 200.944 349.915L34.3594 478.912H305.233C305.233 478.912 476.321 350.302 481.419 346.612C489.511 340.759 505.605 337.799 505.605 337.799L497.992 337.981H231.668Z" fill="#D9D9D9" stroke="#282828" stroke-miterlimit="10" stroke-linecap="round" stroke-linejoin="round"/>
<path d="M854.981 108.067H492.392" stroke="#282828" stroke-miterlimit="10" stroke-linecap="round" stroke-linejoin="round"/>
<path d="M800.299 30.1996C785.348 30.1996 773.255 42.2476 773.255 57.1424V388.336C773.255 403.96 760.408 415.666 745.891 415.666C742.851 415.666 739.742 415.165 736.656 414.072L531.552 341.488C520.601 337.616 508.965 337.07 498.015 339.598V57.1424C498.015 49.695 501.056 42.9764 505.948 38.1025C510.84 33.2059 517.607 30.1996 525.082 30.1996H800.299Z" fill="#D9D9D9"/>
<mask id="mask0_10_720" style="mask-type:luminance" maskUnits="userSpaceOnUse" x="498" y="30" width="303" height="386">
<path d="M800.299 30.1996C785.348 30.1996 773.255 42.2476 773.255 57.1424V388.336C773.255 403.96 760.408 415.666 745.891 415.666C742.851 415.666 739.742 415.165 736.656 414.072L531.552 341.488C520.601 337.616 508.965 337.07 498.015 339.598V57.1424C498.015 49.695 501.056 42.9764 505.948 38.1025C510.84 33.2059 517.607 30.1996 525.082 30.1996H800.299Z" fill="white"/>
</mask>
<g mask="url(#mask0_10_720)">
<path d="M556.744 350.393L736.656 414.072C739.742 415.165 742.851 415.666 745.891 415.666C760.408 415.666 773.255 403.96 773.255 388.336V350.393H556.744Z" fill="#00CE00"/>
</g>
<mask id="mask1_10_720" style="mask-type:luminance" maskUnits="userSpaceOnUse" x="498" y="30" width="303" height="386">
<path d="M800.299 30.1996C785.348 30.1996 773.255 42.2476 773.255 57.1424V388.336C773.255 403.96 760.408 415.666 745.891 415.666C742.851 415.666 739.742 415.165 736.656 414.072L531.552 341.488C520.601 337.616 508.965 337.07 498.015 339.598V57.1424C498.015 49.695 501.056 42.9764 505.948 38.1025C510.84 33.2059 517.607 30.1996 525.082 30.1996H800.299Z" fill="white"/>
</mask>
<g mask="url(#mask1_10_720)">
<path opacity="0.6" d="M556.744 350.393L736.656 414.072C739.742 415.165 742.851 415.666 745.891 415.666C760.408 415.666 773.255 403.96 773.255 388.336V350.393H556.744Z" fill="#D9D9D9"/>
</g>
<mask id="mask2_10_720" style="mask-type:luminance" maskUnits="userSpaceOnUse" x="498" y="30" width="303" height="386">
<path d="M800.299 30.1996C785.348 30.1996 773.255 42.2476 773.255 57.1424V388.336C773.255 403.96 760.408 415.666 745.891 415.666C742.851 415.666 739.742 415.165 736.656 414.072L531.552 341.488C520.601 337.616 508.965 337.07 498.015 339.598V57.1424C498.015 49.695 501.056 42.9764 505.948 38.1025C510.84 33.2059 517.607 30.1996 525.082 30.1996H800.299Z" fill="white"/>
</mask>
<g mask="url(#mask2_10_720)">
<path d="M556.744 394.03L736.656 457.686C739.742 458.779 742.851 459.28 745.891 459.28C760.408 459.28 773.255 447.574 773.255 431.95V394.007H556.744V394.03Z" fill="#00CE00"/>
</g>
<path d="M800.299 30.1996C785.348 30.1996 773.255 42.2476 773.255 57.1424V388.336C773.255 403.96 760.408 415.666 745.891 415.666C742.851 415.666 739.742 415.165 736.656 414.072L531.552 341.488C520.601 337.616 508.965 337.07 498.015 339.598V57.1424C498.015 49.695 501.056 42.9764 505.948 38.1025C510.84 33.2059 517.607 30.1996 525.082 30.1996H800.299Z" stroke="#282828" stroke-miterlimit="10" stroke-linecap="round" stroke-linejoin="round"/>
<path d="M509.674 337.981H498.015" stroke="#282828" stroke-miterlimit="10" stroke-linecap="round" stroke-linejoin="round"/>
<path d="M745.868 415.666H470.628C467.611 415.666 464.502 415.165 461.416 414.072L413.889 397.424L472.983 352.079C480.344 345.884 488.917 341.693 497.97 339.598C508.92 337.07 520.556 337.616 531.506 341.488L736.61 414.072C739.719 415.165 742.828 415.666 745.868 415.666Z" fill="#D9D9D9"/>
<mask id="mask3_10_720" style="mask-type:luminance" maskUnits="userSpaceOnUse" x="413" y="338" width="333" height="78">
<path d="M745.868 415.666H470.628C467.611 415.666 464.502 415.165 461.416 414.072L413.889 397.424L472.983 352.079C480.344 345.884 488.917 341.693 497.97 339.598C508.92 337.07 520.556 337.616 531.506 341.488L736.61 414.072C739.719 415.165 742.828 415.666 745.868 415.666Z" fill="white"/>
</mask>
<g mask="url(#mask3_10_720)">
<path d="M745.868 415.666H470.628C467.611 415.666 464.502 415.165 461.416 414.072L411.008 396.535L473.006 352.079C480.367 345.884 488.94 341.693 497.992 339.598C508.943 337.07 520.579 337.616 531.529 341.488L736.633 414.072C739.719 415.165 742.828 415.666 745.868 415.666Z" fill="#00CE00"/>
</g>
<mask id="mask4_10_720" style="mask-type:luminance" maskUnits="userSpaceOnUse" x="413" y="338" width="333" height="78">
<path d="M745.868 415.666H470.628C467.611 415.666 464.502 415.165 461.416 414.072L413.889 397.424L472.983 352.079C480.344 345.884 488.917 341.693 497.97 339.598C508.92 337.07 520.556 337.616 531.506 341.488L736.61 414.072C739.719 415.165 742.828 415.666 745.868 415.666Z" fill="white"/>
</mask>
<g mask="url(#mask4_10_720)">
<path opacity="0.2" d="M745.868 415.666H470.628C467.611 415.666 464.502 415.165 461.416 414.072L411.008 396.535L473.006 352.079C480.367 345.884 488.94 341.693 497.992 339.598C508.943 337.07 520.579 337.616 531.529 341.488L736.633 414.072C739.719 415.165 742.828 415.666 745.868 415.666Z" fill="#282828"/>
</g>
<path d="M745.868 415.666H470.628C467.611 415.666 464.502 415.165 461.416 414.072L413.889 397.424L472.983 352.079C480.344 345.884 488.917 341.693 497.97 339.598C508.92 337.07 520.556 337.616 531.506 341.488L736.61 414.072C739.719 415.165 742.828 415.666 745.868 415.666Z" stroke="#282828" stroke-miterlimit="10" stroke-linecap="round" stroke-linejoin="round"/>
<path d="M470.627 415.666H470.034" stroke="#282828" stroke-miterlimit="10" stroke-linecap="round" stroke-linejoin="round"/>
<path d="M746.393 415.666H745.868" stroke="#282828" stroke-miterlimit="10" stroke-linecap="round" stroke-linejoin="round"/>
<path d="M819.411 38.1025C814.518 33.2059 807.774 30.1996 800.299 30.1996C772.135 30.1996 773.255 57.1424 773.255 57.1424V107.862H827.343V57.1424C827.343 49.695 824.303 42.9764 819.411 38.1025Z" fill="#D9D9D9"/>
<mask id="mask5_10_720" style="mask-type:luminance" maskUnits="userSpaceOnUse" x="773" y="30" width="55" height="78">
<path d="M819.411 38.1025C814.518 33.2059 807.774 30.1996 800.299 30.1996C772.135 30.1996 773.255 57.1424 773.255 57.1424V107.862H827.343V57.1424C827.343 49.695 824.303 42.9764 819.411 38.1025Z" fill="white"/>
</mask>
<g mask="url(#mask5_10_720)">
<path d="M819.411 38.1025C814.518 33.2059 807.774 30.1996 800.299 30.1996C772.135 30.1996 773.255 57.1424 773.255 57.1424V107.862H827.343V57.1424C827.343 49.695 824.303 42.9764 819.411 38.1025Z" fill="#00CE00"/>
</g>
<mask id="mask6_10_720" style="mask-type:luminance" maskUnits="userSpaceOnUse" x="773" y="30" width="55" height="78">
<path d="M819.411 38.1025C814.518 33.2059 807.774 30.1996 800.299 30.1996C772.135 30.1996 773.255 57.1424 773.255 57.1424V107.862H827.343V57.1424C827.343 49.695 824.303 42.9764 819.411 38.1025Z" fill="white"/>
</mask>
<g mask="url(#mask6_10_720)">
<path opacity="0.2" d="M819.411 38.1025C814.518 33.2059 807.774 30.1996 800.299 30.1996C772.135 30.1996 773.255 57.1424 773.255 57.1424V107.862H827.343V57.1424C827.343 49.695 824.303 42.9764 819.411 38.1025Z" fill="#282828"/>
</g>
<path d="M819.411 38.1025C814.518 33.2059 807.774 30.1996 800.299 30.1996C772.135 30.1996 773.255 57.1424 773.255 57.1424V107.862H827.343V57.1424C827.343 49.695 824.303 42.9764 819.411 38.1025Z" stroke="#282828" stroke-miterlimit="10" stroke-linecap="round" stroke-linejoin="round"/>
<g opacity="0.15">
<path d="M523.276 76.6377V77.116V88.5946V89.0729V100.574V101.053V112.554V113.032V124.511V124.989V136.49V136.969V148.47V148.948V160.427V160.905V172.407V172.885V184.386V184.864V196.343V196.821V208.801H549.406V196.821V196.343V184.864V184.386V172.885V172.407V160.905V160.427V148.948V148.47V136.969V136.49V124.989V124.511V113.032V112.554V101.053V100.574V89.0729V88.5946V77.116V76.6377V64.6581H523.276V76.6377Z" fill="#282828"/>
<path d="M729.295 64.6581H728.746H703.737H703.165H678.156H677.584H652.598H652.026H627.017H626.445H601.459H600.887H575.878H575.307H549.749V77.116H575.307H575.878H600.887H601.459H626.445H627.017H652.026H652.598H677.584H678.156H703.165H703.737H728.746H729.295H754.875V64.6581H729.295Z" fill="#282828"/>
</g>
<path d="M549.406 64.6581H523.276V77.116H549.406V64.6581Z" stroke="#282828" stroke-width="0.25" stroke-miterlimit="10" stroke-linecap="round" stroke-linejoin="round"/>
<path d="M549.406 76.6377H523.276V89.0956H549.406V76.6377Z" stroke="#282828" stroke-width="0.25" stroke-miterlimit="10" stroke-linecap="round" stroke-linejoin="round"/>
<path d="M549.406 88.5946H523.276V101.053H549.406V88.5946Z" stroke="#282828" stroke-width="0.25" stroke-miterlimit="10" stroke-linecap="round" stroke-linejoin="round"/>
<path d="M549.406 100.574H523.276V113.032H549.406V100.574Z" stroke="#282828" stroke-width="0.25" stroke-miterlimit="10" stroke-linecap="round" stroke-linejoin="round"/>
<path d="M549.406 112.554H523.276V125.012H549.406V112.554Z" stroke="#282828" stroke-width="0.25" stroke-miterlimit="10" stroke-linecap="round" stroke-linejoin="round"/>
<path d="M549.406 124.511H523.276V136.969H549.406V124.511Z" stroke="#282828" stroke-width="0.25" stroke-miterlimit="10" stroke-linecap="round" stroke-linejoin="round"/>
<path d="M549.406 136.49H523.276V148.948H549.406V136.49Z" stroke="#282828" stroke-width="0.25" stroke-miterlimit="10" stroke-linecap="round" stroke-linejoin="round"/>
<path d="M549.406 148.47H523.276V160.928H549.406V148.47Z" stroke="#282828" stroke-width="0.25" stroke-miterlimit="10" stroke-linecap="round" stroke-linejoin="round"/>
<path d="M549.406 160.427H523.276V172.885H549.406V160.427Z" stroke="#282828" stroke-width="0.25" stroke-miterlimit="10" stroke-linecap="round" stroke-linejoin="round"/>
<path d="M549.406 172.406H523.276V184.864H549.406V172.406Z" stroke="#282828" stroke-width="0.25" stroke-miterlimit="10" stroke-linecap="round" stroke-linejoin="round"/>
<path d="M549.406 184.386H523.276V196.844H549.406V184.386Z" stroke="#282828" stroke-width="0.25" stroke-miterlimit="10" stroke-linecap="round" stroke-linejoin="round"/>
<path d="M549.406 196.343H523.276V208.801H549.406V196.343Z" stroke="#282828" stroke-width="0.25" stroke-miterlimit="10" stroke-linecap="round" stroke-linejoin="round"/>
<path d="M575.878 64.6581H549.749V77.116H575.878V64.6581Z" stroke="#282828" stroke-width="0.25" stroke-miterlimit="10" stroke-linecap="round" stroke-linejoin="round"/>
<path d="M601.436 64.6581H575.307V77.116H601.436V64.6581Z" stroke="#282828" stroke-width="0.25" stroke-miterlimit="10" stroke-linecap="round" stroke-linejoin="round"/>
<path d="M627.017 64.6581H600.887V77.116H627.017V64.6581Z" stroke="#282828" stroke-width="0.25" stroke-miterlimit="10" stroke-linecap="round" stroke-linejoin="round"/>
<path d="M652.575 64.6581H626.445V77.116H652.575V64.6581Z" stroke="#282828" stroke-width="0.25" stroke-miterlimit="10" stroke-linecap="round" stroke-linejoin="round"/>
<path d="M678.156 64.6581H652.026V77.116H678.156V64.6581Z" stroke="#282828" stroke-width="0.25" stroke-miterlimit="10" stroke-linecap="round" stroke-linejoin="round"/>
<path d="M703.714 64.6581H677.584V77.116H703.714V64.6581Z" stroke="#282828" stroke-width="0.25" stroke-miterlimit="10" stroke-linecap="round" stroke-linejoin="round"/>
<path d="M729.295 64.6581H703.165V77.116H729.295V64.6581Z" stroke="#282828" stroke-width="0.25" stroke-miterlimit="10" stroke-linecap="round" stroke-linejoin="round"/>
<path d="M754.875 64.6581H728.746V77.116H754.875V64.6581Z" stroke="#282828" stroke-width="0.25" stroke-miterlimit="10" stroke-linecap="round" stroke-linejoin="round"/>
<path d="M754.853 77.116H549.406V208.801H754.853V77.116Z" stroke="#282828" stroke-width="0.25" stroke-miterlimit="10" stroke-linecap="round" stroke-linejoin="round"/>
<path d="M575.535 77.116V208.755" stroke="#282828" stroke-width="0.25" stroke-miterlimit="10" stroke-linecap="round" stroke-linejoin="round"/>
<path d="M601.116 77.116V208.755" stroke="#282828" stroke-width="0.25" stroke-miterlimit="10" stroke-linecap="round" stroke-linejoin="round"/>
<path d="M626.697 77.116V208.755" stroke="#282828" stroke-width="0.25" stroke-miterlimit="10" stroke-linecap="round" stroke-linejoin="round"/>
<path d="M652.278 77.116V208.755" stroke="#282828" stroke-width="0.25" stroke-miterlimit="10" stroke-linecap="round" stroke-linejoin="round"/>
<path d="M677.836 77.116V208.755" stroke="#282828" stroke-width="0.25" stroke-miterlimit="10" stroke-linecap="round" stroke-linejoin="round"/>
<path d="M703.417 77.116V208.755" stroke="#282828" stroke-width="0.25" stroke-miterlimit="10" stroke-linecap="round" stroke-linejoin="round"/>
<path d="M728.998 77.116V208.755" stroke="#282828" stroke-width="0.25" stroke-miterlimit="10" stroke-linecap="round" stroke-linejoin="round"/>
<path d="M549.406 89.0729H754.715" stroke="#282828" stroke-width="0.25" stroke-miterlimit="10" stroke-linecap="round" stroke-linejoin="round"/>
<path d="M549.406 101.007H754.715" stroke="#282828" stroke-width="0.25" stroke-miterlimit="10" stroke-linecap="round" stroke-linejoin="round"/>
<path d="M549.406 112.941H754.715" stroke="#282828" stroke-width="0.25" stroke-miterlimit="10" stroke-linecap="round" stroke-linejoin="round"/>
<path d="M549.406 124.875H754.715" stroke="#282828" stroke-width="0.25" stroke-miterlimit="10" stroke-linecap="round" stroke-linejoin="round"/>
<path d="M549.406 136.809H754.715" stroke="#282828" stroke-width="0.25" stroke-miterlimit="10" stroke-linecap="round" stroke-linejoin="round"/>
<path d="M549.406 148.743H754.715" stroke="#282828" stroke-width="0.25" stroke-miterlimit="10" stroke-linecap="round" stroke-linejoin="round"/>
<path d="M549.406 160.677H754.715" stroke="#282828" stroke-width="0.25" stroke-miterlimit="10" stroke-linecap="round" stroke-linejoin="round"/>
<path d="M549.406 172.612H754.715" stroke="#282828" stroke-width="0.25" stroke-miterlimit="10" stroke-linecap="round" stroke-linejoin="round"/>
<path d="M549.406 184.523H754.715" stroke="#282828" stroke-width="0.25" stroke-miterlimit="10" stroke-linecap="round" stroke-linejoin="round"/>
<path d="M549.406 196.457H754.715" stroke="#282828" stroke-width="0.25" stroke-miterlimit="10" stroke-linecap="round" stroke-linejoin="round"/>
<path d="M418.438 370.071H198.177L213.38 358.569H433.64L418.438 370.071Z" fill="#00CE00"/>
<path d="M81.6119 462.378H76.2169L213.38 358.569H218.798L81.6119 462.378Z" fill="#00CE00"/>
<path d="M369.905 406.716H149.645L166.881 393.893H387.119L369.905 406.716Z" fill="#282828"/>
<path d="M295.769 462.902H75.5082L213.38 358.569H433.64L295.769 462.902Z" stroke="#282828" stroke-width="0.25" stroke-miterlimit="10" stroke-linecap="round" stroke-linejoin="round"/>
<path d="M236.08 358.957L98.803 462.833" stroke="#282828" stroke-width="0.25" stroke-miterlimit="10" stroke-linecap="round" stroke-linejoin="round"/>
<path d="M258.209 358.957L120.932 462.833" stroke="#282828" stroke-width="0.25" stroke-miterlimit="10" stroke-linecap="round" stroke-linejoin="round"/>
<path d="M280.315 358.957L143.038 462.833" stroke="#282828" stroke-width="0.25" stroke-miterlimit="10" stroke-linecap="round" stroke-linejoin="round"/>
<path d="M302.444 358.957L165.167 462.833" stroke="#282828" stroke-width="0.25" stroke-miterlimit="10" stroke-linecap="round" stroke-linejoin="round"/>
<path d="M324.573 358.957L187.296 462.833" stroke="#282828" stroke-width="0.25" stroke-miterlimit="10" stroke-linecap="round" stroke-linejoin="round"/>
<path d="M346.702 358.957L209.402 462.833" stroke="#282828" stroke-width="0.25" stroke-miterlimit="10" stroke-linecap="round" stroke-linejoin="round"/>
<path d="M368.808 358.957L231.531 462.833" stroke="#282828" stroke-width="0.25" stroke-miterlimit="10" stroke-linecap="round" stroke-linejoin="round"/>
<path d="M390.937 358.957L253.66 462.833" stroke="#282828" stroke-width="0.25" stroke-miterlimit="10" stroke-linecap="round" stroke-linejoin="round"/>
<path d="M413.066 358.957L275.766 462.833" stroke="#282828" stroke-width="0.25" stroke-miterlimit="10" stroke-linecap="round" stroke-linejoin="round"/>
<path d="M184.69 380.57H404.287" stroke="#282828" stroke-width="0.25" stroke-miterlimit="10" stroke-linecap="round" stroke-linejoin="round"/>
<path d="M167.156 393.825H386.753" stroke="#282828" stroke-width="0.25" stroke-miterlimit="10" stroke-linecap="round" stroke-linejoin="round"/>
<path d="M149.622 407.103H369.219" stroke="#282828" stroke-width="0.25" stroke-miterlimit="10" stroke-linecap="round" stroke-linejoin="round"/>
<path d="M132.088 420.381H351.685" stroke="#282828" stroke-width="0.25" stroke-miterlimit="10" stroke-linecap="round" stroke-linejoin="round"/>
<path d="M114.554 433.636H334.152" stroke="#282828" stroke-width="0.25" stroke-miterlimit="10" stroke-linecap="round" stroke-linejoin="round"/>
<path d="M97.0199 446.914H316.618" stroke="#282828" stroke-width="0.25" stroke-miterlimit="10" stroke-linecap="round" stroke-linejoin="round"/>
<path d="M755.218 218.845H523.07V227.34H755.218V218.845Z" fill="#00CE00"/>
<path d="M528.763 218.845H523.07V328.256H528.763V218.845Z" fill="#00CE00"/>
<path d="M755.218 218.845H523.07V328.825H755.218V218.845Z" stroke="#282828" stroke-width="0.25" stroke-miterlimit="10" stroke-linecap="round" stroke-linejoin="round"/>
<path d="M547.531 219.277V328.757" stroke="#282828" stroke-width="0.25" stroke-miterlimit="10" stroke-linecap="round" stroke-linejoin="round"/>
<path d="M570.849 219.277V328.757" stroke="#282828" stroke-width="0.25" stroke-miterlimit="10" stroke-linecap="round" stroke-linejoin="round"/>
<path d="M594.166 219.277V328.757" stroke="#282828" stroke-width="0.25" stroke-miterlimit="10" stroke-linecap="round" stroke-linejoin="round"/>
<path d="M617.484 219.277V328.757" stroke="#282828" stroke-width="0.25" stroke-miterlimit="10" stroke-linecap="round" stroke-linejoin="round"/>
<path d="M640.802 219.277V328.757" stroke="#282828" stroke-width="0.25" stroke-miterlimit="10" stroke-linecap="round" stroke-linejoin="round"/>
<path d="M664.119 219.277V328.757" stroke="#282828" stroke-width="0.25" stroke-miterlimit="10" stroke-linecap="round" stroke-linejoin="round"/>
<path d="M687.437 219.277V328.757" stroke="#282828" stroke-width="0.25" stroke-miterlimit="10" stroke-linecap="round" stroke-linejoin="round"/>
<path d="M710.732 219.277V328.757" stroke="#282828" stroke-width="0.25" stroke-miterlimit="10" stroke-linecap="round" stroke-linejoin="round"/>
<path d="M734.05 219.277V328.757" stroke="#282828" stroke-width="0.25" stroke-miterlimit="10" stroke-linecap="round" stroke-linejoin="round"/>
<path d="M523.459 242.052H754.921" stroke="#282828" stroke-width="0.25" stroke-miterlimit="10" stroke-linecap="round" stroke-linejoin="round"/>
<path d="M523.459 256.036H754.921" stroke="#282828" stroke-width="0.25" stroke-miterlimit="10" stroke-linecap="round" stroke-linejoin="round"/>
<path d="M523.459 270.02H754.921" stroke="#282828" stroke-width="0.25" stroke-miterlimit="10" stroke-linecap="round" stroke-linejoin="round"/>
<path d="M523.459 284.004H754.921" stroke="#282828" stroke-width="0.25" stroke-miterlimit="10" stroke-linecap="round" stroke-linejoin="round"/>
<path d="M523.459 297.988H754.921" stroke="#282828" stroke-width="0.25" stroke-miterlimit="10" stroke-linecap="round" stroke-linejoin="round"/>
<path d="M523.459 311.972H754.921" stroke="#282828" stroke-width="0.25" stroke-miterlimit="10" stroke-linecap="round" stroke-linejoin="round"/>
<path d="M678.362 289.06H668.692V311.562H678.362V289.06Z" fill="#282828" stroke="#282828" stroke-width="0.5" stroke-miterlimit="10"/>
<path d="M693.861 275.554H684.191V311.562H693.861V275.554Z" fill="#00CE00" stroke="#282828" stroke-width="0.5" stroke-miterlimit="10"/>
<path d="M709.337 253.053H699.667V311.562H709.337V253.053Z" fill="#282828" stroke="#282828" stroke-width="0.5" stroke-miterlimit="10"/>
<path d="M724.837 274.917H715.167V311.562H724.837V274.917Z" fill="#00CE00" stroke="#282828" stroke-width="0.5" stroke-miterlimit="10"/>
<path d="M740.313 253.053H730.643V311.562H740.313V253.053Z" fill="#282828" stroke="#282828" stroke-width="0.5" stroke-miterlimit="10"/>
<path d="M578.804 284.505V311.243C563.991 311.243 551.966 299.263 551.966 284.505C551.966 269.747 563.991 257.767 578.804 257.767V284.505Z" fill="#00CE00" stroke="#282828" stroke-width="0.5" stroke-miterlimit="10"/>
<path d="M578.804 284.505L604.339 276.238C608.911 290.29 601.207 305.367 587.103 309.922C584.291 310.833 581.776 311.22 578.804 311.22V284.505Z" fill="#D9D9D9" stroke="#282828" stroke-width="0.5" stroke-miterlimit="10"/>
<path d="M578.804 284.505V257.767C590.669 257.767 600.659 265.01 604.339 276.238L578.804 284.505Z" fill="#282828" stroke="#282828" stroke-width="0.5" stroke-miterlimit="10"/>
</g>
<defs>
<clipPath id="clip0_10_720">
<rect width="983" height="499" fill="white"/>
</clipPath>
</defs>
</svg>
