<svg width="100%" height="100%" viewBox="0 0 1440 805" fill="none" xmlns="http://www.w3.org/2000/svg" preserveAspectRatio="xMidYMid slice">
<path d="M-135.273 4.5117C35.1075 -9.51046 263.984 69.1023 476.343 200.398C647.767 306.386 914.365 334.695 1095.38 283.216C1209.05 250.891 1473.43 123.465 1626.16 103.458" stroke="#282828" stroke-linecap="round"/>
<path d="M-150.596 175.152C19.7848 161.13 248.662 239.743 461.02 371.039C632.445 477.027 899.043 505.336 1080.06 453.857C1193.73 421.531 1458.11 294.105 1610.84 274.098" stroke="#282828" stroke-linecap="round"/>
<path d="M-136.413 17.207C33.9677 3.18485 262.845 81.7976 475.203 213.094C646.628 319.082 913.226 347.39 1094.24 295.911C1207.91 263.586 1472.29 136.16 1625.02 116.153" stroke="#282828" stroke-linecap="round"/>
<path d="M-151.736 187.847C18.6451 173.824 247.522 252.437 459.88 383.733C631.305 489.721 897.903 518.03 1078.92 466.551C1192.59 434.226 1456.97 306.799 1609.7 286.793" stroke="#282828" stroke-linecap="round"/>
<path d="M-138.159 36.6465C32.222 22.6243 261.099 101.237 473.457 232.533C644.882 338.521 911.48 366.83 1092.5 315.351C1206.16 283.025 1470.55 155.599 1623.28 135.593" stroke="#282828" stroke-linecap="round"/>
<path d="M-153.481 207.286C16.8997 193.264 245.777 271.877 458.135 403.173C629.56 509.161 896.158 537.469 1077.18 485.99C1190.84 453.665 1455.22 326.239 1607.96 306.232" stroke="#282828" stroke-linecap="round"/>
<path d="M-143.941 101.039C26.4401 87.0169 255.317 165.63 467.675 296.926C639.1 402.914 905.698 431.222 1086.72 379.743C1200.38 347.418 1464.76 219.992 1617.5 199.985" stroke="#282828" stroke-linecap="round"/>
<path d="M-160.845 278.365C9.53532 264.343 238.412 342.955 450.77 474.251C622.195 580.239 888.793 608.548 1069.81 557.069C1183.48 524.744 1447.86 397.318 1600.59 377.311" stroke="#282828" stroke-linecap="round"/>
<path d="M-144.703 138.938C25.6775 124.916 254.554 203.529 466.913 334.825C638.337 440.813 904.935 469.121 1085.95 417.642C1199.62 385.317 1464 257.891 1616.73 237.884" stroke="#282828" stroke-linecap="round"/>
<path d="M-163.602 327.291C6.77893 313.269 235.656 391.882 448.014 523.178C619.439 629.166 886.037 657.474 1067.06 605.995C1180.72 573.67 1445.1 446.244 1597.84 426.237" stroke="#282828" stroke-linecap="round"/>
<path d="M-149.886 165.738C20.4947 151.716 249.372 230.328 461.73 361.624C633.155 467.612 899.752 495.921 1080.77 444.442C1194.44 412.117 1458.82 284.691 1611.55 264.684" stroke="#282828" stroke-linecap="round"/>
<path d="M-165.591 342.148C4.78972 328.126 233.667 406.739 446.025 538.035C617.45 644.023 884.048 672.331 1065.07 620.852C1178.73 588.527 1443.11 461.101 1595.85 441.094" stroke="#282828" stroke-linecap="round"/>
<path d="M-146.494 156.878C23.8873 142.856 252.764 221.469 465.122 352.765C636.547 458.753 903.145 487.062 1084.16 435.583C1197.83 403.257 1462.21 275.831 1614.94 255.825" stroke="#282828" stroke-linecap="round"/>
<path d="M-166.731 354.842C3.64983 340.82 232.527 419.432 444.885 550.728C616.31 656.716 882.908 685.025 1063.93 633.546C1177.59 601.221 1441.97 473.795 1594.71 453.788" stroke="#282828" stroke-linecap="round"/>
<path d="M-158.56 226.414C11.8206 212.391 240.697 291.004 453.056 422.3C624.481 528.288 891.078 556.597 1072.1 505.118C1185.76 472.792 1450.14 345.366 1602.88 325.36" stroke="#282828" stroke-linecap="round"/>
<path d="M-168.476 374.281C1.90434 360.259 230.781 438.872 443.139 570.168C614.564 676.156 881.162 704.465 1062.18 652.985C1175.85 620.66 1440.23 493.234 1592.96 473.227" stroke="#282828" stroke-linecap="round"/>
<path d="M-158.936 268.035C11.4447 254.012 240.322 332.625 452.68 463.921C624.105 569.909 890.703 598.218 1071.72 546.739C1185.39 514.414 1449.77 386.987 1602.5 366.981" stroke="#282828" stroke-linecap="round"/>
<path d="M-184.529 437.035C-14.1479 423.013 224.999 503.265 437.357 634.561C608.782 740.549 875.38 768.857 1056.4 717.378C1170.07 685.053 1434.45 557.627 1587.18 537.62" stroke="#282828" stroke-linecap="round"/>
<path d="M-162.645 309.344C7.7354 295.322 236.612 373.934 448.97 505.23C620.395 611.218 886.993 639.527 1068.01 588.048C1181.68 555.723 1446.06 428.297 1598.79 408.29" stroke="#282828" stroke-linecap="round"/>
<path d="M-221.563 476.75C-51.182 462.728 221.29 544.574 433.648 675.87C605.073 781.858 871.67 810.167 1052.69 758.688C1166.36 726.362 1430.74 598.936 1583.47 578.93" stroke="#282828" stroke-linecap="round"/>
</svg>
