<svg width="100%" height="100%" viewBox="0 0 1440 1141" fill="none" xmlns="http://www.w3.org/2000/svg" preserveAspectRatio="xMidYMid slice">
<path d="M1676.98 670.11C1536.92 550.641 1287.46 475.308 1019.27 456.405C802.785 441.145 552.014 298.118 426.232 139.225C347.25 39.451 196.417 -238.263 75.5462 -351.857" stroke="#075BDA" stroke-linecap="round"/>
<path d="M1582.99 828.86C1442.93 709.391 1193.47 634.058 925.284 615.155C708.795 599.895 458.024 456.868 332.242 297.975C253.26 198.201 102.426 -79.5134 -18.4442 -193.107" stroke="#075BDA" stroke-linecap="round"/>
<path d="M1669.99 681.92C1529.93 562.451 1280.46 487.118 1012.28 468.215C795.793 452.955 545.022 309.929 419.24 151.035C340.258 51.2614 189.424 -226.453 68.5538 -340.046" stroke="#075BDA" stroke-linecap="round"/>
<path d="M1576 840.67C1435.94 721.201 1186.47 645.868 918.291 626.965C701.802 611.705 451.031 468.678 325.25 309.785C246.267 210.011 95.434 -67.7034 -25.4366 -181.296" stroke="#075BDA" stroke-linecap="round"/>
<path d="M1659.28 700.005C1519.22 580.536 1269.76 505.203 1001.57 486.3C785.085 471.04 534.314 328.013 408.533 169.12C329.55 69.3461 178.717 -208.368 57.8464 -321.962" stroke="#075BDA" stroke-linecap="round"/>
<path d="M1565.29 858.755C1425.23 739.286 1175.77 663.953 907.584 645.049C691.095 629.79 440.324 486.763 314.542 327.87C235.56 228.096 84.7266 -49.6187 -36.144 -163.212" stroke="#075BDA" stroke-linecap="round"/>
<path d="M1623.81 759.911C1483.75 640.442 1234.29 565.109 966.106 546.206C749.617 530.946 498.846 387.919 373.064 229.026C294.082 129.252 143.249 -148.462 22.378 -262.056" stroke="#075BDA" stroke-linecap="round"/>
<path d="M1529.82 918.661C1389.76 799.192 1140.3 723.859 872.115 704.956C655.626 689.696 404.856 546.669 279.074 387.776C200.092 288.002 49.2582 10.2876 -71.6124 -103.306" stroke="#075BDA" stroke-linecap="round"/>
<path d="M1601.06 798.342C1461 678.873 1211.54 603.539 943.352 584.636C726.863 569.377 476.093 426.35 350.311 267.456C271.329 167.682 120.495 -110.032 -0.375359 -223.625" stroke="#075BDA" stroke-linecap="round"/>
<path d="M1507.07 957.091C1367.01 837.622 1117.54 762.289 849.362 743.386C632.873 728.126 382.102 585.1 256.32 426.206C177.338 326.432 26.5049 48.7178 -94.3657 -64.8753" stroke="#075BDA" stroke-linecap="round"/>
<path d="M1585 825.469C1444.94 706 1195.47 630.667 927.291 611.763C710.802 596.504 460.031 453.477 334.25 294.584C255.267 194.81 104.434 -82.9046 -16.4365 -196.498" stroke="#075BDA" stroke-linecap="round"/>
<path d="M1491.01 984.219C1350.95 864.75 1101.48 789.416 833.301 770.513C616.812 755.254 366.041 612.227 240.259 453.334C161.277 353.56 10.4437 75.8452 -110.427 -37.7479" stroke="#075BDA" stroke-linecap="round"/>
<path d="M1578 837.279C1437.95 717.81 1188.48 642.477 920.299 623.573C703.81 608.314 453.039 465.287 327.257 306.394C248.275 206.62 97.4417 -71.0945 -23.4289 -184.688" stroke="#075BDA" stroke-linecap="round"/>
<path d="M1484.01 996.029C1343.96 876.56 1094.49 801.227 826.308 782.323C609.82 767.064 359.049 624.037 233.267 465.144C154.285 365.37 3.45129 87.6555 -117.419 -25.9376" stroke="#075BDA" stroke-linecap="round"/>
<path d="M1567.3 855.364C1427.24 735.895 1177.77 660.562 909.591 641.659C693.102 626.399 442.332 483.372 316.55 324.479C237.568 224.705 86.7342 -53.0093 -34.1363 -166.602" stroke="#075BDA" stroke-linecap="round"/>
<path d="M1473.31 1014.11C1333.25 894.645 1083.78 819.311 815.601 800.408C599.112 785.148 348.341 642.122 222.559 483.228C143.577 383.454 -7.2561 105.74 -128.127 -7.85312" stroke="#075BDA" stroke-linecap="round"/>
<path d="M1531.83 915.27C1391.77 795.801 1142.31 720.468 874.123 701.564C657.634 686.305 406.863 543.278 281.081 384.385C202.099 284.611 51.2658 6.89647 -69.6048 -106.697" stroke="#075BDA" stroke-linecap="round"/>
<path d="M1447.84 1079.05C1307.79 959.582 1048.32 879.217 780.133 860.314C563.644 845.055 312.873 702.028 187.091 543.135C108.109 443.361 -42.7245 165.646 -163.595 52.0533" stroke="#075BDA" stroke-linecap="round"/>
<path d="M1509.07 953.7C1369.02 834.231 1119.55 758.898 851.37 739.995C634.881 724.735 384.11 581.709 258.328 422.815C179.346 323.041 28.5125 45.3269 -92.358 -68.2662" stroke="#075BDA" stroke-linecap="round"/>
<path d="M1455.21 1137.06C1315.16 1017.59 1025.56 917.648 757.379 898.745C540.89 883.485 290.12 740.459 164.338 581.565C85.3556 481.791 -65.4779 204.077 -186.348 90.4837" stroke="#075BDA" stroke-linecap="round"/>
</svg>
