<svg width="100%" height="100%" viewBox="0 0 1440 2742" fill="none" xmlns="http://www.w3.org/2000/svg" preserveAspectRatio="xMidYMid slice">
<path d="M-397.69 1635.4C-183.615 1452.79 197.688 1337.64 607.601 1308.75C938.501 1285.43 1321.8 1066.81 1514.06 823.947C1634.78 671.444 1865.33 246.962 2050.07 73.3365" stroke="#075BDA" stroke-linecap="round"/>
<path d="M-254.027 1878.04C-39.952 1695.44 341.351 1580.29 751.264 1551.4C1082.16 1528.07 1465.46 1309.46 1657.72 1066.59C1778.44 914.091 2008.99 489.609 2193.74 315.983" stroke="#075BDA" stroke-linecap="round"/>
<path d="M-387.002 1653.45C-172.927 1470.84 208.376 1355.7 618.289 1326.8C949.189 1303.48 1332.49 1084.86 1524.74 841.999C1645.47 689.496 1876.01 265.014 2060.76 91.3885" stroke="#075BDA" stroke-linecap="round"/>
<path d="M-243.34 1896.09C-29.2643 1713.49 352.039 1598.34 761.952 1569.45C1092.85 1546.12 1476.15 1327.51 1668.41 1084.64C1789.13 932.142 2019.68 507.66 2204.42 334.035" stroke="#075BDA" stroke-linecap="round"/>
<path d="M-370.636 1681.09C-156.561 1498.48 224.742 1383.34 634.655 1354.44C965.555 1331.12 1348.85 1112.51 1541.11 869.641C1661.83 717.138 1892.38 292.656 2077.13 119.031" stroke="#075BDA" stroke-linecap="round"/>
<path d="M-226.973 1923.74C-12.8981 1741.13 368.405 1625.98 778.318 1597.09C1109.22 1573.77 1492.52 1355.15 1684.77 1112.29C1805.5 959.784 2036.04 535.302 2220.79 361.677" stroke="#075BDA" stroke-linecap="round"/>
<path d="M-316.423 1772.66C-102.348 1590.05 278.955 1474.9 688.868 1446.01C1019.77 1422.69 1403.07 1204.07 1595.32 961.206C1716.05 808.703 1946.59 384.221 2131.34 210.596" stroke="#075BDA" stroke-linecap="round"/>
<path d="M-172.761 2015.3C41.3148 1832.7 422.618 1717.55 832.531 1688.66C1163.43 1665.33 1546.73 1446.72 1738.99 1203.85C1859.71 1051.35 2090.25 626.868 2275 453.243" stroke="#075BDA" stroke-linecap="round"/>
<path d="M-281.645 1831.4C-67.5699 1648.79 313.733 1533.64 723.646 1504.75C1054.55 1481.43 1437.85 1262.81 1630.1 1019.95C1750.82 867.444 1981.37 442.961 2166.12 269.336" stroke="#075BDA" stroke-linecap="round"/>
<path d="M-137.983 2074.04C76.0926 1891.44 457.395 1776.29 867.309 1747.4C1198.21 1724.07 1581.51 1505.46 1773.76 1262.59C1894.49 1110.09 2125.03 685.608 2309.78 511.983" stroke="#075BDA" stroke-linecap="round"/>
<path d="M-257.096 1872.86C-43.0209 1690.25 338.282 1575.11 748.195 1546.21C1079.09 1522.89 1462.39 1304.28 1654.65 1061.41C1775.37 908.907 2005.92 484.425 2190.67 310.8" stroke="#075BDA" stroke-linecap="round"/>
<path d="M-113.433 2115.51C100.642 1932.9 481.945 1817.75 891.858 1788.86C1222.76 1765.54 1606.06 1546.92 1798.31 1304.06C1919.04 1151.55 2149.58 727.072 2334.33 553.447" stroke="#075BDA" stroke-linecap="round"/>
<path d="M-246.408 1890.91C-32.3329 1708.3 348.97 1593.16 758.883 1564.27C1089.78 1540.94 1473.08 1322.33 1665.34 1079.46C1786.06 926.959 2016.61 502.477 2201.36 328.852" stroke="#075BDA" stroke-linecap="round"/>
<path d="M-102.746 2133.56C111.33 1950.95 492.633 1835.81 902.546 1806.91C1233.45 1783.59 1616.74 1564.97 1809 1322.11C1929.72 1169.61 2160.27 745.124 2345.02 571.498" stroke="#075BDA" stroke-linecap="round"/>
<path d="M-230.042 1918.55C-15.9669 1735.95 365.336 1620.8 775.249 1591.91C1106.15 1568.58 1489.45 1349.97 1681.7 1107.1C1802.43 954.602 2032.97 530.12 2217.72 356.494" stroke="#075BDA" stroke-linecap="round"/>
<path d="M-86.3794 2161.2C127.696 1978.59 508.999 1863.45 918.912 1834.55C1249.81 1811.23 1633.11 1592.62 1825.37 1349.75C1946.09 1197.25 2176.64 772.765 2361.38 599.14" stroke="#075BDA" stroke-linecap="round"/>
<path d="M-175.829 2010.12C38.2462 1827.51 419.549 1712.37 829.462 1683.47C1160.36 1660.15 1543.66 1441.54 1735.92 1198.67C1856.64 1046.17 2087.19 621.685 2271.93 448.059" stroke="#075BDA" stroke-linecap="round"/>
<path d="M-47.4596 2260.45C166.616 2077.85 563.212 1955.01 973.125 1926.12C1304.02 1902.8 1687.32 1684.18 1879.58 1441.32C2000.3 1288.81 2230.85 864.331 2415.6 690.706" stroke="#075BDA" stroke-linecap="round"/>
<path d="M-141.051 2068.86C73.0243 1886.25 454.327 1771.11 864.24 1742.21C1195.14 1718.89 1578.44 1500.28 1770.69 1257.41C1891.42 1104.91 2121.96 680.425 2306.71 506.8" stroke="#075BDA" stroke-linecap="round"/>
<path d="M-58.7241 2349.12C155.351 2166.51 597.99 2013.75 1007.9 1984.86C1338.8 1961.54 1722.1 1742.92 1914.36 1500.06C2035.08 1347.55 2265.63 923.072 2450.38 749.447" stroke="#075BDA" stroke-linecap="round"/>
</svg>
