<svg width="48" height="70" viewBox="0 0 48 70" fill="none" xmlns="http://www.w3.org/2000/svg">
<g clip-path="url(#clip0_22_2175)">
<path d="M5.39419 42.8128C3.04373 44.462 2.48438 46.7517 2.86521 49.3893H0.410619C0.127968 46.2938 0.0714294 44.2359 3.6001 40.9694C3.37457 40.3692 3.18584 39.7566 3.03483 39.1347C2.78801 37.9315 2.94654 36.683 3.48693 35.5747C4.02731 34.4665 4.92061 33.5579 6.03385 32.9842C6.20672 32.9097 6.35085 32.7837 6.44549 32.6243C6.54013 32.4649 6.5804 32.2804 6.56047 32.0973C6.59023 29.7785 6.50695 27.4192 6.74498 25.1062C7.14069 21.2426 7.93508 19.8427 10.6812 17.1442C7.70598 13.1618 8.72948 8.70982 10.9104 6.21427C13.1359 3.66655 17.3131 2.07531 21.6897 4.09552C23.2726 1.75069 25.4802 0.327556 28.3692 0.0377134C29.5218 -0.0862051 30.6883 0.0189213 31.798 0.346729C32.9078 0.674536 33.9377 1.21821 34.8255 1.94488C35.7809 2.71359 36.5612 3.66803 37.1165 4.74719C37.6717 5.82635 37.9897 7.0065 38.0502 8.21219C38.1107 9.41789 37.9123 10.6226 37.4677 11.7494C37.0231 12.8761 36.3421 13.9001 35.4682 14.7559C36.4322 15.4863 37.4527 16.1617 38.3542 16.9674C39.6504 18.0978 40.6857 19.4831 41.392 21.0319C42.0982 22.5807 42.4592 24.2579 42.4512 25.9526C42.469 26.9583 42.4303 27.9641 42.4719 28.9699C42.4817 29.1086 42.5196 29.244 42.5834 29.3684C42.6473 29.4928 42.7358 29.6036 42.8439 29.6945C45.3907 31.4944 46.1702 34.6015 44.6974 37.297C44.653 37.3487 44.6205 37.409 44.6021 37.474C44.5837 37.539 44.5798 37.6071 44.5908 37.6736C44.6018 37.7402 44.6274 37.8036 44.6658 37.8597C44.7043 37.9157 44.7546 37.9631 44.8135 37.9985C45.752 38.8085 46.5 39.8064 47.0063 40.9239C47.5126 42.0414 47.7653 43.2522 47.7471 44.4736C47.762 46.0967 47.7471 47.7198 47.7471 49.3806H45.2419C45.2419 49.1487 45.2419 48.9198 45.2419 48.6908C45.2062 46.9517 45.242 45.1866 45.111 43.4446C44.992 41.9403 44.156 40.7317 43.0284 39.7201C42.9338 39.6169 42.8033 39.5514 42.662 39.5364C42.5208 39.5214 42.3789 39.558 42.2637 39.639C40.3208 40.6071 38.3958 40.552 36.4649 39.5462C36.354 39.5037 36.2345 39.4868 36.1157 39.4968C35.997 39.5069 35.8823 39.5436 35.7806 39.6042C35.0529 40.1566 34.4632 40.8624 34.0556 41.6686C33.648 42.4748 33.4332 43.3604 33.4272 44.2591C33.3974 45.946 33.4272 47.6357 33.4272 49.369H30.925C30.925 49.1632 30.8982 48.9487 30.8982 48.7371C30.8982 46.5633 30.916 44.3895 30.8982 42.2157C30.8982 40.3375 30.4102 38.5984 29.1785 37.1058C29.0892 36.9956 28.994 36.8884 28.8958 36.7869C28.7976 36.6855 28.7173 36.6217 28.6221 36.5348C25.6855 38.3637 22.7757 38.3492 19.851 36.4072C18.7191 37.4097 17.957 38.7469 17.6821 40.2129C17.5299 41.0026 17.4473 41.8035 17.4351 42.607C17.4024 44.6359 17.4351 46.6648 17.4351 48.6937V49.369H14.9448C14.897 48.5454 14.903 47.7196 14.9626 46.8966C15.156 45.4127 14.4628 44.346 13.4601 43.3809C13.1983 43.1287 12.9246 42.8852 12.6301 42.6128C11.5877 43.3899 10.3212 43.8289 9.00911 43.8678C7.71978 43.8984 6.45385 43.529 5.39419 42.8128ZM14.8942 41.3201C14.9324 41.2421 14.9652 41.1617 14.9924 41.0795C15.0132 40.9809 15.0251 40.8824 15.037 40.7897C15.3078 38.5231 16.1765 36.5203 17.8605 34.9058C18.1759 34.616 18.0926 34.3986 17.926 34.0827C17.3889 33.0658 17.1166 31.9358 17.133 30.7923C17.1494 29.6488 17.4539 28.5267 18.0199 27.5248C18.5859 26.5229 19.3959 25.6718 20.3788 25.0463C21.3616 24.4209 22.4871 24.0404 23.6564 23.9382C24.4418 23.8686 25.2363 23.9382 26.0217 23.9382C25.876 22.2774 24.6799 20.1934 23.2934 19.1819C23.1541 19.056 22.9732 18.9828 22.7834 18.9754C22.5936 18.9679 22.4072 19.0268 22.258 19.1413C19.2024 20.8803 16.12 20.8803 13.0585 19.1413C12.9361 19.0421 12.7805 18.9903 12.6214 18.9956C12.4623 19.0009 12.3107 19.0631 12.1956 19.1703C10.8359 20.2108 10.0624 21.602 9.62204 23.1904C8.80979 26.1323 9.19361 29.1467 9.11328 32.132C9.11328 32.1668 9.14898 32.2016 9.18468 32.2683C11.2674 32.4567 12.9335 33.3668 14.0165 35.1667C15.0995 36.9666 15.0697 38.868 14.2188 40.752L14.8942 41.3201ZM34.2722 37.4043C32.0705 33.6363 34.6857 28.6046 40.0233 28.6771C39.9281 27.1496 39.9935 25.6019 39.7258 24.1179C39.0385 20.489 36.6761 18.1094 33.3409 16.582C33.0975 16.5 32.8316 16.5082 32.5941 16.6051C30.9979 17.2369 29.2464 17.3981 27.557 17.0689C26.7596 16.9066 25.986 16.6167 25.1559 16.3704L24.7305 16.9761C25.4415 17.7442 26.1496 18.3993 26.7209 19.15C28.0241 20.8629 28.5269 22.8658 28.8036 24.9468C28.8559 25.2499 29.0023 25.5301 29.2231 25.7497C31.3534 27.8366 32.0139 30.2857 31.1422 33.1059C30.9666 33.6856 30.4013 34.2479 30.4847 34.7435C30.568 35.2392 31.2849 35.6797 31.6122 36.1927C32.1269 37.0217 32.5494 37.9086 33.0225 38.8013L34.2722 37.4043ZM17.6285 17.9384C19.2856 17.9417 20.8776 17.3102 22.061 16.1802C23.2444 15.0501 23.9242 13.5121 23.9539 11.8981C23.9539 8.44606 21.1839 5.64328 17.7356 5.63169C16.9061 5.62483 16.0833 5.77721 15.3143 6.08012C14.5452 6.38302 13.845 6.83052 13.2534 7.39707C12.0588 8.54127 11.3798 10.1009 11.3656 11.7329C11.3514 13.3649 12.0032 14.9355 13.1778 16.0993C14.3523 17.263 15.9532 17.9246 17.6285 17.9384ZM26.2151 13.9618C28.8929 15.6632 32.8559 14.6284 34.6262 11.7851C35.0611 11.0824 35.3473 10.3019 35.4677 9.48983C35.5882 8.67771 35.5405 7.85032 35.3275 7.05642C35.1146 6.26253 34.7407 5.5182 34.2278 4.86731C33.7149 4.21642 33.0734 3.67214 32.3412 3.26657C29.3183 1.58258 25.3702 2.63761 23.7814 5.58531C26.1348 7.91855 26.9262 10.7155 26.2151 13.9618ZM24.3347 35.4102C25.2574 35.4073 26.1585 35.1379 26.9241 34.6362C27.6896 34.1344 28.2853 33.4228 28.6356 32.5912C28.986 31.7597 29.0754 30.8456 28.8925 29.9646C28.7096 29.0836 28.2626 28.2752 27.6081 27.6416C26.9536 27.008 26.1209 26.5778 25.2154 26.4052C24.3099 26.2327 23.3721 26.3256 22.5208 26.6722C21.6695 27.0188 20.9428 27.6036 20.4326 28.3526C19.9224 29.1015 19.6517 29.9811 19.6546 30.8799C19.6601 32.0884 20.1576 33.2453 21.0378 34.0968C21.918 34.9483 23.1091 35.4248 24.3496 35.4218L24.3347 35.4102ZM12.3206 38.0564C12.3137 37.1719 11.9513 36.3251 11.3112 35.6977C10.671 35.0703 9.80406 34.7122 8.89609 34.7C8.43397 34.6846 7.97331 34.7595 7.54146 34.9205C7.10961 35.0815 6.71536 35.3253 6.38193 35.6374C6.0485 35.9495 5.78267 36.3235 5.60027 36.7375C5.41787 37.1514 5.32254 37.5967 5.31996 38.0472C5.31737 38.4976 5.4076 38.944 5.58523 39.3599C5.76287 39.7758 6.02435 40.1527 6.35418 40.4684C6.68401 40.7841 7.07546 41.0322 7.50543 41.1979C7.9354 41.3636 8.3951 41.4436 8.85737 41.4331C9.77433 41.4331 10.6539 41.0788 11.3031 40.448C11.9523 39.8172 12.3183 38.9613 12.3206 38.068V38.0564ZM39.4877 37.8535C39.9369 37.8566 40.3824 37.7729 40.7981 37.6072C41.2139 37.4415 41.5918 37.1971 41.91 36.8882C42.2282 36.5793 42.4803 36.212 42.6519 35.8076C42.8234 35.4031 42.9109 34.9696 42.9093 34.5319C42.9109 34.0902 42.8228 33.6526 42.6501 33.2442C42.4774 32.8357 42.2235 32.4646 41.903 32.1521C41.5826 31.8397 41.2018 31.592 40.7827 31.4234C40.3636 31.2548 39.9144 31.1686 39.461 31.1698C38.5537 31.1795 37.6861 31.5339 37.0431 32.1576C36.4001 32.7813 36.0325 33.6249 36.0186 34.5088C36.0182 34.9516 36.1079 35.3901 36.2824 35.799C36.4568 36.2079 36.7127 36.5791 37.0353 36.8912C37.3578 37.2032 37.7406 37.45 38.1615 37.6171C38.5825 37.7843 39.0332 37.8686 39.4877 37.8651V37.8535Z" fill="#D9D9D9"/>
<path d="M35.4027 59.2062C34.3733 59.2062 33.4123 59.2062 32.4513 59.2062C32.273 59.1672 32.1167 59.0635 32.0139 58.9164C30.5054 57.0875 27.7711 57.1048 26.1764 57.7918C24.3168 58.5917 23.1476 60.7192 23.3707 62.8727C23.4927 63.877 23.9221 64.8223 24.6028 65.5858C25.2836 66.3492 26.1843 66.8955 27.188 67.1537C28.9315 67.5624 30.437 67.1189 31.7432 65.9277C31.9835 65.728 32.2846 65.6109 32.6 65.5943C33.4926 65.5509 34.409 65.5799 35.3224 65.5799C35.0248 67.2841 32.3322 69.855 28.8541 69.9971C24.6888 70.171 21.0441 67.3305 20.5234 63.3162C20.2507 61.4023 20.7358 59.4589 21.8801 57.8807C23.0245 56.3024 24.7424 55.2074 26.6852 54.818C30.2466 54.0441 34.3257 56.0527 35.4027 59.2062Z" fill="#D9D9D9"/>
<path d="M2.83839 69.7189H-3.05176e-05V55.0036C0.0475738 54.9717 0.0803395 54.9312 0.113067 54.9312C2.08567 54.9717 4.07014 54.9022 6.03084 55.0906C8.54792 55.3311 9.8392 57.4731 9.68448 59.8643C9.64684 60.8764 9.2801 61.8508 8.63718 62.6468C7.85469 63.5888 6.79848 63.9685 5.6054 64.0496C4.71282 64.1105 3.80237 64.1308 2.83839 64.1742V69.7189ZM2.85923 57.7021V61.4874C3.70961 61.4562 4.55773 61.3817 5.40012 61.2642C6.35221 61.0903 6.8193 60.4092 6.7836 59.4817C6.74789 58.5107 6.22422 57.8267 5.27511 57.7194C4.4711 57.6637 3.6645 57.6531 2.85923 57.6876V57.7021Z" fill="#D9D9D9"/>
<path d="M35.8222 54.899C36.8189 54.899 37.7413 54.8758 38.6577 54.9222C38.8154 54.9222 39.0117 55.212 39.0921 55.4091C39.9251 57.4641 40.7404 59.5249 41.5586 61.5828L41.8561 62.3045C41.9751 62.0379 42.0643 61.8582 42.1387 61.6698C42.9897 59.58 43.8465 57.4931 44.6766 55.3946C44.7139 55.231 44.8136 55.0873 44.9556 54.9926C45.0975 54.8978 45.2711 54.8592 45.4412 54.8845C46.2565 54.9193 47.0717 54.8845 48 54.8845C47.4615 56.1453 46.9794 57.2902 46.4885 58.4293C44.9414 62.0234 43.3854 65.6116 41.8591 69.2086C41.8177 69.3797 41.7111 69.5292 41.5608 69.6266C41.4105 69.724 41.2278 69.7621 41.0497 69.7332C40.3714 69.6984 39.693 69.7332 38.9016 69.7332C39.1099 69.197 39.2914 68.7216 39.4759 68.2463C39.7913 67.4405 40.3506 66.6348 40.3476 65.829C40.3446 65.0232 39.7734 64.2667 39.455 63.49C38.3363 60.8563 37.2156 58.2226 36.093 55.5888C35.9977 55.3917 35.9293 55.1889 35.8222 54.899Z" fill="#D9D9D9"/>
<path d="M11.7404 54.8936H12.8264C14.9269 54.8936 17.0275 54.8936 19.128 54.8936C19.5773 54.8936 19.7707 55.0008 19.7379 55.4732C19.7022 55.9741 19.7022 56.4767 19.7379 56.9775C19.7766 57.4703 19.613 57.65 19.0864 57.6355C17.8308 57.6007 16.5752 57.6355 15.3167 57.6355H14.5818V69.7103H11.7404V54.8936Z" fill="#D9D9D9"/>
</g>
<defs>
<clipPath id="clip0_22_2175">
<rect width="48" height="70" fill="white"/>
</clipPath>
</defs>
</svg>
