<svg width="1440" height="621" viewBox="0 0 1440 621" fill="none" xmlns="http://www.w3.org/2000/svg">
<path d="M1473.5 3.44863C1331.11 -12.0514 1132.47 47.1297 943.749 149.949C791.407 232.949 564.808 249.949 416.294 203.449C323.037 174.25 110.079 63.4486 -17 43.4486" stroke="#00CE00" stroke-linecap="round"/>
<path d="M1473.5 143.897C1331.11 128.397 1132.47 187.578 943.749 290.397C791.407 373.397 564.808 390.397 416.294 343.897C323.037 314.699 110.079 203.897 -17 183.897" stroke="#00CE00" stroke-linecap="round"/>
<path d="M1473.5 13.8973C1331.11 -1.60274 1132.47 57.5783 943.749 160.397C791.407 243.397 564.808 260.397 416.294 213.897C323.037 184.699 110.079 73.8973 -17 53.8973" stroke="#00CE00" stroke-linecap="round"/>
<path d="M1473.5 154.346C1331.11 138.846 1132.47 198.027 943.749 300.846C791.407 383.846 564.808 400.846 416.294 354.346C323.037 325.147 110.079 214.346 -17 194.346" stroke="#00CE00" stroke-linecap="round"/>
<path d="M1473.5 29.8973C1331.11 14.3973 1132.47 73.5783 943.749 176.397C791.407 259.397 564.808 276.397 416.294 229.897C323.037 200.699 110.079 89.8973 -17 69.8973" stroke="#00CE00" stroke-linecap="round"/>
<path d="M1473.5 170.346C1331.11 154.846 1132.47 214.027 943.749 316.846C791.407 399.846 564.808 416.846 416.294 370.346C323.037 341.147 110.079 230.346 -17 210.346" stroke="#00CE00" stroke-linecap="round"/>
<path d="M1473.5 82.8973C1331.11 67.3973 1132.47 126.578 943.749 229.397C791.407 312.397 564.808 329.397 416.294 282.897C323.037 253.699 110.079 142.897 -17 122.897" stroke="#00CE00" stroke-linecap="round"/>
<path d="M1473.5 223.346C1331.11 207.846 1132.47 267.027 943.749 369.846C791.407 452.846 564.808 469.846 416.294 423.346C323.037 394.147 110.079 283.346 -17 263.346" stroke="#00CE00" stroke-linecap="round"/>
<path d="M1473.5 116.897C1331.11 101.397 1132.47 160.578 943.749 263.397C791.407 346.397 564.808 363.397 416.294 316.897C323.037 287.699 110.079 176.897 -17 156.897" stroke="#00CE00" stroke-linecap="round"/>
<path d="M1473.5 257.346C1331.11 241.846 1132.47 301.027 943.749 403.846C791.407 486.846 564.808 503.846 416.294 457.346C323.037 428.147 110.079 317.346 -17 297.346" stroke="#00CE00" stroke-linecap="round"/>
<path d="M1473.5 140.897C1331.11 125.397 1132.47 184.578 943.749 287.397C791.407 370.397 564.808 387.397 416.294 340.897C323.037 311.699 110.079 200.897 -17 180.897" stroke="#00CE00" stroke-linecap="round"/>
<path d="M1473.5 281.346C1331.11 265.846 1132.47 325.027 943.749 427.846C791.407 510.846 564.808 527.846 416.294 481.346C323.037 452.147 110.079 341.346 -17 321.346" stroke="#00CE00" stroke-linecap="round"/>
<path d="M1473.5 151.346C1331.11 135.846 1132.47 195.027 943.749 297.846C791.407 380.846 564.808 397.846 416.294 351.346C323.037 322.147 110.079 211.346 -17 191.346" stroke="#00CE00" stroke-linecap="round"/>
<path d="M1473.5 291.795C1331.11 276.295 1132.47 335.476 943.749 438.295C791.407 521.295 564.808 538.295 416.294 491.795C323.037 462.596 110.079 351.795 -17 331.795" stroke="#00CE00" stroke-linecap="round"/>
<path d="M1473.5 167.346C1331.11 151.846 1132.47 211.027 943.749 313.846C791.407 396.846 564.808 413.846 416.294 367.346C323.037 338.147 110.079 227.346 -17 207.346" stroke="#00CE00" stroke-linecap="round"/>
<path d="M1473.5 307.795C1331.11 292.295 1132.47 351.476 943.749 454.295C791.407 537.295 564.808 554.295 416.294 507.795C323.037 478.596 110.079 367.795 -17 347.795" stroke="#00CE00" stroke-linecap="round"/>
<path d="M1473.5 220.346C1331.11 204.846 1132.47 264.027 943.749 366.846C791.407 449.846 564.808 466.846 416.294 420.346C323.037 391.147 110.079 280.346 -17 260.346" stroke="#00CE00" stroke-linecap="round"/>
<path d="M1473.5 360.795C1331.11 345.295 1132.47 404.476 943.749 507.295C791.407 590.295 564.808 607.295 416.294 560.795C323.037 531.596 110.079 420.795 -17 400.795" stroke="#00CE00" stroke-linecap="round"/>
<path d="M1473.5 254.346C1331.11 238.846 1132.47 298.027 943.749 400.846C791.407 483.846 564.808 500.846 416.294 454.346C323.037 425.147 110.079 314.346 -17 294.346" stroke="#00CE00" stroke-linecap="round"/>
<path d="M1473.5 394.795C1331.11 379.295 1132.47 438.476 943.749 541.295C791.407 624.295 564.808 641.295 416.294 594.795C323.037 565.596 110.079 454.795 -17 434.795" stroke="#00CE00" stroke-linecap="round"/>
</svg>
